SplineFontDB: 3.0
FontName: IDSComps
FullName: IDSComps
FamilyName: IDSComps
Weight: Medium
Copyright: Created by blankego,,, with FontForge 2.0 (http://fontforge.sf.net)
Version: 001.000
ItalicAngle: 0
UnderlinePosition: -123
UnderlineWidth: 20
Ascent: 800
Descent: 200
LayerCount: 2
Layer: 0 1 "Back"  1
Layer: 1 1 "Fore"  0
NeedsXUIDChange: 1
XUID: [1021 505 1103207427 2076663]
FSType: 8
OS2Version: 2
OS2_WeightWidthSlopeOnly: 0
OS2_UseTypoMetrics: 1
CreationTime: 1326524664
ModificationTime: 1327064800
PfmFamily: 17
TTFWeight: 500
TTFWidth: 5
LineGap: 0
VLineGap: 0
Panose: 2 0 6 3 0 0 0 0 0 0
OS2TypoAscent: 0
OS2TypoAOffset: 1
OS2TypoDescent: 0
OS2TypoDOffset: 1
OS2TypoLinegap: 90
OS2WinAscent: -170
OS2WinAOffset: 1
OS2WinDescent: -70
OS2WinDOffset: 1
HheadAscent: -170
HheadAOffset: 1
HheadDescent: 70
HheadDOffset: 1
OS2SubXSize: 650
OS2SubYSize: 699
OS2SubXOff: 0
OS2SubYOff: 140
OS2SupXSize: 650
OS2SupYSize: 699
OS2SupXOff: 0
OS2SupYOff: 479
OS2StrikeYSize: 49
OS2StrikeYPos: 258
OS2Vendor: 'PfEd'
OS2CodePages: 00000001.00000000
OS2UnicodeRanges: 00000001.3a050000.00000000.00000000
Lookup: 4 0 1 "'liga' Standard Ligatures lookup 0"  {"'liga' Standard Ligatures lookup 0 subtable"  } ['liga' ('DFLT' <'dflt' > 'hani' <'dflt' > 'kana' <'dflt' > 'latn' <'dflt' > ) ]
DEI: 91125
MacFeat: 0 0 0
MacName: 0 0 24 "All Typographic Features"
MacName: 0 1 24 "Fonctions typographiques"
MacName: 0 2 32 "Alle typografischen Mglichkeiten"
MacName: 0 3 21 "Funzioni Tipografiche"
MacName: 0 4 28 "Alle typografische kenmerken"
MacSetting: 0
MacName: 0 0 17 "All Type Features"
MacName: 0 1 31 "Toutes fonctions typographiques"
MacName: 0 2 23 "Alle Auszeichnungsarten"
MacName: 0 3 17 "Tutte le Funzioni"
MacName: 0 4 18 "Alle typekenmerken"
MacFeat: 1 0 0
MacName: 0 0 9 "Ligatures"
MacName: 0 1 9 "Ligatures"
MacName: 0 2 9 "Ligaturen"
MacName: 0 3 8 "Legature"
MacName: 0 4 9 "Ligaturen"
MacSetting: 2
MacName: 0 0 16 "Common Ligatures"
MacName: 0 1 18 "Ligatures Usuelles"

StartChar: .notdef
Encoding: 1114112 -1 0
Width: 364
Flags: W
LayerCount: 2
Fore
SplineSet
33 0 m 1,0,-1
 33 666 l 1,1,-1
 298 666 l 1,2,-1
 298 0 l 1,3,-1
 33 0 l 1,0,-1
66 33 m 1,4,-1
 265 33 l 1,5,-1
 265 633 l 1,6,-1
 66 633 l 1,7,-1
 66 33 l 1,4,-1
EndSplineSet
Validated: 1
EndChar

StartChar: uni2E80
Encoding: 11904 11904 4
Width: 920
GlyphClass: 2
Flags: MW
LayerCount: 2
Fore
SplineSet
560 213 m 0,0,1
 560 179 560 179 543 158.5 c 128,-1,2
 526 138 526 138 510 138 c 0,3,4
 502 138 502 138 493 150.5 c 128,-1,5
 484 163 484 163 459 208 c 1,6,7
 417 251 417 251 361 290.5 c 128,-1,8
 305 330 305 330 272 350.5 c 128,-1,9
 239 371 239 371 239 377 c 128,-1,10
 239 383 239 383 251 383 c 0,11,12
 256 383 256 383 300 367 c 1,13,14
 532 319 532 319 556 251 c 0,15,16
 559 241 559 241 559 226 c 1,17,18
 560 219 560 219 560 213 c 0,0,1
195 656 m 0,19,20
 195 669 195 669 225 669 c 1,21,22
 255 663 255 663 307.5 642.5 c 128,-1,23
 360 622 360 622 425 594 c 128,-1,24
 490 566 490 566 519 555 c 0,25,26
 570 536 570 536 604.5 520 c 128,-1,27
 639 504 639 504 650.5 497 c 128,-1,28
 662 490 662 490 673.5 480.5 c 128,-1,29
 685 471 685 471 687 470 c 0,30,31
 699 462 699 462 699 450 c 1,32,33
 696 425 696 425 687 399 c 1,34,35
 673 393 673 393 654 393 c 0,36,37
 620 393 620 393 569 428 c 2,38,-1
 434 522 l 2,39,40
 349 581 349 581 261 620 c 1,41,42
 195 642 195 642 195 656 c 0,19,20
EndSplineSet
Validated: 1
EndChar

StartChar: uni2E82
Encoding: 11906 11906 6
Width: 920
GlyphClass: 2
Flags: MW
LayerCount: 2
Fore
SplineSet
560 595 m 2,0,1
 503 595 503 595 448 594.5 c 128,-1,2
 393 594 393 594 350.5 593 c 128,-1,3
 308 592 308 592 269.5 590.5 c 128,-1,4
 231 589 231 589 202.5 588 c 128,-1,5
 174 587 174 587 151 585.5 c 128,-1,6
 128 584 128 584 114 583 c 2,7,-1
 92 582 l 1,8,-1
 85 581 l 1,9,10
 64 581 64 581 59 586 c 0,11,12
 53 593 53 593 46 611 c 128,-1,13
 39 629 39 629 39 639 c 0,14,15
 39 643 39 643 40 644.5 c 128,-1,16
 41 646 41 646 48 650 c 0,17,18
 58 657 58 657 69 661 c 2,19,-1
 81 665 l 1,20,-1
 138 633 l 1,21,-1
 354 633 l 2,22,23
 613 633 613 633 659.5 634 c 128,-1,24
 706 635 706 635 727 642 c 0,25,26
 729 643 729 643 750 671 c 0,27,28
 766 692 766 692 769.5 695.5 c 128,-1,29
 773 699 773 699 778 699 c 0,30,31
 780 699 780 699 785 693.5 c 128,-1,32
 790 688 790 688 815.5 654 c 128,-1,33
 841 620 841 620 845.5 614 c 128,-1,34
 850 608 850 608 850 603 c 0,35,36
 850 599 850 599 847 596.5 c 128,-1,37
 844 594 844 594 826 580 c 2,38,-1
 760 528 l 2,39,40
 727 502 727 502 717.5 493 c 128,-1,41
 708 484 708 484 683 459 c 2,42,-1
 662 438 l 1,43,44
 648 447 648 447 645 447 c 0,45,46
 640 447 640 447 640 446 c 128,-1,47
 640 445 640 445 648 439 c 0,48,49
 650 438 650 438 653 436 c 1,50,51
 645 436 645 436 643 440.5 c 128,-1,52
 641 445 641 445 642.5 452 c 128,-1,53
 644 459 644 459 652 472 c 2,54,-1
 666 496 l 2,55,56
 673 508 673 508 686 527 c 0,57,58
 716 572 716 572 722 583 c 1,59,-1
 727 595 l 1,60,-1
 560 595 l 2,0,1
EndSplineSet
Validated: 5
EndChar

StartChar: uni2E83
Encoding: 11907 11907 7
Width: 920
GlyphClass: 2
Flags: MW
LayerCount: 2
Fore
SplineSet
203 707 m 1,0,1
 203 707 203 707 206 710 c 0,2,3
 212 717 212 717 220 717 c 128,-1,4
 228 717 228 717 256 713 c 0,5,6
 285 709 285 709 291.5 707 c 128,-1,7
 298 705 298 705 306 699 c 0,8,9
 310 696 310 696 317 695 c 0,10,11
 321 694 321 694 317.5 691.5 c 128,-1,12
 314 689 314 689 314 681 c 0,13,14
 314 672 314 672 308 668 c 128,-1,15
 302 664 302 664 287.5 660.5 c 128,-1,16
 273 657 273 657 264 653 c 1,17,-1
 264 326 l 2,18,19
 264 265 264 265 264.5 199.5 c 128,-1,20
 265 134 265 134 265.5 92 c 128,-1,21
 266 50 266 50 266.5 19.5 c 128,-1,22
 267 -11 267 -11 267 -12 c 0,23,24
 267 -21 267 -21 271 -24 c 128,-1,25
 275 -27 275 -27 295 -35 c 0,26,27
 313 -43 313 -43 333 -45 c 128,-1,28
 353 -47 353 -47 406 -47 c 0,29,30
 498 -47 498 -47 519 -46 c 128,-1,31
 540 -45 540 -45 574 -39 c 1,32,33
 585 -36 585 -36 588.5 -34.5 c 128,-1,34
 592 -33 592 -33 598 -26 c 0,35,36
 617 -3 617 -3 622.5 13 c 128,-1,37
 628 29 628 29 645 105 c 0,38,39
 652 137 652 137 656 142 c 1,40,41
 658 147 658 147 660 147.5 c 128,-1,42
 662 148 662 148 673 148 c 2,43,-1
 682 148 l 1,44,45
 687 129 687 129 687 104 c 0,46,47
 687 95 687 95 685.5 75 c 128,-1,48
 684 55 684 55 684 44 c 2,49,-1
 684 -5 l 1,50,-1
 679 -20 l 1,51,-1
 694 -34 l 2,52,53
 711 -50 711 -50 714 -54 c 128,-1,54
 717 -58 717 -58 717 -67 c 0,55,56
 717 -80 717 -80 709.5 -83.5 c 128,-1,57
 702 -87 702 -87 659 -92 c 0,58,59
 601 -99 601 -99 485 -99 c 0,60,61
 456 -99 456 -99 421 -99 c 128,-1,62
 386 -99 386 -99 372.5 -99 c 128,-1,63
 359 -99 359 -99 340 -99 c 128,-1,64
 321 -99 321 -99 314.5 -98.5 c 128,-1,65
 308 -98 308 -98 297 -96.5 c 128,-1,66
 286 -95 286 -95 279.5 -93.5 c 128,-1,67
 273 -92 273 -92 261 -89 c 0,68,69
 232 -81 232 -81 224 -71.5 c 128,-1,70
 216 -62 216 -62 210 -36 c 0,71,72
 203 -8 203 -8 203 332 c 2,73,-1
 203 707 l 1,0,1
EndSplineSet
Validated: 1
EndChar

StartChar: uni2E84
Encoding: 11908 11908 8
Width: 920
GlyphClass: 2
Flags: MW
LayerCount: 2
Fore
SplineSet
147 679 m 1,0,-1
 147 751 l 2,1,2
 147 761 147 761 155 761 c 0,3,4
 161 761 161 761 182.5 748 c 128,-1,5
 204 735 204 735 211 734 c 0,6,7
 241 729 241 729 435 729 c 0,8,9
 671 729 671 729 693 734 c 0,10,11
 702 736 702 736 712.5 749 c 128,-1,12
 723 762 723 762 732 762 c 0,13,14
 743 762 743 762 767 740 c 128,-1,15
 791 718 791 718 791 709 c 0,16,17
 791 699 791 699 774.5 684.5 c 128,-1,18
 758 670 758 670 757 663 c 0,19,20
 755 653 755 653 755 598 c 0,21,22
 755 575 755 575 754 535 c 128,-1,23
 753 495 753 495 753 477 c 0,24,25
 753 188 753 188 816 62 c 1,26,-1
 836 18 l 2,27,28
 836 20 836 20 842 60 c 0,29,30
 842 64 842 64 843 66 c 2,31,-1
 858 167 l 1,32,33
 860 173 860 173 862 178 c 0,34,35
 864 187 864 187 872 187 c 1,36,37
 886 183 886 183 886 156 c 0,38,39
 886 147 886 147 884.5 137.5 c 128,-1,40
 883 128 883 128 883 126 c 2,41,-1
 883 10 l 2,42,43
 883 6 883 6 880.5 -1 c 128,-1,44
 878 -8 878 -8 878 -11 c 2,45,-1
 888 -66 l 1,46,47
 888 -77 888 -77 882 -87 c 128,-1,48
 876 -97 876 -97 863 -97 c 0,49,50
 827 -97 827 -97 778 7 c 2,51,-1
 768 28 l 1,52,53
 705 187 705 187 705 485 c 2,54,-1
 705 684 l 1,55,56
 703 690 703 690 693 695 c 1,57,-1
 214 695 l 1,58,-1
 147 679 l 1,0,-1
EndSplineSet
Validated: 1
EndChar

StartChar: uni2E86
Encoding: 11910 11910 10
Width: 920
GlyphClass: 2
Flags: MW
LayerCount: 2
Fore
SplineSet
105 717 m 0,0,1
 111 717 111 717 137 696 c 128,-1,2
 163 675 163 675 169 675 c 2,3,-1
 708 675 l 2,4,5
 713 675 713 675 716 676.5 c 128,-1,6
 719 678 719 678 731.5 688.5 c 128,-1,7
 744 699 744 699 747 700.5 c 128,-1,8
 750 702 750 702 755 702 c 0,9,10
 765 702 765 702 771 697.5 c 128,-1,11
 777 693 777 693 805 665 c 1,12,-1
 822 644 l 2,13,14
 826 639 826 639 826 637 c 0,15,16
 826 631 826 631 824 629 c 128,-1,17
 822 627 822 627 810 621 c 1,18,-1
 796 612 l 1,19,20
 791 606 791 606 791 599 c 2,21,-1
 791 -16 l 2,22,23
 791 -69 791 -69 784 -80 c 128,-1,24
 777 -91 777 -91 736 -104 c 1,25,-1
 708 -108 l 1,26,-1
 706 -108 l 2,27,28
 700 -108 700 -108 697.5 -105.5 c 128,-1,29
 695 -103 695 -103 686 -89 c 0,30,31
 674 -70 674 -70 673 -69 c 0,32,33
 662 -58 662 -58 627 -45 c 128,-1,34
 592 -32 592 -32 587 -28 c 1,35,36
 596 -28 596 -28 639 -30 c 128,-1,37
 682 -32 682 -32 709 -32 c 0,38,39
 727 -32 727 -32 730 -29.5 c 128,-1,40
 733 -27 733 -27 733 -13 c 2,41,-1
 733 654 l 1,42,-1
 154 654 l 1,43,-1
 154 -40 l 2,44,45
 154 -83 154 -83 148.5 -90 c 128,-1,46
 143 -97 143 -97 111 -97 c 0,47,48
 98 -97 98 -97 96 -92.5 c 128,-1,49
 94 -88 94 -88 94 -62 c 2,50,-1
 94 700 l 2,51,52
 94 713 94 713 95.5 715 c 128,-1,53
 97 717 97 717 105 717 c 0,0,1
EndSplineSet
Validated: 1
EndChar

StartChar: uni2E87
Encoding: 11911 11911 11
Width: 920
GlyphClass: 2
Flags: MW
LayerCount: 2
Fore
SplineSet
732 762 m 0,0,1
 743 762 743 762 767 740 c 128,-1,2
 791 718 791 718 791 709 c 0,3,4
 791 699 791 699 774.5 684.5 c 128,-1,5
 758 670 758 670 757 663 c 0,6,7
 755 653 755 653 755 598 c 0,8,9
 755 575 755 575 754 535 c 128,-1,10
 753 495 753 495 753 477 c 0,11,12
 753 188 753 188 816 62 c 1,13,-1
 836 18 l 2,14,15
 836 20 836 20 842 60 c 0,16,17
 842 64 842 64 843 66 c 2,18,-1
 858 167 l 1,19,20
 860 173 860 173 862 178 c 0,21,22
 864 187 864 187 872 187 c 1,23,24
 886 183 886 183 886 156 c 0,25,26
 886 147 886 147 884.5 137.5 c 128,-1,27
 883 128 883 128 883 126 c 2,28,-1
 883 10 l 2,29,30
 883 6 883 6 880.5 -1 c 128,-1,31
 878 -8 878 -8 878 -11 c 2,32,-1
 888 -66 l 1,33,34
 888 -77 888 -77 882 -87 c 128,-1,35
 876 -97 876 -97 863 -97 c 0,36,37
 827 -97 827 -97 778 7 c 2,38,-1
 768 28 l 1,39,40
 705 187 705 187 705 485 c 2,41,-1
 705 684 l 1,42,43
 703 690 703 690 693 695 c 1,44,-1
 214 695 l 1,45,-1
 208 684 l 1,46,47
 208 404 208 404 193 275 c 1,48,-1
 193 255 l 1,49,50
 184 177 184 177 162.5 104.5 c 128,-1,51
 141 32 141 32 118.5 -12.5 c 128,-1,52
 96 -57 96 -57 77 -83.5 c 128,-1,53
 58 -110 58 -110 49 -110 c 0,54,55
 47 -110 47 -110 44 -109 c 1,56,57
 33 -109 33 -109 33 -96 c 0,58,59
 33 -90 33 -90 35 -88 c 2,60,-1
 85 6 l 1,61,62
 124 94 124 94 139 222.5 c 128,-1,63
 154 351 154 351 154 455 c 2,64,65
 154 455 154 455 154 479 c 2,66,-1
 154 507 l 1,67,68
 154 507 154 507 154 521 c 2,69,-1
 154 533 l 2,70,71
 154 569 154 569 150.5 617.5 c 128,-1,72
 147 666 147 666 147 679 c 2,73,-1
 147 751 l 2,74,75
 147 761 147 761 155 761 c 0,76,77
 161 761 161 761 182.5 748 c 128,-1,78
 204 735 204 735 211 734 c 0,79,80
 241 729 241 729 435 729 c 0,81,82
 671 729 671 729 693 734 c 0,83,84
 702 736 702 736 712.5 749 c 128,-1,85
 723 762 723 762 732 762 c 0,0,1
EndSplineSet
Validated: 1
EndChar

StartChar: uni2E88
Encoding: 11912 11912 12
Width: 920
GlyphClass: 2
Flags: MW
LayerCount: 2
Fore
SplineSet
382 760 m 1,0,1
 389 753 389 753 389 747 c 128,-1,2
 389 741 389 741 379 734.5 c 128,-1,3
 369 728 369 728 357 722.5 c 128,-1,4
 345 717 345 717 343 715 c 2,5,-1
 337 706 l 1,6,-1
 337 704 l 1,7,-1
 342 701 l 1,8,-1
 502 699 l 1,9,10
 526 700 526 700 535.5 708.5 c 128,-1,11
 545 717 545 717 550 724.5 c 128,-1,12
 555 732 555 732 569 732 c 2,13,-1
 574 732 l 1,14,15
 618 696 618 696 633 678 c 0,16,17
 633 677 633 677 633.5 675 c 128,-1,18
 634 673 634 673 634 672 c 0,19,20
 634 662 634 662 625 658 c 0,21,22
 612 651 612 651 601.5 650 c 128,-1,23
 591 649 591 649 584 648 c 128,-1,24
 577 647 577 647 553.5 628 c 128,-1,25
 530 609 530 609 490 569 c 1,26,27
 477 559 477 559 457.5 543 c 128,-1,28
 438 527 438 527 427 519.5 c 128,-1,29
 416 512 416 512 407 512 c 0,30,31
 390 512 390 512 390 519 c 0,32,33
 390 531 390 531 417 549 c 0,34,35
 439 563 439 563 484 616 c 1,36,-1
 516 655 l 2,37,38
 520 660 520 660 520 666 c 2,39,-1
 520 667 l 1,40,-1
 361 668 l 1,41,42
 327 667 327 667 300 662 c 1,43,-1
 249 606 l 2,44,45
 246 603 246 603 211 576.5 c 128,-1,46
 176 550 176 550 131 521 c 128,-1,47
 86 492 86 492 70 492 c 0,48,49
 56 492 56 492 56 505 c 2,50,-1
 56 507 l 1,51,52
 57 509 57 509 57 510 c 0,53,54
 57 513 57 513 58 514 c 0,55,56
 247 637 247 637 302 768 c 1,57,58
 306 770 306 770 314 770 c 0,59,60
 329 770 329 770 353 765 c 128,-1,61
 377 760 377 760 382 760 c 1,0,1
EndSplineSet
Validated: 1
EndChar

StartChar: uni2E8A
Encoding: 11914 11914 14
Width: 920
GlyphClass: 2
Flags: MW
LayerCount: 2
Fore
SplineSet
309 736 m 0,0,1
 309 742 309 742 311 743 c 128,-1,2
 313 744 313 744 324 744 c 0,3,4
 364 744 364 744 392.5 727 c 128,-1,5
 421 710 421 710 393 695 c 0,6,7
 389 693 389 693 370 679 c 1,8,-1
 370 558 l 2,9,10
 370 459 370 459 371 447 c 128,-1,11
 372 435 372 435 379 427 c 1,12,-1
 522 427 l 1,13,-1
 558 451 l 1,14,-1
 611 421 l 1,15,-1
 579 381 l 1,16,-1
 566 381 l 2,17,18
 556 381 556 381 537.5 382.5 c 128,-1,19
 519 384 519 384 510 384 c 0,20,21
 499 384 499 384 435.5 381.5 c 128,-1,22
 372 379 372 379 371 378 c 1,23,-1
 377 -78 l 1,24,25
 382 -81 382 -81 370.5 -95.5 c 128,-1,26
 359 -110 359 -110 340 -110 c 0,27,28
 324 -110 324 -110 320 -89 c 0,29,30
 318 -79 318 -79 318 285 c 2,31,-1
 318 649 l 1,32,-1
 313 695 l 2,33,34
 309 728 309 728 309 736 c 0,0,1
EndSplineSet
Validated: 33
EndChar

StartChar: uni2E8B
Encoding: 11915 11915 15
Width: 920
GlyphClass: 2
Flags: MW
LayerCount: 2
Fore
SplineSet
713 112 m 0,0,1
 713 110 713 110 710.5 76.5 c 128,-1,2
 708 43 708 43 708 22 c 0,3,4
 708 4 708 4 713 -6.5 c 128,-1,5
 718 -17 718 -17 723.5 -20 c 128,-1,6
 729 -23 729 -23 734 -29 c 128,-1,7
 739 -35 739 -35 739 -43 c 0,8,9
 739 -48 739 -48 737 -53 c 1,10,11
 713 -76 713 -76 639 -83 c 1,12,-1
 624 -84 l 1,13,14
 543 -92 543 -92 462 -92 c 0,15,16
 407 -92 407 -92 372.5 -91 c 128,-1,17
 338 -90 338 -90 303 -87 c 128,-1,18
 268 -84 268 -84 248.5 -78.5 c 128,-1,19
 229 -73 229 -73 212.5 -63.5 c 128,-1,20
 196 -54 196 -54 190 -40 c 128,-1,21
 184 -26 184 -26 184 -6 c 2,22,-1
 185 156 l 1,23,-1
 184 402 l 2,24,25
 183 448 183 448 181 491 c 0,26,27
 181 511 181 511 188 516 c 1,28,29
 196 515 196 515 225.5 502 c 128,-1,30
 255 489 255 489 275 489 c 2,31,-1
 516 489 l 2,32,33
 521 489 521 489 534 502 c 128,-1,34
 547 515 547 515 555 515 c 0,35,36
 561 515 561 515 567 511 c 2,37,-1
 599 484 l 1,38,39
 609 473 609 473 609 462 c 0,40,41
 609 455 609 455 594 441.5 c 128,-1,42
 579 428 579 428 582 416 c 1,43,-1
 578 239 l 1,44,45
 574 180 574 180 564 156.5 c 128,-1,46
 554 133 554 133 517 111 c 1,47,48
 494 99 494 99 481 99 c 0,49,50
 473 99 473 99 469.5 103 c 128,-1,51
 466 107 466 107 463 112.5 c 128,-1,52
 460 118 460 118 446.5 126.5 c 128,-1,53
 433 135 433 135 410 143 c 1,54,-1
 387 153 l 1,55,56
 379 160 379 160 381.5 166.5 c 128,-1,57
 384 173 384 173 394 177 c 1,58,-1
 478 170 l 1,59,60
 502 172 502 172 512.5 187 c 128,-1,61
 523 202 523 202 526 243 c 2,62,-1
 529 282 l 2,63,64
 532 320 532 320 532 367 c 0,65,66
 532 390 532 390 531 412 c 2,67,-1
 529 447 l 1,68,69
 518 456 518 456 417 456 c 0,70,71
 349 456 349 456 244 453 c 1,72,73
 237 446 237 446 236 436.5 c 128,-1,74
 235 427 235 427 235 372 c 0,75,76
 235 282 235 282 234.5 212.5 c 128,-1,77
 234 143 234 143 234 95 c 0,78,79
 234 44 234 44 235 18 c 1,80,81
 235 -19 235 -19 268 -28 c 128,-1,82
 301 -37 301 -37 420 -37 c 0,83,84
 531 -37 531 -37 584.5 -33 c 128,-1,85
 638 -29 638 -29 650 -13 c 1,86,87
 658 0 658 0 671 76 c 128,-1,88
 684 152 684 152 698 152 c 0,89,90
 705 152 705 152 709 138 c 128,-1,91
 713 124 713 124 713 112 c 0,0,1
EndSplineSet
Validated: 1
EndChar

StartChar: uni2E8C
Encoding: 11916 11916 16
Width: 920
GlyphClass: 2
Flags: MW
LayerCount: 2
Fore
SplineSet
616 620 m 0,0,1
 627 625 627 625 637.5 620.5 c 128,-1,2
 648 616 648 616 679 596 c 0,3,4
 839 490 839 490 839 413 c 0,5,6
 839 395 839 395 830 386 c 128,-1,7
 821 377 821 377 804 381 c 1,8,9
 797 388 797 388 784.5 411 c 128,-1,10
 772 434 772 434 741.5 473.5 c 128,-1,11
 711 513 711 513 658 562 c 2,12,-1
 616 601 l 1,13,-1
 616 602 l 1,14,15
 604 614 604 614 616 620 c 0,0,1
398 401 m 2,16,17
 419 401 419 401 426 408.5 c 128,-1,18
 433 416 433 416 433 441 c 2,19,-1
 433 654 l 2,20,21
 433 685 433 685 427 722 c 1,22,23
 429 728 429 728 443 728 c 0,24,25
 467 728 467 728 499.5 718.5 c 128,-1,26
 532 709 532 709 532 695 c 0,27,28
 532 687 532 687 514 675 c 2,29,-1
 489 658 l 1,30,-1
 486 653 l 1,31,32
 483 637 483 637 483 564 c 0,33,34
 483 548 483 548 484 496.5 c 128,-1,35
 485 445 485 445 485 410 c 2,36,-1
 485 384 l 2,37,38
 485 357 485 357 463 340.5 c 128,-1,39
 441 324 441 324 419 324 c 0,40,41
 412 324 412 324 408 327 c 1,42,43
 396 359 396 359 342 369 c 1,44,-1
 311 376 l 1,45,46
 297 383 297 383 304 400 c 1,47,-1
 310 404 l 1,48,-1
 398 401 l 2,16,17
54 333 m 0,49,50
 47 333 47 333 40.5 339 c 128,-1,51
 34 345 34 345 34 350 c 0,52,53
 34 353 34 353 35 355 c 0,54,55
 196 491 196 491 248 639 c 1,56,57
 250 641 250 641 255 641 c 0,58,59
 271 641 271 641 303 623.5 c 128,-1,60
 335 606 335 606 335 592 c 0,61,62
 335 574 335 574 290 574 c 1,63,64
 204 464 204 464 197 456 c 2,65,-1
 156 413 l 1,66,67
 69 333 69 333 54 333 c 0,49,50
EndSplineSet
Validated: 1
EndChar

StartChar: uni2E8E
Encoding: 11918 11918 17
Width: 920
GlyphClass: 2
Flags: MW
LayerCount: 2
Fore
SplineSet
734 672 m 1,0,1
 748 674 748 674 751.5 675 c 128,-1,2
 755 676 755 676 764.5 682.5 c 128,-1,3
 774 689 774 689 776 691 c 128,-1,4
 778 693 778 693 782 700 c 0,5,6
 787 710 787 710 795 718 c 0,7,8
 801 723 801 723 803.5 724 c 128,-1,9
 806 725 806 725 813 725 c 0,10,11
 824 725 824 725 829.5 719.5 c 128,-1,12
 835 714 835 714 860 683 c 1,13,-1
 874 661 l 1,14,-1
 875 652 l 1,15,16
 867 644 867 644 855 643 c 128,-1,17
 843 642 843 642 784 642 c 0,18,19
 738 642 738 642 666 643 c 1,20,-1
 642 643 l 1,21,-1
 593 642 l 2,22,23
 588 641 588 641 587 639.5 c 128,-1,24
 586 638 586 638 585 630 c 0,25,26
 583 620 583 620 582.5 593 c 128,-1,27
 582 566 582 566 581 520 c 1,28,-1
 581 513 l 1,29,-1
 578 271 l 1,30,-1
 578 270 l 1,31,-1
 577 70 l 2,32,33
 577 43 577 43 581 34 c 128,-1,34
 585 25 585 25 596 20 c 0,35,36
 616 10 616 10 628 8.5 c 128,-1,37
 640 7 640 7 693 7 c 0,38,39
 745 7 745 7 756 8 c 128,-1,40
 767 9 767 9 782 13.5 c 128,-1,41
 797 18 797 18 801 22.5 c 128,-1,42
 805 27 805 27 813 48 c 1,43,44
 823 71 823 71 829 100.5 c 128,-1,45
 835 130 835 130 837 147.5 c 128,-1,46
 839 165 839 165 844 176 c 0,47,48
 847 184 847 184 848.5 185 c 128,-1,49
 850 186 850 186 857 183 c 1,50,51
 864 177 864 177 864 154 c 0,52,53
 864 146 864 146 863 137 c 2,54,-1
 857 51 l 1,55,56
 854 44 854 44 863 28 c 1,57,-1
 881 5 l 2,58,59
 883 1 883 1 883 -3 c 0,60,61
 883 -30 883 -30 873 -36 c 0,62,63
 858 -45 858 -45 750 -45 c 2,64,-1
 749 -45 l 1,65,-1
 748 -45 l 1,66,-1
 747 -45 l 1,67,-1
 746 -45 l 1,68,-1
 745 -45 l 1,69,-1
 744 -45 l 1,70,-1
 743 -45 l 1,71,-1
 733 -45 l 2,72,73
 695 -45 695 -45 648 -42 c 2,74,-1
 620 -40 l 2,75,76
 572 -37 572 -37 561.5 -32 c 128,-1,77
 551 -27 551 -27 537 -1 c 0,78,79
 529 14 529 14 527.5 42 c 128,-1,80
 526 70 526 70 526 225 c 0,81,82
 526 293 526 293 527 397 c 128,-1,83
 528 501 528 501 528 545 c 0,84,85
 528 606 528 606 527 625 c 1,86,87
 525 642 525 642 515.5 644.5 c 128,-1,88
 506 647 506 647 453 647 c 0,89,90
 396 647 396 647 386.5 645 c 128,-1,91
 377 643 377 643 377 630 c 2,92,-1
 371 499 l 1,93,94
 364 372 364 372 357 336.5 c 128,-1,95
 350 301 350 301 318.5 215.5 c 128,-1,96
 287 130 287 130 270.5 105.5 c 128,-1,97
 254 81 254 81 186 20 c 0,98,99
 158 -5 158 -5 148 -13 c 128,-1,100
 138 -21 138 -21 107 -41.5 c 128,-1,101
 76 -62 76 -62 68.5 -65.5 c 128,-1,102
 61 -69 61 -69 47 -69 c 0,103,104
 40 -69 40 -69 37 -64 c 1,105,106
 36 -57 36 -57 38.5 -54 c 128,-1,107
 41 -51 41 -51 56 -40 c 2,108,-1
 108 0 l 2,109,110
 151 33 151 33 162.5 44.5 c 128,-1,111
 174 56 174 56 202 91 c 256,112,113
 230 126 230 126 238 141 c 128,-1,114
 246 156 246 156 267.5 210 c 128,-1,115
 289 264 289 264 294 286 c 128,-1,116
 299 308 299 308 309 384.5 c 128,-1,117
 319 461 319 461 320.5 492 c 128,-1,118
 322 523 322 523 322 631 c 1,119,120
 317 642 317 642 306 644 c 128,-1,121
 295 646 295 646 234 646 c 0,122,123
 198 646 198 646 142.5 643 c 128,-1,124
 87 640 87 640 76 640 c 2,125,-1
 68 640 l 2,126,127
 60 640 60 640 57.5 641.5 c 128,-1,128
 55 643 55 643 50 651 c 0,129,130
 42 662 42 662 42 673 c 0,131,132
 42 682 42 682 44 684 c 128,-1,133
 46 686 46 686 56 689 c 1,134,-1
 149 679 l 1,135,136
 211 675 211 675 335 675 c 2,137,-1
 624 673 l 1,138,-1
 631 673 l 1,139,-1
 734 672 l 1,0,1
EndSplineSet
Validated: 1
EndChar

StartChar: uni2E90
Encoding: 11920 11920 18
Width: 920
GlyphClass: 2
Flags: MW
LayerCount: 2
Fore
SplineSet
835 42 m 0,0,1
 835 14 835 14 839.5 -2 c 128,-1,2
 844 -18 844 -18 849 -21 c 128,-1,3
 854 -24 854 -24 858.5 -29.5 c 128,-1,4
 863 -35 863 -35 863 -46 c 256,5,6
 863 -57 863 -57 861 -60 c 128,-1,7
 859 -63 859 -63 847.5 -70 c 128,-1,8
 836 -77 836 -77 828 -78.5 c 128,-1,9
 820 -80 820 -80 782 -85 c 0,10,11
 732 -91 732 -91 645 -91 c 2,12,-1
 614 -91 l 2,13,14
 598 -91 598 -91 582 -90 c 128,-1,15
 566 -89 566 -89 551 -87.5 c 128,-1,16
 536 -86 536 -86 523 -81 c 128,-1,17
 510 -76 510 -76 500 -69.5 c 128,-1,18
 490 -63 490 -63 483.5 -52.5 c 128,-1,19
 477 -42 477 -42 476 -28 c 0,20,21
 473 6 473 6 473 91 c 0,22,23
 473 143 473 143 474 213 c 1,24,-1
 474 255 l 1,25,-1
 471 404 l 1,26,27
 472 420 472 420 473 434 c 0,28,29
 473 437 473 437 481 442 c 1,30,-1
 526 433 l 1,31,32
 539 428 539 428 542 426 c 128,-1,33
 545 424 545 424 550 414 c 0,34,35
 552 408 552 408 550 405.5 c 128,-1,36
 548 403 548 403 538 394 c 0,37,38
 524 383 524 383 523 378 c 0,39,40
 521 364 521 364 521 277 c 2,41,-1
 521 262 l 1,42,43
 520 165 520 165 520 104 c 0,44,45
 520 18 520 18 521.5 2 c 128,-1,46
 523 -14 523 -14 531 -24 c 1,47,48
 544 -37 544 -37 557 -39 c 128,-1,49
 570 -41 570 -41 636 -41 c 0,50,51
 704 -41 704 -41 720 -40 c 128,-1,52
 736 -39 736 -39 765 -32 c 0,53,54
 779 -28 779 -28 783 -22 c 128,-1,55
 787 -16 787 -16 795 18 c 0,56,57
 806 62 806 62 812 108 c 0,58,59
 816 143 816 143 817.5 149.5 c 128,-1,60
 819 156 819 156 824 161 c 1,61,62
 828 163 828 163 830 162 c 128,-1,63
 832 161 832 161 832.5 159.5 c 128,-1,64
 833 158 833 158 835 152 c 1,65,66
 836 143 836 143 836 119 c 0,67,68
 836 100 836 100 835.5 71.5 c 128,-1,69
 835 43 835 43 835 42 c 0,0,1
804 591 m 0,70,71
 812 591 812 591 817 587.5 c 128,-1,72
 822 584 822 584 843 564.5 c 128,-1,73
 864 545 864 545 867.5 539.5 c 128,-1,74
 871 534 871 534 871 522 c 1,75,76
 865 511 865 511 861 510 c 2,77,-1
 487 507 l 2,78,79
 468 507 468 507 464.5 505.5 c 128,-1,80
 461 504 461 504 457 495 c 1,81,82
 444 362 444 362 435 324 c 128,-1,83
 426 286 426 286 386 195 c 0,84,85
 370 158 370 158 364 143 c 128,-1,86
 358 128 358 128 345.5 106.5 c 128,-1,87
 333 85 333 85 328 78 c 128,-1,88
 323 71 323 71 305 54 c 128,-1,89
 287 37 287 37 274.5 27 c 128,-1,90
 262 17 262 17 230 -7 c 0,91,92
 133 -82 133 -82 111 -94.5 c 128,-1,93
 89 -107 89 -107 57 -107 c 0,94,95
 51 -107 51 -107 50 -106.5 c 128,-1,96
 49 -106 49 -106 49 -102 c 0,97,98
 49 -94 49 -94 51 -91.5 c 128,-1,99
 53 -89 53 -89 66 -78 c 0,100,101
 83 -65 83 -65 109 -50.5 c 128,-1,102
 135 -36 135 -36 169.5 -10.5 c 128,-1,103
 204 15 204 15 236 46 c 0,104,105
 261 69 261 69 269 79 c 128,-1,106
 277 89 277 89 301 126.5 c 128,-1,107
 325 164 325 164 331.5 177.5 c 128,-1,108
 338 191 338 191 353 235 c 0,109,110
 391 353 391 353 397.5 383.5 c 128,-1,111
 404 414 404 414 404 481 c 2,112,-1
 404 492 l 1,113,-1
 404 501 l 2,114,115
 404 505 404 505 403.5 506 c 128,-1,116
 403 507 403 507 401.5 508 c 128,-1,117
 400 509 400 509 396 510 c 2,118,-1
 179 511 l 1,119,-1
 102 509 l 2,120,121
 84 509 84 509 80 511.5 c 128,-1,122
 76 514 76 514 70.5 530 c 128,-1,123
 65 546 65 546 65.5 549 c 128,-1,124
 66 552 66 552 77 556 c 1,125,126
 162 546 162 546 189.5 544 c 128,-1,127
 217 542 217 542 294 542 c 0,128,129
 348 542 348 542 373 544.5 c 128,-1,130
 398 547 398 547 401 549.5 c 128,-1,131
 404 552 404 552 406 559 c 0,132,133
 412 580 412 580 412 625 c 0,134,135
 412 642 412 642 410.5 668.5 c 128,-1,136
 409 695 409 695 409 712 c 0,137,138
 409 738 409 738 411 750 c 128,-1,139
 413 762 413 762 414.5 763 c 128,-1,140
 416 764 416 764 421 767 c 1,141,142
 469 762 469 762 479 758.5 c 128,-1,143
 489 755 489 755 501 737 c 1,144,145
 502 730 502 730 500 727 c 128,-1,146
 498 724 498 724 484 714.5 c 128,-1,147
 470 705 470 705 468 702.5 c 128,-1,148
 466 700 466 700 464 693 c 1,149,-1
 460 555 l 1,150,151
 461 550 461 550 462 548.5 c 128,-1,152
 463 547 463 547 466 546.5 c 128,-1,153
 469 546 469 546 477 546 c 0,154,155
 579 539 579 539 656 539 c 0,156,157
 695 539 695 539 727 541 c 1,158,159
 747 541 747 541 759 549 c 128,-1,160
 771 557 771 557 774 566 c 128,-1,161
 777 575 777 575 784 583 c 0,162,163
 790 589 790 589 792.5 590 c 128,-1,164
 795 591 795 591 804 591 c 0,70,71
EndSplineSet
Validated: 1
EndChar

StartChar: uni2E93
Encoding: 11923 11923 19
Width: 920
GlyphClass: 2
Flags: MW
LayerCount: 2
Fore
SplineSet
436 315 m 0,0,1
 436 301 436 301 429 290 c 0,2,3
 424 282 424 282 422 280.5 c 128,-1,4
 420 279 420 279 413 279 c 0,5,6
 404 279 404 279 401 281.5 c 128,-1,7
 398 284 398 284 387 300 c 2,8,-1
 345 364 l 2,9,10
 317 407 317 407 285 442 c 1,11,-1
 242 483 l 2,12,13
 238 488 238 488 237 490 c 128,-1,14
 236 492 236 492 237.5 499.5 c 128,-1,15
 239 507 239 507 240 508.5 c 128,-1,16
 241 510 241 510 248 510 c 0,17,18
 257 510 257 510 262.5 507.5 c 128,-1,19
 268 505 268 505 290 488.5 c 128,-1,20
 312 472 312 472 317 468 c 128,-1,21
 322 464 322 464 327 457 c 1,22,23
 337 457 337 457 342.5 466.5 c 128,-1,24
 348 476 348 476 371.5 531.5 c 128,-1,25
 395 587 395 587 401.5 605.5 c 128,-1,26
 408 624 408 624 424 676 c 1,27,-1
 443 747 l 1,28,-1
 447 757 l 2,29,30
 450 762 450 762 457 762 c 0,31,32
 468 762 468 762 473 760 c 128,-1,33
 478 758 478 758 497 746 c 0,34,35
 522 730 522 730 528 720 c 1,36,37
 529 712 529 712 528 710 c 128,-1,38
 527 708 527 708 520 703 c 0,39,40
 511 697 511 697 498 692 c 1,41,42
 489 687 489 687 487 685.5 c 128,-1,43
 485 684 485 684 482 679 c 0,44,45
 444 582 444 582 429 552 c 128,-1,46
 414 522 414 522 362 439 c 1,47,48
 361 434 361 434 363.5 430.5 c 128,-1,49
 366 427 366 427 380 410 c 0,50,51
 398 389 398 389 417 362 c 0,52,53
 431 342 431 342 433.5 336 c 128,-1,54
 436 330 436 330 436 315 c 0,0,1
550 209 m 1,55,56
 561 208 561 208 567.5 203.5 c 128,-1,57
 574 199 574 199 600 171 c 256,58,59
 626 143 626 143 634 132 c 128,-1,60
 642 121 642 121 665 82.5 c 128,-1,61
 688 44 688 44 691.5 33.5 c 128,-1,62
 695 23 695 23 695 -2 c 0,63,64
 695 -15 695 -15 694 -18.5 c 128,-1,65
 693 -22 693 -22 686.5 -31 c 128,-1,66
 680 -40 680 -40 677 -41 c 128,-1,67
 674 -42 674 -42 664 -41 c 0,68,69
 660 -41 660 -41 656 -40 c 1,70,71
 651 -36 651 -36 633 10 c 0,72,73
 620 45 620 45 616.5 51 c 128,-1,74
 613 57 613 57 607 57 c 1,75,-1
 297 -10 l 2,76,77
 296 -11 296 -11 286 -33 c 0,78,79
 279 -50 279 -50 276.5 -52.5 c 128,-1,80
 274 -55 274 -55 266 -55 c 0,81,82
 259 -55 259 -55 257 -53.5 c 128,-1,83
 255 -52 255 -52 250 -44 c 1,84,85
 242 -34 242 -34 237 -18 c 128,-1,86
 232 -2 232 -2 229 9.5 c 128,-1,87
 226 21 226 21 225 29 c 1,88,89
 225 38 225 38 226.5 39.5 c 128,-1,90
 228 41 228 41 238 42 c 0,91,92
 241 43 241 43 273.5 46 c 128,-1,93
 306 49 306 49 314 51 c 1,94,95
 336 69 336 69 347.5 87 c 128,-1,96
 359 105 359 105 407 196.5 c 128,-1,97
 455 288 455 288 467 312.5 c 128,-1,98
 479 337 479 337 502 394 c 1,99,-1
 549 525 l 1,100,-1
 549 526 l 1,101,102
 552 531 552 531 560 531 c 0,103,104
 574 531 574 531 579.5 529 c 128,-1,105
 585 527 585 527 606.5 515 c 128,-1,106
 628 503 628 503 631.5 499 c 128,-1,107
 635 495 635 495 635 482 c 0,108,109
 635 480 635 480 634 477 c 1,110,111
 630 473 630 473 617.5 469.5 c 128,-1,112
 605 466 605 466 594 460 c 0,113,114
 586 455 586 455 584 452.5 c 128,-1,115
 582 450 582 450 578 439 c 0,116,117
 560 386 560 386 548 361.5 c 128,-1,118
 536 337 536 337 480.5 242.5 c 128,-1,119
 425 148 425 148 411 125 c 128,-1,120
 397 102 397 102 368 61 c 1,121,-1
 371 57 l 1,122,123
 545 77 545 77 598 90 c 1,124,125
 601 93 601 93 596 103 c 1,126,-1
 541 188 l 1,127,128
 540 196 540 196 541 198.5 c 128,-1,129
 542 201 542 201 550 209 c 1,55,56
EndSplineSet
Validated: 1
EndChar

StartChar: uni2E96
Encoding: 11926 11926 22
Width: 920
GlyphClass: 2
Flags: MW
LayerCount: 2
Fore
SplineSet
521 602 m 1,0,1
 540 602 540 602 548 596 c 128,-1,2
 556 590 556 590 583.5 553.5 c 128,-1,3
 611 517 611 517 615.5 506.5 c 128,-1,4
 620 496 620 496 620 469 c 0,5,6
 620 446 620 446 616.5 442.5 c 128,-1,7
 613 439 613 439 593 439 c 1,8,-1
 578 441 l 1,9,10
 571 445 571 445 568 452 c 2,11,-1
 542 540 l 1,12,13
 539 546 539 546 537 552 c 1,14,-1
 520 582 l 1,15,16
 517 593 517 593 521 602 c 1,0,1
497 -53 m 2,17,18
 497 -68 497 -68 494.5 -71.5 c 128,-1,19
 492 -75 492 -75 478 -82 c 1,20,21
 459 -90 459 -90 446 -90 c 0,22,23
 441 -90 441 -90 440.5 -86.5 c 128,-1,24
 440 -83 440 -83 438 -80 c 1,25,-1
 438 76 l 1,26,-1
 437 86 l 1,27,-1
 437 711 l 1,28,-1
 431 762 l 1,29,30
 449 762 449 762 480 756 c 2,31,-1
 521 747 l 1,32,-1
 527 741 l 1,33,34
 525 737 525 737 512 728 c 128,-1,35
 499 719 499 719 497 713 c 1,36,-1
 497 -53 l 2,17,18
390 570 m 1,37,-1
 390 558 l 1,38,-1
 390 546 l 2,39,40
 390 527 390 527 389 506 c 128,-1,41
 388 485 388 485 384 450 c 1,42,43
 380 425 380 425 378 417.5 c 128,-1,44
 376 410 376 410 367 392 c 128,-1,45
 358 374 358 374 354 370.5 c 128,-1,46
 350 367 350 367 337 365 c 1,47,-1
 314 368 l 2,48,49
 308 369 308 369 305 371 c 1,50,51
 300 380 300 380 300 390 c 0,52,53
 300 403 300 403 302 408.5 c 128,-1,54
 304 414 304 414 318 434 c 0,55,56
 336 462 336 462 338 467 c 2,57,-1
 371 575 l 2,58,59
 372 576 372 576 374 576 c 0,60,61
 379 576 379 576 390 570 c 1,37,-1
EndSplineSet
Validated: 1
EndChar

StartChar: uni2E97
Encoding: 11927 11927 23
Width: 920
GlyphClass: 2
Flags: MW
LayerCount: 2
Fore
SplineSet
812 40 m 0,0,1
 812 14 812 14 796.5 5 c 128,-1,2
 781 -4 781 -4 773 13 c 2,3,-1
 731 110 l 1,4,5
 724 123 724 123 716 133 c 2,6,-1
 666 198 l 1,7,-1
 665 199 l 1,8,9
 663 203 663 203 668 213 c 1,10,11
 709 201 709 201 760.5 143 c 128,-1,12
 812 85 812 85 812 40 c 0,0,1
618 38 m 0,13,14
 618 22 618 22 611.5 12 c 128,-1,15
 605 2 605 2 599.5 0 c 128,-1,16
 594 -2 594 -2 589 -2 c 0,17,18
 581 -2 581 -2 577 5.5 c 128,-1,19
 573 13 573 13 561 48.5 c 128,-1,20
 549 84 549 84 536 118 c 0,21,22
 515 169 515 169 491 207 c 1,23,-1
 492 216 l 1,24,-1
 494 218 l 1,25,26
 527 207 527 207 572.5 144 c 128,-1,27
 618 81 618 81 618 38 c 0,13,14
267 -23 m 0,28,29
 279 -23 279 -23 307 -25 c 128,-1,30
 335 -27 335 -27 342 -27 c 0,31,32
 370 -27 370 -27 379.5 -17.5 c 128,-1,33
 389 -8 389 -8 389 21 c 0,34,35
 391 251 391 251 391 362 c 1,36,37
 395 368 395 368 405 368 c 0,38,39
 419 368 419 368 437.5 360.5 c 128,-1,40
 456 353 456 353 459 346 c 1,41,42
 458 341 458 341 446.5 330.5 c 128,-1,43
 435 320 435 320 433 314 c 1,44,45
 430 314 430 314 430 166 c 2,46,47
 430 166 430 166 430 107 c 2,48,-1
 430 39 l 1,49,-1
 430 -39 l 1,50,51
 427 -69 427 -69 369 -94 c 0,52,53
 368 -94 368 -94 364.5 -95.5 c 128,-1,54
 361 -97 361 -97 356 -97 c 0,55,56
 346 -97 346 -97 329 -78 c 128,-1,57
 312 -59 312 -59 302 -57 c 0,58,59
 278 -52 278 -52 261.5 -43.5 c 128,-1,60
 245 -35 245 -35 253 -27 c 0,61,62
 257 -23 257 -23 267 -23 c 0,28,29
166 -9 m 0,63,64
 154 -9 154 -9 146 -1 c 128,-1,65
 138 7 138 7 138 19 c 0,66,67
 138 33 138 33 143.5 40.5 c 128,-1,68
 149 48 149 48 160 56 c 128,-1,69
 171 64 171 64 183.5 75 c 128,-1,70
 196 86 196 86 212.5 113.5 c 128,-1,71
 229 141 229 141 244 181 c 1,72,-1
 256 216 l 1,73,74
 259 219 259 219 263 219 c 0,75,76
 276 219 276 219 276 200 c 0,77,78
 276 169 276 169 259.5 120 c 128,-1,79
 243 71 243 71 216 31.5 c 128,-1,80
 189 -8 189 -8 166 -9 c 0,63,64
EndSplineSet
Validated: 1
EndChar

StartChar: uni2E9B
Encoding: 11931 11931 26
Width: 920
GlyphClass: 2
Flags: MW
LayerCount: 2
Fore
SplineSet
158 430 m 1,0,1
 167 434 167 434 169 436 c 128,-1,2
 171 438 171 438 172 448 c 1,3,4
 175 460 175 460 175 502 c 0,5,6
 175 566 175 566 170 703 c 1,7,-1
 170 711 l 1,8,-1
 175 714 l 1,9,-1
 228 691 l 1,10,11
 482 691 482 691 687 695 c 1,12,13
 690 697 690 697 705 716 c 0,14,15
 716 731 716 731 719 733.5 c 128,-1,16
 722 736 722 736 730 736 c 0,17,18
 734 736 734 736 737 735 c 1,19,-1
 787 691 l 1,20,-1
 790 676 l 1,21,-1
 779 668 l 1,22,-1
 517 665 l 2,23,24
 512 665 512 665 510 663 c 128,-1,25
 508 661 508 661 501 650 c 0,26,27
 500 647 500 647 485 476 c 2,28,-1
 482 440 l 1,29,30
 484 432 484 432 485 431 c 128,-1,31
 486 430 486 430 490 430 c 2,32,-1
 747 432 l 2,33,34
 750 433 750 433 768 452 c 0,35,36
 782 467 782 467 786 469.5 c 128,-1,37
 790 472 790 472 798 472 c 1,38,39
 830 448 830 448 837 441 c 128,-1,40
 844 434 844 434 858 416 c 1,41,42
 858 407 858 407 851 403 c 1,43,-1
 843 402 l 1,44,-1
 523 400 l 1,45,-1
 485 401 l 1,46,47
 474 399 474 399 472 395 c 128,-1,48
 470 391 470 391 465 369 c 0,49,50
 465 366 465 366 465.5 364.5 c 128,-1,51
 466 363 466 363 468 362 c 128,-1,52
 470 361 470 361 472 361.5 c 128,-1,53
 474 362 474 362 480 362 c 0,54,55
 494 363 494 363 507 360 c 1,56,-1
 541 349 l 1,57,58
 547 346 547 346 550 340 c 1,59,60
 550 336 550 336 536 318 c 0,61,62
 526 304 526 304 524.5 300 c 128,-1,63
 523 296 523 296 522 288 c 1,64,-1
 523 20 l 2,65,66
 523 14 523 14 538 4 c 1,67,68
 592 2 592 2 635 2 c 0,69,70
 704 2 704 2 722 3.5 c 128,-1,71
 740 5 740 5 779 14 c 1,72,73
 792 25 792 25 795 32 c 128,-1,74
 798 39 798 39 805 69 c 0,75,76
 814 109 814 109 820 140 c 0,77,78
 824 163 824 163 826.5 167 c 128,-1,79
 829 171 829 171 838 171 c 1,80,-1
 844 159 l 1,81,-1
 839 72 l 1,82,83
 840 36 840 36 843 28 c 128,-1,84
 846 20 846 20 866 8 c 1,85,86
 863 -18 863 -18 855 -24 c 128,-1,87
 847 -30 847 -30 802.5 -37.5 c 128,-1,88
 758 -45 758 -45 732.5 -46.5 c 128,-1,89
 707 -48 707 -48 600 -46 c 1,90,-1
 522 -43 l 1,91,92
 500 -38 500 -38 495 -34 c 128,-1,93
 490 -30 490 -30 480 -13 c 1,94,95
 474 0 474 0 473 31 c 128,-1,96
 472 62 472 62 472 236 c 2,97,-1
 472 306 l 1,98,-1
 472 351 l 1,99,-1
 465 357 l 1,100,-1
 457 349 l 1,101,102
 427 244 427 244 409 213 c 128,-1,103
 391 182 391 182 312 99 c 128,-1,104
 233 16 233 16 203.5 -5.5 c 128,-1,105
 174 -27 174 -27 75 -75 c 1,106,-1
 59 -76 l 1,107,108
 54 -71 54 -71 54 -60 c 1,109,-1
 87 -38 l 1,110,-1
 89 -43 l 1,111,-1
 93 -35 l 1,112,113
 144 -6 144 -6 159.5 5 c 128,-1,114
 175 16 175 16 218 57 c 0,115,116
 261 97 261 97 272.5 110.5 c 128,-1,117
 284 124 284 124 310 162 c 256,118,119
 336 200 336 200 343.5 213 c 128,-1,120
 351 226 351 226 370 263 c 1,121,122
 394 313 394 313 404 344.5 c 128,-1,123
 414 376 414 376 414 388 c 0,124,125
 414 395 414 395 413 396.5 c 128,-1,126
 412 398 412 398 405 399 c 0,127,128
 396 401 396 401 365 401 c 0,129,130
 303 401 303 401 152 397 c 2,131,-1
 84 395 l 1,132,133
 80 396 80 396 78 396 c 0,134,135
 70 399 70 399 68 401.5 c 128,-1,136
 66 404 66 404 61 415.5 c 128,-1,137
 56 427 56 427 56.5 429.5 c 128,-1,138
 57 432 57 432 64 437 c 1,139,140
 71 435 71 435 153 431 c 0,141,142
 155 431 155 431 158 430 c 1,0,1
447 649 m 1,143,-1
 439 661 l 1,144,-1
 229 658 l 1,145,146
 220 651 220 651 220 642 c 2,147,-1
 222 445 l 2,148,149
 222 438 222 438 223.5 436.5 c 128,-1,150
 225 435 225 435 233 432 c 1,151,-1
 350 430 l 2,152,153
 399 430 399 430 408.5 431 c 128,-1,154
 418 432 418 432 429 439 c 1,155,156
 442 512 442 512 444.5 538.5 c 128,-1,157
 447 565 447 565 447 649 c 1,143,-1
EndSplineSet
Validated: 33
EndChar

StartChar: uni2E9C
Encoding: 11932 11932 27
Width: 920
GlyphClass: 2
Flags: MW
LayerCount: 2
Fore
SplineSet
383 604 m 0,0,1
 420 604 420 604 449.5 605 c 128,-1,2
 479 606 479 606 491 606 c 2,3,-1
 591 608 l 2,4,5
 595 609 595 609 615 629.5 c 128,-1,6
 635 650 635 650 645 650 c 0,7,8
 654 650 654 650 675 629 c 1,9,-1
 699 603 l 1,10,11
 710 587 710 587 705 575 c 1,12,13
 699 569 699 569 686 568 c 128,-1,14
 673 567 673 567 620 567 c 2,15,16
 620 567 620 567 600 567 c 0,17,18
 583 567 583 567 541.5 567.5 c 128,-1,19
 500 568 500 568 435 568 c 0,20,21
 291 568 291 568 221 563 c 1,22,23
 203 579 203 579 203 600 c 0,24,25
 203 607 203 607 204 611 c 1,26,-1
 210 614 l 1,27,28
 281 604 281 604 383 604 c 0,0,1
743 470 m 0,29,30
 743 501 743 501 743.5 550 c 128,-1,31
 744 599 744 599 744 601 c 0,32,33
 744 643 744 643 741 673 c 1,34,35
 741 685 741 685 731 687 c 1,36,-1
 657 687 l 1,37,-1
 477 686 l 1,38,-1
 471 686 l 1,39,40
 397 685 397 685 250 685 c 1,41,-1
 166 686 l 1,42,43
 163 685 163 685 160 685 c 0,44,45
 151 685 151 685 151 673 c 1,46,47
 149 651 149 651 149 603 c 128,-1,48
 149 555 149 555 151 482 c 1,49,-1
 151 414 l 1,50,51
 143 394 143 394 116 394 c 0,52,53
 94 394 94 394 94 419 c 0,54,55
 94 438 94 438 97 503 c 1,56,-1
 97 520 l 1,57,-1
 97 559 l 2,58,59
 97 672 97 672 91 751 c 1,60,61
 92 756 92 756 98 756 c 0,62,63
 107 756 107 756 126 745.5 c 128,-1,64
 145 735 145 735 155 725 c 1,65,66
 352 722 352 722 488 722 c 0,67,68
 600 722 600 722 670 724 c 1,69,70
 723 724 723 724 734 735 c 2,71,-1
 756 758 l 1,72,73
 761 761 761 761 764 761 c 0,74,75
 779 761 779 761 804 736.5 c 128,-1,76
 829 712 829 712 829 700 c 0,77,78
 829 690 829 690 810 678 c 1,79,-1
 797 668 l 2,80,81
 793 664 793 664 793 650 c 0,82,83
 793 613 793 613 796 436 c 1,84,-1
 796 424 l 2,85,86
 796 413 796 413 779 406 c 1,87,-1
 762 406 l 2,88,89
 744 406 744 406 744 418 c 0,90,91
 743 430 743 430 743 470 c 0,29,30
587 446 m 0,92,93
 514 446 514 446 400 444.5 c 128,-1,94
 286 443 286 443 262 443 c 1,95,96
 243 442 243 442 226 441 c 1,97,98
 205 454 205 454 207 482 c 0,99,100
 208 484 208 484 208 486 c 1,101,102
 212 491 212 491 223 491 c 1,103,-1
 234 489 l 1,104,105
 268 481 268 481 418 481 c 0,106,107
 572 481 572 481 594 486 c 0,108,109
 600 488 600 488 619 508.5 c 128,-1,110
 638 529 638 529 647 534 c 1,111,112
 664 526 664 526 686 498.5 c 128,-1,113
 708 471 708 471 708 460 c 0,114,115
 708 450 708 450 695 449 c 0,116,117
 669 446 669 446 587 446 c 0,92,93
EndSplineSet
Validated: 33
EndChar

StartChar: uni2E9D
Encoding: 11933 11933 28
Width: 920
GlyphClass: 2
Flags: MW
LayerCount: 2
Fore
SplineSet
710 75 m 2,0,1
 710 116 710 116 708.5 180.5 c 128,-1,2
 707 245 707 245 707 247 c 0,3,4
 707 254 707 254 706 255.5 c 128,-1,5
 705 257 705 257 699 257 c 0,6,7
 528 257 528 257 443 256 c 1,8,-1
 340 257 l 1,9,10
 330 256 330 256 322 255 c 0,11,12
 318 255 318 255 317 254 c 128,-1,13
 316 253 316 253 314 247 c 1,14,15
 300 134 300 134 290 93.5 c 128,-1,16
 280 53 280 53 261.5 23 c 128,-1,17
 243 -7 243 -7 186 -69 c 0,18,19
 159 -98 159 -98 153.5 -103 c 128,-1,20
 148 -108 148 -108 143 -108 c 0,21,22
 137 -108 137 -108 131.5 -104 c 128,-1,23
 126 -100 126 -100 126 -94 c 0,24,25
 126 -90 126 -90 129 -84 c 1,26,-1
 180 -12 l 1,27,28
 205 26 205 26 215 41 c 128,-1,29
 225 56 225 56 238 88 c 128,-1,30
 251 120 251 120 254 133.5 c 128,-1,31
 257 147 257 147 261 197 c 128,-1,32
 265 247 265 247 265.5 282.5 c 128,-1,33
 266 318 266 318 268 408 c 1,34,-1
 267 631 l 2,35,36
 267 713 267 713 260 752 c 1,37,-1
 267 762 l 1,38,39
 273 760 273 760 297 747 c 128,-1,40
 321 734 321 734 327 732 c 0,41,42
 341 728 341 728 470 728 c 2,43,-1
 533 728 l 1,44,-1
 572 728 l 1,45,-1
 585 728 l 1,46,-1
 592 728 l 2,47,48
 635 728 635 728 658 729 c 128,-1,49
 681 730 681 730 691.5 733 c 128,-1,50
 702 736 702 736 706 740.5 c 128,-1,51
 710 745 710 745 716 751 c 0,52,53
 726 762 726 762 729.5 763 c 128,-1,54
 733 764 733 764 743 760 c 1,55,-1
 781 728 l 2,56,57
 794 716 794 716 794 706 c 0,58,59
 794 698 794 698 785 691 c 2,60,-1
 764 674 l 2,61,62
 761 672 761 672 760 669 c 0,63,64
 758 580 758 580 758 472 c 0,65,66
 758 375 758 375 761 204 c 2,67,-1
 765 17 l 2,68,69
 765 -15 765 -15 764 -22.5 c 128,-1,70
 763 -30 763 -30 757 -42 c 128,-1,71
 751 -54 751 -54 745.5 -58.5 c 128,-1,72
 740 -63 740 -63 715 -77 c 1,73,-1
 687 -90 l 2,74,75
 682 -92 682 -92 678 -92 c 0,76,77
 671 -93 671 -93 668.5 -90.5 c 128,-1,78
 666 -88 666 -88 657.5 -73 c 128,-1,79
 649 -58 649 -58 646 -55 c 128,-1,80
 643 -52 643 -52 635 -50 c 2,81,-1
 543 -33 l 1,82,83
 536 -29 536 -29 536 -20 c 0,84,85
 536 -7 536 -7 538 -5 c 128,-1,86
 540 -3 540 -3 551 -3 c 1,87,-1
 659 -13 l 1,88,-1
 680 -13 l 2,89,90
 687 -13 687 -13 694.5 -9 c 128,-1,91
 702 -5 702 -5 704 -1.5 c 128,-1,92
 706 2 706 2 708 14.5 c 128,-1,93
 710 27 710 27 710 38 c 2,94,-1
 710 75 l 2,0,1
330 509 m 1,95,96
 603 509 603 509 649.5 510 c 128,-1,97
 696 511 696 511 701 516 c 1,98,99
 704 543 704 543 704 583 c 128,-1,100
 704 623 704 623 701 675 c 1,101,-1
 701 684 l 1,102,-1
 698 693 l 1,103,104
 640 694 640 694 440 692 c 2,105,-1
 334 691 l 2,106,107
 326 690 326 690 325 688.5 c 128,-1,108
 324 687 324 687 322 681 c 1,109,-1
 322 520 l 2,110,111
 322 514 322 514 323 512.5 c 128,-1,112
 324 511 324 511 330 509 c 1,95,96
332 471 m 1,113,114
 322 470 322 470 320.5 461.5 c 128,-1,115
 319 453 319 453 319 406 c 2,116,-1
 319 349 l 2,117,118
 319 316 319 316 317 296 c 1,119,-1
 319 292 l 1,120,121
 405 292 405 292 572 294 c 1,122,-1
 681 294 l 2,123,124
 688 294 688 294 694 295 c 1,125,126
 701 295 701 295 702 296 c 128,-1,127
 703 297 703 297 704 304 c 0,128,129
 706 314 706 314 706 352 c 0,130,131
 706 388 706 388 705 447 c 1,132,-1
 705 466 l 1,133,-1
 698 474 l 1,134,135
 615 474 615 474 449 472 c 2,136,-1
 334 471 l 1,137,-1
 332 471 l 1,113,114
EndSplineSet
Validated: 33
EndChar

StartChar: uni2E9E
Encoding: 11934 11934 29
Width: 906
GlyphClass: 2
Flags: MW
LayerCount: 2
Fore
SplineSet
444 583 m 1,0,1
 443 651 443 651 444 684 c 128,-1,2
 445 717 445 717 447.5 724.5 c 128,-1,3
 450 732 450 732 459 732 c 0,4,5
 474 732 474 732 492.5 722 c 128,-1,6
 511 712 511 712 511 700 c 0,7,8
 511 690 511 690 496.5 671 c 128,-1,9
 482 652 482 652 482 628 c 0,10,11
 482 608 482 608 490 604.5 c 128,-1,12
 498 601 498 601 530 601 c 0,13,14
 543 601 543 601 562.5 599 c 128,-1,15
 582 597 582 597 589 597 c 0,16,17
 613 597 613 597 627 618 c 0,18,19
 635 630 635 630 651 630 c 0,20,21
 653 630 653 630 655 630.5 c 128,-1,22
 657 631 657 631 658 631 c 0,23,24
 665 631 665 631 678 611 c 1,25,26
 693 596 693 596 693 585 c 0,27,28
 693 571 693 571 669 567.5 c 128,-1,29
 645 564 645 564 558 564 c 2,30,-1
 486 564 l 1,31,32
 481 550 481 550 481 501 c 0,33,34
 481 458 481 458 484 453 c 0,35,36
 489 446 489 446 510 446 c 2,37,-1
 534 446 l 1,38,-1
 555 462 l 2,39,40
 564 469 564 469 579 469 c 0,41,42
 583 469 583 469 587 468 c 1,43,-1
 591 468 l 2,44,45
 604 468 604 468 620.5 446 c 128,-1,46
 637 424 637 424 637 404 c 0,47,48
 637 399 637 399 635 398 c 128,-1,49
 633 397 633 397 629 398 c 128,-1,50
 625 399 625 399 618 396 c 0,51,52
 599 387 599 387 594 387 c 1,53,-1
 590 375 l 2,54,55
 585 363 585 363 575 344 c 128,-1,56
 565 325 565 325 552 312 c 1,57,58
 552 312 552 312 498 237 c 1,59,60
 418 141 418 141 327 72 c 128,-1,61
 236 3 236 3 191 3 c 0,62,63
 173 3 173 3 173 20 c 0,64,65
 173 27 173 27 182.5 33.5 c 128,-1,66
 192 40 192 40 232 61 c 1,67,68
 316 120 316 120 378 182 c 128,-1,69
 440 244 440 244 503 333 c 1,70,71
 533 389 533 389 533 400 c 0,72,73
 533 407 533 407 501.5 408 c 128,-1,74
 470 409 470 409 442 408 c 1,75,76
 349 408 349 408 345 405 c 0,77,78
 338 401 338 401 330.5 386.5 c 128,-1,79
 323 372 323 372 323 367 c 1,80,81
 341 354 341 354 355 340.5 c 128,-1,82
 369 327 369 327 377 318 c 128,-1,83
 385 309 385 309 391 298.5 c 128,-1,84
 397 288 397 288 398.5 282.5 c 128,-1,85
 400 277 400 277 402.5 269 c 128,-1,86
 405 261 405 261 405 260 c 0,87,88
 408 251 408 251 408 243 c 0,89,90
 408 229 408 229 399 218 c 128,-1,91
 390 207 390 207 382 207 c 0,92,93
 372 207 372 207 359.5 224.5 c 128,-1,94
 347 242 347 242 336.5 263 c 128,-1,95
 326 284 326 284 314 301.5 c 128,-1,96
 302 319 302 319 293 319 c 0,97,98
 291 319 291 319 276.5 302 c 128,-1,99
 262 285 262 285 243 270 c 1,100,101
 235 261 235 261 225 252.5 c 128,-1,102
 215 244 215 244 208 239.5 c 128,-1,103
 201 235 201 235 195 232 c 2,104,-1
 189 228 l 2,105,106
 180 221 180 221 173 225 c 128,-1,107
 166 229 166 229 166 241 c 0,108,109
 166 263 166 263 210 298 c 1,110,111
 226 315 226 315 268.5 378.5 c 128,-1,112
 311 442 311 442 331 500 c 0,113,114
 343 537 343 537 346 543 c 128,-1,115
 349 549 349 549 356 549 c 0,116,117
 369 549 369 549 390 537 c 2,118,119
 390 537 390 537 411 526 c 0,120,121
 412 526 412 526 414 516 c 1,122,-1
 405 495 l 1,123,124
 396 489 396 489 382 472.5 c 128,-1,125
 368 456 368 456 366 450 c 0,126,127
 365 447 365 447 370.5 446 c 128,-1,128
 376 445 376 445 383.5 444.5 c 128,-1,129
 391 444 391 444 405 444 c 1,130,-1
 444 448 l 1,131,-1
 444 583 l 1,0,1
EndSplineSet
Validated: 33
EndChar

StartChar: uni2E9F
Encoding: 11935 11935 30
Width: 920
GlyphClass: 2
Flags: MW
LayerCount: 2
Fore
SplineSet
51 374 m 1,0,1
 44 376 44 376 42 378 c 128,-1,2
 40 380 40 380 36 390 c 1,3,4
 29 402 29 402 29 412 c 0,5,6
 29 420 29 420 30.5 421 c 128,-1,7
 32 422 32 422 42 422 c 2,8,-1
 146 414 l 2,9,10
 158 414 158 414 169 415 c 1,11,-1
 177 426 l 1,12,13
 187 504 187 504 194 605 c 1,14,-1
 202 755 l 1,15,16
 204 759 204 759 210 759 c 0,17,18
 214 759 214 759 219 758 c 1,19,-1
 271 731 l 1,20,21
 281 727 281 727 296 727 c 0,22,23
 301 727 301 727 308 728 c 1,24,-1
 405 728 l 2,25,26
 539 728 539 728 606 729 c 1,27,28
 628 728 628 728 644.5 728 c 128,-1,29
 661 728 661 728 672 728.5 c 128,-1,30
 683 729 683 729 689.5 730.5 c 128,-1,31
 696 732 696 732 700 734.5 c 128,-1,32
 704 737 704 737 707.5 740.5 c 128,-1,33
 711 744 711 744 715 749 c 0,34,35
 722 758 722 758 725 759.5 c 128,-1,36
 728 761 728 761 736 761 c 0,37,38
 745 761 745 761 767 745 c 128,-1,39
 789 729 789 729 799 716 c 1,40,41
 801 703 801 703 799 699.5 c 128,-1,42
 797 696 797 696 781 686 c 1,43,44
 765 672 765 672 762.5 668 c 128,-1,45
 760 664 760 664 758 653 c 1,46,-1
 748 421 l 1,47,48
 755 417 755 417 763 417 c 0,49,50
 774 417 774 417 786 427 c 128,-1,51
 798 437 798 437 809 450 c 128,-1,52
 820 463 820 463 824 466 c 1,53,54
 835 468 835 468 840.5 464.5 c 128,-1,55
 846 461 846 461 865.5 441 c 128,-1,56
 885 421 885 421 888.5 415.5 c 128,-1,57
 892 410 892 410 892 399 c 0,58,59
 892 392 892 392 890.5 390 c 128,-1,60
 889 388 889 388 878 386 c 1,61,62
 865 382 865 382 820 382 c 0,63,64
 801 382 801 382 776 383 c 1,65,-1
 753 383 l 1,66,67
 747 378 747 378 746 373.5 c 128,-1,68
 745 369 745 369 745 349 c 0,69,70
 740 242 740 242 723 92 c 1,71,72
 730 88 730 88 737 88 c 0,73,74
 745 88 745 88 748 89.5 c 128,-1,75
 751 91 751 91 760 99 c 0,76,77
 771 110 771 110 781 123.5 c 128,-1,78
 791 137 791 137 795 139 c 1,79,80
 806 138 806 138 811.5 134.5 c 128,-1,81
 817 131 817 131 840.5 110.5 c 128,-1,82
 864 90 864 90 868 85 c 128,-1,83
 872 80 872 80 872 70 c 0,84,85
 872 63 872 63 869.5 61.5 c 128,-1,86
 867 60 867 60 850 58 c 0,87,88
 829 55 829 55 761 55 c 1,89,-1
 725 54 l 1,90,91
 720 49 720 49 714 22 c 0,92,93
 709 2 709 2 706 -5.5 c 128,-1,94
 703 -13 703 -13 689.5 -37.5 c 128,-1,95
 676 -62 676 -62 670 -69 c 128,-1,96
 664 -76 664 -76 639 -92 c 0,97,98
 620 -105 620 -105 614 -107 c 128,-1,99
 608 -109 608 -109 589 -109 c 0,100,101
 584 -109 584 -109 581.5 -106.5 c 128,-1,102
 579 -104 579 -104 569.5 -90.5 c 128,-1,103
 560 -77 560 -77 557.5 -74 c 128,-1,104
 555 -71 555 -71 548 -69 c 0,105,106
 531 -63 531 -63 499 -60.5 c 128,-1,107
 467 -58 467 -58 449 -52 c 0,108,109
 436 -48 436 -48 433.5 -46 c 128,-1,110
 431 -44 431 -44 431 -33 c 0,111,112
 431 -26 431 -26 435 -23 c 128,-1,113
 439 -20 439 -20 449 -20 c 0,114,115
 463 -20 463 -20 519 -27 c 128,-1,116
 575 -34 575 -34 589 -34 c 0,117,118
 607 -34 607 -34 618 -30 c 0,119,120
 626 -28 626 -28 628 -26.5 c 128,-1,121
 630 -25 630 -25 635 -18 c 0,122,123
 641 -10 641 -10 644 -2 c 128,-1,124
 647 6 647 6 652 23 c 128,-1,125
 657 40 657 40 662 52 c 1,126,127
 661 56 661 56 657 56 c 2,128,-1
 193 52 l 1,129,-1
 188 52 l 1,130,131
 181 46 181 46 179.5 42.5 c 128,-1,132
 178 39 178 39 176 22 c 0,133,134
 173 1 173 1 165 -14 c 0,135,136
 159 -24 159 -24 155 -26 c 128,-1,137
 151 -28 151 -28 132 -28 c 256,138,139
 113 -28 113 -28 110 -25.5 c 128,-1,140
 107 -23 107 -23 107 -7 c 0,141,142
 107 -6 107 -6 120 47 c 128,-1,143
 133 100 133 100 136 118 c 2,144,-1
 173 375 l 1,145,-1
 168 381 l 1,146,-1
 51 374 l 1,0,1
706 690 m 1,147,-1
 703 696 l 1,148,-1
 264 691 l 1,149,-1
 260 691 l 1,150,-1
 254 684 l 1,151,-1
 229 421 l 1,152,-1
 230 415 l 2,153,154
 230 416 230 416 231 418 c 1,155,156
 295 417 295 417 382 417 c 0,157,158
 499 417 499 417 658 419 c 1,159,-1
 681 419 l 2,160,161
 690 419 690 419 692 420 c 128,-1,162
 694 421 694 421 695 426 c 0,163,164
 702 465 702 465 703 496.5 c 128,-1,165
 704 528 704 528 706 676 c 1,166,-1
 706 690 l 1,147,-1
695 374 m 0,167,168
 695 382 695 382 693.5 383.5 c 128,-1,169
 692 385 692 385 684 385 c 2,170,-1
 512 382 l 1,171,-1
 510 382 l 2,172,173
 295 382 295 382 264 381 c 1,174,-1
 238 379 l 2,175,176
 229 378 229 378 225 370 c 1,177,178
 220 314 220 314 185 87 c 1,179,180
 502 87 502 87 660 90 c 1,181,-1
 668 98 l 1,182,183
 676 124 676 124 678 141 c 128,-1,184
 680 158 680 158 686 233 c 0,185,186
 695 333 695 333 695 374 c 0,167,168
543 499 m 1,187,188
 543 471 543 471 540 466.5 c 128,-1,189
 537 462 537 462 518 462 c 0,190,191
 511 462 511 462 503 466 c 1,192,193
 454 541 454 541 431 568 c 1,194,-1
 378 618 l 1,195,196
 368 630 368 630 368 638 c 0,197,198
 368 644 368 644 369 645.5 c 128,-1,199
 370 647 370 647 378 649 c 1,200,201
 400 645 400 645 412 638.5 c 128,-1,202
 424 632 424 632 474 595.5 c 128,-1,203
 524 559 524 559 532.5 547 c 128,-1,204
 541 535 541 535 543 499 c 1,187,188
366 334 m 0,205,206
 379 334 379 334 385.5 331 c 128,-1,207
 392 328 392 328 420.5 311.5 c 128,-1,208
 449 295 449 295 457.5 287.5 c 128,-1,209
 466 280 466 280 492 253 c 256,210,211
 518 226 518 226 522 217.5 c 128,-1,212
 526 209 526 209 526 186 c 128,-1,213
 526 163 526 163 523 158.5 c 128,-1,214
 520 154 520 154 502 150 c 1,215,-1
 489 151 l 1,216,217
 484 153 484 153 481 157 c 2,218,-1
 428 236 l 2,219,220
 425 240 425 240 386 276 c 0,221,222
 357 303 357 303 352 308.5 c 128,-1,223
 347 314 347 314 347 321 c 0,224,225
 347 327 347 327 353 330.5 c 128,-1,226
 359 334 359 334 366 334 c 0,205,206
EndSplineSet
Validated: 1
EndChar

StartChar: uni2EA1
Encoding: 11937 11937 32
Width: 920
GlyphClass: 2
Flags: MW
LayerCount: 2
Fore
SplineSet
405 754 m 1,0,1
 455 732 455 732 467 725.5 c 128,-1,2
 479 719 479 719 500.5 700.5 c 128,-1,3
 522 682 522 682 526 674.5 c 128,-1,4
 530 667 530 667 533 639 c 1,5,6
 528 624 528 624 526 621 c 128,-1,7
 524 618 524 618 516 615 c 1,8,9
 507 615 507 615 504 615.5 c 128,-1,10
 501 616 501 616 499 617.5 c 128,-1,11
 497 619 497 619 493 625 c 2,12,-1
 466 662 l 2,13,14
 431 709 431 709 400 743 c 1,15,16
 400 751 400 751 405 754 c 1,0,1
457 387 m 1,17,18
 449 376 449 376 440 376 c 0,19,20
 435 376 435 376 430 379 c 1,21,-1
 337 495 l 2,22,23
 333 500 333 500 329 504 c 1,24,25
 328 512 328 512 332 513 c 0,26,27
 336 513 336 513 356 506 c 1,28,-1
 427 462 l 1,29,30
 451 445 451 445 455 438 c 128,-1,31
 459 431 459 431 459 406 c 0,32,33
 459 397 459 397 457 387 c 1,17,18
421 -11 m 0,34,35
 421 0 421 0 422 17.5 c 128,-1,36
 423 35 423 35 423 39 c 0,37,38
 423 63 423 63 421.5 69.5 c 128,-1,39
 420 76 420 76 412.5 93 c 128,-1,40
 405 110 405 110 401.5 113 c 128,-1,41
 398 116 398 116 388 120 c 2,42,-1
 358 129 l 2,43,44
 342 134 342 134 336 142 c 1,45,46
 336 152 336 152 340 153.5 c 128,-1,47
 344 155 344 155 366 155 c 0,48,49
 403 155 403 155 410 157 c 128,-1,50
 417 159 417 159 424 172 c 0,51,52
 440 200 440 200 450.5 227 c 128,-1,53
 461 254 461 254 506 388 c 1,54,55
 565 568 565 568 577 610 c 1,56,57
 581 614 581 614 586 614 c 0,58,59
 589 614 589 614 592 609 c 1,60,61
 589 583 589 583 566 498 c 1,62,-1
 490 232 l 1,63,64
 457 123 457 123 457 105 c 0,65,66
 457 84 457 84 459 72.5 c 128,-1,67
 461 61 461 61 472 12 c 0,68,69
 486 -53 486 -53 486 -74 c 1,70,71
 476 -87 476 -87 470.5 -91.5 c 128,-1,72
 465 -96 465 -96 457 -96 c 0,73,74
 430 -96 430 -96 425.5 -85.5 c 128,-1,75
 421 -75 421 -75 421 -11 c 0,34,35
EndSplineSet
Validated: 1
EndChar

StartChar: uni2EA2
Encoding: 11938 11938 33
Width: 920
GlyphClass: 2
Flags: MW
LayerCount: 2
Fore
SplineSet
433 684 m 1,0,1
 433 722 433 722 440 726 c 1,2,-1
 504 714 l 2,3,4
 511 712 511 712 516 709 c 1,5,6
 522 703 522 703 522 695 c 0,7,8
 522 689 522 689 507.5 679.5 c 128,-1,9
 493 670 493 670 491 661 c 0,10,11
 487 634 487 634 488 593 c 2,12,-1
 489 552 l 1,13,-1
 494 517 l 1,14,15
 502 485 502 485 532 407 c 128,-1,16
 562 329 562 329 580 308 c 0,17,18
 583 305 583 305 588 305 c 0,19,20
 608 305 608 305 656 365.5 c 128,-1,21
 704 426 704 426 719 459 c 1,22,23
 723 461 723 461 729 459 c 128,-1,24
 735 457 735 457 742 452 c 2,25,-1
 749 448 l 1,26,-1
 785 419 l 1,27,28
 795 408 795 408 792 395 c 1,29,30
 782 385 782 385 755 385 c 0,31,32
 748 385 748 385 743 384 c 1,33,-1
 657 315 l 2,34,35
 651 309 651 309 634.5 299.5 c 128,-1,36
 618 290 618 290 610 282 c 128,-1,37
 602 274 602 274 608 265 c 0,38,39
 680 159 680 159 790 90 c 1,40,-1
 863 55 l 2,41,42
 864 54 864 54 865 54 c 0,43,44
 874 49 874 49 870 37.5 c 128,-1,45
 866 26 866 26 859 26 c 0,46,47
 838 26 838 26 821.5 17.5 c 128,-1,48
 805 9 805 9 801 4 c 128,-1,49
 797 -1 797 -1 785 4 c 1,50,51
 763 18 763 18 742.5 33.5 c 128,-1,52
 722 49 722 49 682 89 c 128,-1,53
 642 129 642 129 609.5 175 c 128,-1,54
 577 221 577 221 541.5 295 c 128,-1,55
 506 369 506 369 485 452 c 1,56,-1
 480 454 l 1,57,-1
 482 434 l 1,58,59
 483 413 483 413 483 392 c 2,60,-1
 483 94 l 1,61,-1
 483 -25 l 1,62,63
 481 -36 481 -36 481 -45.5 c 128,-1,64
 481 -55 481 -55 468.5 -68.5 c 128,-1,65
 456 -82 456 -82 430 -95 c 0,66,67
 405 -107 405 -107 391 -107 c 0,68,69
 386 -107 386 -107 378.5 -95.5 c 128,-1,70
 371 -84 371 -84 368 -82 c 0,71,72
 354 -72 354 -72 325 -67 c 128,-1,73
 296 -62 296 -62 276.5 -56 c 128,-1,74
 257 -50 257 -50 257 -34 c 1,75,76
 260 -24 260 -24 266 -22 c 0,77,78
 272 -21 272 -21 284 -21 c 0,79,80
 306 -21 306 -21 339.5 -23 c 128,-1,81
 373 -25 373 -25 381 -25 c 0,82,83
 402 -25 402 -25 418 -22 c 1,84,-1
 425 -14 l 1,85,-1
 428 52 l 2,86,87
 431 119 431 119 431 186 c 0,88,89
 431 202 431 202 432.5 228 c 128,-1,90
 434 254 434 254 434 264 c 1,91,92
 429 270 429 270 413 255.5 c 128,-1,93
 397 241 397 241 326 181.5 c 128,-1,94
 255 122 255 122 156 51 c 1,95,96
 154 45 154 45 154 20 c 0,97,98
 154 0 154 0 141 0 c 0,99,100
 126 0 126 0 100 34 c 128,-1,101
 74 68 74 68 77 82 c 1,102,-1
 182 134 l 1,103,104
 241 165 241 165 329.5 229.5 c 128,-1,105
 418 294 418 294 428 312 c 0,106,107
 430 315 430 315 432 322 c 1,108,-1
 432 538 l 1,109,-1
 434 611 l 2,110,111
 436 684 436 684 433 684 c 1,0,1
172 461 m 2,112,113
 177 461 177 461 198.5 447.5 c 128,-1,114
 220 434 220 434 246.5 413.5 c 128,-1,115
 273 393 273 393 293.5 363 c 128,-1,116
 314 333 314 333 314 306 c 0,117,118
 314 290 314 290 304 280 c 128,-1,119
 294 270 294 270 284 270 c 0,120,121
 273 270 273 270 263 284 c 128,-1,122
 253 298 253 298 240 323 c 128,-1,123
 227 348 227 348 221 358 c 1,124,-1
 156 438 l 2,125,126
 153 441 153 441 153 446 c 128,-1,127
 153 451 153 451 156.5 456 c 128,-1,128
 160 461 160 461 167 461 c 2,129,-1
 172 461 l 2,112,113
EndSplineSet
Validated: 33
EndChar

StartChar: uni2EA6
Encoding: 11942 11942 35
Width: 1024
GlyphClass: 2
Flags: MW
LayerCount: 2
Fore
SplineSet
546 456 m 0,0,1
 546 441 546 441 540 427 c 0,2,3
 535 416 535 416 533 414.5 c 128,-1,4
 531 413 531 413 526 413 c 0,5,6
 518 413 518 413 515.5 414 c 128,-1,7
 513 415 513 415 506 422 c 0,8,9
 498 430 498 430 489.5 446.5 c 128,-1,10
 481 463 481 463 477 469 c 2,11,-1
 454 500 l 2,12,13
 444 514 444 514 440 518 c 128,-1,14
 436 522 436 522 422 534 c 1,15,-1
 392 556 l 2,16,17
 384 562 384 562 383 563.5 c 128,-1,18
 382 565 382 565 384 567 c 0,19,20
 385 569 385 569 388 569 c 0,21,22
 404 569 404 569 414.5 564.5 c 128,-1,23
 425 560 425 560 469 535 c 128,-1,24
 513 510 513 510 522 503 c 128,-1,25
 531 496 531 496 539 480 c 0,26,27
 546 467 546 467 546 456 c 0,0,1
597 523 m 2,28,-1
 597 590 l 1,29,-1
 597 642 l 1,30,-1
 597 682 l 1,31,-1
 597 712 l 2,32,33
 597 722 597 722 597.5 732 c 128,-1,34
 598 742 598 742 598.5 745.5 c 128,-1,35
 599 749 599 749 600.5 752 c 128,-1,36
 602 755 602 755 603.5 755.5 c 128,-1,37
 605 756 605 756 607 756 c 0,38,39
 612 756 612 756 641.5 749.5 c 128,-1,40
 671 743 671 743 676 741 c 128,-1,41
 681 739 681 739 684.5 731 c 128,-1,42
 688 723 688 723 688 719 c 0,43,44
 688 714 688 714 686.5 712 c 128,-1,45
 685 710 685 710 676 705 c 2,46,-1
 652 689 l 1,47,-1
 652 504 l 2,48,49
 652 455 652 455 651 313.5 c 128,-1,50
 650 172 650 172 650 114 c 2,51,-1
 650 -92 l 1,52,53
 645 -98 645 -98 642.5 -100.5 c 128,-1,54
 640 -103 640 -103 633.5 -105.5 c 128,-1,55
 627 -108 627 -108 616 -108 c 0,56,57
 606 -108 606 -108 604 -107 c 128,-1,58
 602 -106 602 -106 599 -99 c 0,59,60
 597 -95 597 -95 597 94 c 2,61,-1
 597 144 l 1,62,-1
 597 190 l 1,63,-1
 597 228 l 2,64,65
 597 246 597 246 596.5 257.5 c 128,-1,66
 596 269 596 269 596 276 c 2,67,-1
 596 284 l 1,68,-1
 560 253 l 2,69,70
 534 230 534 230 525 223.5 c 128,-1,71
 516 217 516 217 488 201 c 2,72,-1
 452 180 l 2,73,74
 436 171 436 171 426 164 c 2,75,-1
 408 152 l 1,76,77
 401 146 401 146 397 142.5 c 128,-1,78
 393 139 393 139 391 135.5 c 128,-1,79
 389 132 389 132 388.5 131 c 128,-1,80
 388 130 388 130 388 128 c 2,81,-1
 388 126 l 1,82,83
 385 114 385 114 382 114 c 128,-1,84
 379 114 379 114 370 130 c 2,85,-1
 348 167 l 2,86,87
 336 186 336 186 336 191 c 0,88,89
 336 195 336 195 337 195.5 c 128,-1,90
 338 196 338 196 344 197 c 0,91,92
 382 205 382 205 401 212 c 128,-1,93
 420 219 420 219 494 254 c 1,94,95
 594 299 594 299 595 299 c 0,96,97
 597 299 597 299 597 523 c 2,28,-1
EndSplineSet
Validated: 1
EndChar

StartChar: uni2EA7
Encoding: 11943 11943 36
Width: 920
GlyphClass: 2
Flags: MW
LayerCount: 2
Fore
SplineSet
493 336 m 0,0,1
 493 331 493 331 494 320 c 128,-1,2
 495 309 495 309 495 302 c 0,3,4
 495 271 495 271 480 260 c 1,5,6
 471 256 471 256 456 256 c 1,7,-1
 443 260 l 1,8,-1
 433 269 l 1,9,-1
 433 345 l 1,10,11
 431 354 431 354 419 354 c 0,12,13
 399 354 399 354 316.5 353 c 128,-1,14
 234 352 234 352 172 352 c 2,15,-1
 80 352 l 2,16,17
 79 352 79 352 76.5 350 c 128,-1,18
 74 348 74 348 73 348 c 0,19,20
 56 348 56 348 49 392 c 1,21,22
 51 400 51 400 58 401 c 1,23,-1
 82 398 l 1,24,25
 154 387 154 387 336 387 c 0,26,27
 348 387 348 387 369 387.5 c 128,-1,28
 390 388 390 388 399 388 c 2,29,-1
 417 388 l 1,30,31
 431 390 431 390 435 394.5 c 128,-1,32
 439 399 439 399 439 412 c 0,33,34
 439 415 439 415 438.5 427 c 128,-1,35
 438 439 438 439 438 447 c 0,36,37
 438 456 438 456 437.5 480.5 c 128,-1,38
 437 505 437 505 437 521 c 0,39,40
 437 546 437 546 436 554 c 1,41,-1
 430 560 l 1,42,-1
 259 560 l 1,43,44
 252 559 252 559 247 554.5 c 128,-1,45
 242 550 242 550 237 543.5 c 128,-1,46
 232 537 232 537 231 536 c 0,47,48
 182 469 182 469 143 431 c 1,49,-1
 132 421 l 1,50,51
 128 419 128 419 124 419 c 0,52,53
 107 419 107 419 107 431 c 0,54,55
 107 436 107 436 128 464 c 2,56,-1
 175 528 l 2,57,58
 202 565 202 565 232 625.5 c 128,-1,59
 262 686 262 686 277 748 c 1,60,61
 281 751 281 751 288 751 c 0,62,63
 303 751 303 751 329 735.5 c 128,-1,64
 355 720 355 720 362 708 c 1,65,66
 362 693 362 693 336 689 c 1,67,-1
 321 684 l 1,68,69
 303 654 303 654 276 600 c 1,70,71
 279 598 279 598 321 598 c 0,72,73
 335 598 335 598 360.5 599 c 128,-1,74
 386 600 386 600 397 600 c 2,75,-1
 432 600 l 1,76,-1
 437 608 l 1,77,78
 437 720 437 720 431 764 c 1,79,80
 435 770 435 770 447 770 c 0,81,82
 453 770 453 770 481.5 765 c 128,-1,83
 510 760 510 760 516 757 c 0,84,85
 527 753 527 753 527 743.5 c 128,-1,86
 527 734 527 734 512 722 c 2,87,-1
 495 707 l 1,88,-1
 491 700 l 1,89,90
 488 683 488 683 488 659 c 0,91,92
 488 655 488 655 488.5 647 c 128,-1,93
 489 639 489 639 489 634 c 2,94,-1
 489 606 l 1,95,-1
 496 600 l 1,96,97
 508 600 508 600 531 598.5 c 128,-1,98
 554 597 554 597 565 597 c 0,99,100
 571 597 571 597 582 597.5 c 128,-1,101
 593 598 593 598 599 598 c 0,102,103
 608 598 608 598 625 599 c 128,-1,104
 642 600 642 600 651 600 c 1,105,106
 656 604 656 604 674.5 627 c 128,-1,107
 693 650 693 650 704 657 c 1,108,109
 715 652 715 652 733.5 636.5 c 128,-1,110
 752 621 752 621 767.5 606 c 128,-1,111
 783 591 783 591 785 590 c 1,112,113
 790 580 790 580 786 569 c 1,114,115
 772 561 772 561 698 561 c 0,116,117
 667 561 667 561 620 563 c 128,-1,118
 573 565 573 565 554 565 c 0,119,120
 516 565 516 565 503.5 562 c 128,-1,121
 491 559 491 559 491 550 c 2,122,-1
 491 403 l 2,123,124
 491 393 491 393 499.5 390.5 c 128,-1,125
 508 388 508 388 534 388 c 0,126,127
 568 388 568 388 620 389.5 c 128,-1,128
 672 391 672 391 707 391 c 2,129,-1
 736 391 l 1,130,131
 742 395 742 395 763 418 c 128,-1,132
 784 441 784 441 794 448 c 1,133,134
 809 444 809 444 839.5 415 c 128,-1,135
 870 386 870 386 870 375 c 0,136,137
 870 357 870 357 841 357 c 2,138,-1
 509 357 l 1,139,-1
 501 354 l 1,140,141
 493 354 493 354 493 336 c 0,0,1
771 596 m 1,142,143
 771 599 771 599 768 599 c 1,144,145
 768 596 768 596 771 596 c 1,142,143
EndSplineSet
Validated: 1
EndChar

StartChar: uni2EA9
Encoding: 11945 11945 38
Width: 920
GlyphClass: 2
Flags: MW
LayerCount: 2
Fore
SplineSet
425 684 m 2,0,-1
 500 684 l 1,1,-1
 526 684 l 1,2,-1
 552 721 l 1,3,4
 559 728 559 728 566 728 c 0,5,6
 572 728 572 728 578 723 c 2,7,-1
 630 676 l 1,8,9
 632 671 632 671 628.5 665 c 128,-1,10
 625 659 625 659 618 659 c 2,11,-1
 484 659 l 1,12,-1
 484 434 l 1,13,14
 499 431 499 431 508 431 c 1,15,16
 508 431 508 431 515 444 c 0,17,18
 522 456 522 456 531.5 467 c 128,-1,19
 541 478 541 478 549 478 c 0,20,21
 555 478 555 478 560 473 c 2,22,-1
 614 425 l 1,23,24
 613 412 613 412 602 410 c 1,25,-1
 482 410 l 1,26,-1
 482 170 l 1,27,28
 488 172 488 172 520.5 186 c 128,-1,29
 553 200 553 200 582.5 209 c 128,-1,30
 612 218 612 218 636 218 c 1,31,-1
 634 211 l 1,32,33
 572 174 572 174 448 120 c 2,34,-1
 370 86 l 1,35,-1
 360 80 l 2,36,37
 358 78 358 78 353 70 c 128,-1,38
 348 62 348 62 342 56 c 128,-1,39
 336 50 336 50 331 50 c 0,40,41
 327 50 327 50 322 52 c 1,42,-1
 288 114 l 1,43,44
 288 130 288 130 298 132 c 1,45,-1
 340 132 l 1,46,-1
 426 154 l 1,47,-1
 426 407 l 1,48,49
 420 407 420 407 409.5 407.5 c 128,-1,50
 399 408 399 408 394 408 c 0,51,52
 352 408 352 408 328 400 c 1,53,54
 321 401 321 401 315.5 406.5 c 128,-1,55
 310 412 310 412 307.5 418.5 c 128,-1,56
 305 425 305 425 302.5 432.5 c 128,-1,57
 300 440 300 440 300 445 c 1,58,-1
 394 431 l 1,59,60
 403 431 403 431 426 434 c 1,61,-1
 426 657 l 1,62,63
 420 657 420 657 408 658 c 128,-1,64
 396 659 396 659 390 659 c 0,65,66
 347 659 347 659 308 650 c 1,67,68
 293 655 293 655 284 692 c 1,69,70
 287 695 287 695 290.5 695.5 c 128,-1,71
 294 696 294 696 303.5 694.5 c 128,-1,72
 313 693 313 693 326 690.5 c 128,-1,73
 339 688 339 688 365.5 686 c 128,-1,74
 392 684 392 684 425 684 c 2,0,-1
EndSplineSet
Validated: 1
EndChar

StartChar: uni2EAA
Encoding: 11946 11946 39
Width: 920
GlyphClass: 2
Flags: MW
LayerCount: 2
Fore
SplineSet
378 388 m 0,0,1
 378 384 378 384 365 373 c 128,-1,2
 352 362 352 362 352 354 c 2,3,-1
 352 65 l 1,4,5
 392 81 392 81 416 88 c 1,6,-1
 416 524 l 2,7,8
 416 543 416 543 430 543 c 0,9,10
 431 543 431 543 445.5 538 c 128,-1,11
 460 533 460 533 464 533 c 0,12,13
 465 533 465 533 468 534 c 1,14,15
 476 540 476 540 501 580 c 128,-1,16
 526 620 526 620 530 634 c 1,17,-1
 302 634 l 2,18,19
 282 634 282 634 280 646 c 1,20,21
 280 656 280 656 296 656 c 2,22,-1
 526 656 l 2,23,24
 532 656 532 656 549 667 c 128,-1,25
 566 678 566 678 570 678 c 0,26,27
 586 678 586 678 614 644 c 1,28,-1
 630 623 l 1,29,30
 632 618 632 618 632 614 c 1,31,32
 628 605 628 605 598 605 c 1,33,-1
 588 603 l 1,34,-1
 490 520 l 1,35,36
 504 515 504 515 504 508 c 256,37,38
 504 501 504 501 486 495 c 1,39,-1
 474 488 l 2,40,41
 469 485 469 485 470 478 c 1,42,-1
 470 336 l 1,43,-1
 538 336 l 2,44,45
 550 336 550 336 565 354 c 128,-1,46
 580 372 580 372 584 372 c 0,47,48
 593 372 593 372 616.5 351.5 c 128,-1,49
 640 331 640 331 640 324 c 0,50,51
 640 315 640 315 618 315 c 2,52,-1
 470 315 l 1,53,-1
 470 107 l 1,54,-1
 654 170 l 1,55,56
 632 157 632 157 570 124 c 2,57,-1
 404 37 l 1,58,-1
 328 -4 l 1,59,-1
 324 -28 l 1,60,61
 320 -33 320 -33 316 -33 c 0,62,63
 306 -33 306 -33 286 -8.5 c 128,-1,64
 266 16 266 16 266 25 c 0,65,66
 266 29 266 29 283 37.5 c 128,-1,67
 300 46 300 46 300 54 c 2,68,-1
 300 398 l 2,69,70
 300 414 300 414 312 414 c 0,71,72
 334 414 334 414 356 405 c 128,-1,73
 378 396 378 396 378 388 c 0,0,1
EndSplineSet
Validated: 1
EndChar

StartChar: uni2EAC
Encoding: 11948 11948 40
Width: 920
GlyphClass: 2
Flags: MW
LayerCount: 2
Fore
SplineSet
511 719 m 1,0,1
 511 719 511 719 530 742 c 0,2,3
 548 764 548 764 559 764 c 0,4,5
 563 764 563 764 567 762 c 1,6,-1
 609 721 l 1,7,8
 618 710 618 710 618 704 c 0,9,10
 618 687 618 687 604 684 c 0,11,12
 603 684 603 684 582.5 684.5 c 128,-1,13
 562 685 562 685 532.5 686 c 128,-1,14
 503 687 503 687 449.5 687.5 c 128,-1,15
 396 688 396 688 337 688 c 1,16,17
 323 703 323 703 323 723 c 1,18,-1
 327 728 l 1,19,20
 407 718 407 718 467 718 c 0,21,22
 473 718 473 718 484.5 718.5 c 128,-1,23
 496 719 496 719 501 719 c 2,24,-1
 511 719 l 1,0,1
595 282 m 0,25,26
 595 257 595 257 598 199 c 128,-1,27
 601 141 601 141 601 127 c 0,28,29
 601 121 601 121 600 98.5 c 128,-1,30
 599 76 599 76 599 60 c 1,31,32
 588 48 588 48 574 48 c 0,33,34
 568 48 568 48 562 51 c 1,35,-1
 555 60 l 1,36,-1
 555 406 l 1,37,38
 558 413 558 413 570 413 c 0,39,40
 576 413 576 413 586.5 410.5 c 128,-1,41
 597 408 597 408 599 408 c 0,42,43
 623 397 623 397 630 387 c 1,44,45
 630 378 630 378 616.5 368 c 128,-1,46
 603 358 603 358 600 350 c 1,47,48
 595 326 595 326 595 282 c 0,25,26
402 506 m 0,49,50
 387 506 387 506 364.5 502 c 128,-1,51
 342 498 342 498 327 498 c 0,52,53
 300 498 300 498 295 527 c 0,54,55
 292 543 292 543 302 543 c 1,56,-1
 368 536 l 1,57,58
 395 536 395 536 434 533.5 c 128,-1,59
 473 531 473 531 485 531 c 0,60,61
 523 531 523 531 532.5 534 c 128,-1,62
 542 537 542 537 555 554 c 0,63,64
 571 574 571 574 589 574 c 1,65,-1
 625 541 l 2,66,67
 639 527 639 527 642 510 c 1,68,-1
 631 502 l 1,69,-1
 498 502 l 1,70,-1
 489 486 l 1,71,72
 489 428 489 428 488 332 c 128,-1,73
 487 236 487 236 487 198 c 0,74,75
 487 129 487 129 489 37 c 128,-1,76
 491 -55 491 -55 491 -78 c 1,77,78
 488 -90 488 -90 474 -102 c 1,79,-1
 452 -102 l 1,80,81
 444 -100 444 -100 439 -90 c 1,82,83
 439 12 439 12 442 165 c 128,-1,84
 445 318 445 318 445 369 c 0,85,86
 445 393 445 393 444.5 433 c 128,-1,87
 444 473 444 473 444 489 c 1,88,89
 435 506 435 506 402 506 c 0,49,50
328 301 m 0,90,91
 328 307 328 307 327 340 c 128,-1,92
 326 373 326 373 326 402 c 1,93,94
 332 414 332 414 348 414 c 0,95,96
 362 414 362 414 381 406 c 128,-1,97
 400 398 400 398 407 391 c 1,98,99
 407 383 407 383 394 372 c 128,-1,100
 381 361 381 361 379 351 c 1,101,-1
 379 274 l 2,102,103
 379 102 379 102 299 -22 c 1,104,-1
 284 -25 l 1,105,106
 278 -22 278 -22 278 -7 c 1,107,108
 328 106 328 106 328 301 c 0,90,91
EndSplineSet
Validated: 1
EndChar

StartChar: uni2EAD
Encoding: 11949 11949 41
Width: 920
GlyphClass: 2
Flags: MW
LayerCount: 2
Fore
SplineSet
585 285 m 1,0,1
 606 259 606 259 606 241 c 0,2,3
 606 230 606 230 594 217 c 1,4,-1
 569 214 l 2,5,6
 567 214 567 214 565 215 c 2,7,-1
 554 227 l 1,8,9
 532 281 532 281 484 337 c 1,10,-1
 484 -54 l 2,11,12
 484 -74 484 -74 467.5 -82.5 c 128,-1,13
 451 -91 451 -91 436 -91 c 0,14,15
 428 -91 428 -91 420 -88 c 1,16,-1
 413 -81 l 1,17,18
 428 53 428 53 428 201 c 0,19,20
 428 211 428 211 426.5 248.5 c 128,-1,21
 425 286 425 286 425 315 c 1,22,-1
 423 316 l 1,23,24
 361 238 361 238 294 229 c 0,25,26
 287 229 287 229 287.5 234 c 128,-1,27
 288 239 288 239 291 242 c 0,28,29
 446 371 446 371 528 566 c 1,30,-1
 383 566 l 2,31,32
 358 566 358 566 341 564.5 c 128,-1,33
 324 563 324 563 319 561.5 c 128,-1,34
 314 560 314 560 311.5 559 c 128,-1,35
 309 558 309 558 308 558 c 0,36,37
 301 558 301 558 293.5 573.5 c 128,-1,38
 286 589 286 589 284 604 c 1,39,40
 287 605 287 605 291 605 c 0,41,42
 303 605 303 605 321.5 599 c 128,-1,43
 340 593 340 593 344 593 c 2,44,-1
 418 593 l 1,45,-1
 418 699 l 2,46,47
 418 707 418 707 417 714 c 2,48,-1
 409 756 l 1,49,50
 409 763 409 763 413 764 c 1,51,-1
 504 748 l 1,52,-1
 508 741 l 1,53,54
 506 737 506 737 493.5 729.5 c 128,-1,55
 481 722 481 722 478 715 c 1,56,57
 475 700 475 700 475 655 c 2,58,59
 475 655 475 655 475 636 c 2,60,-1
 475 615 l 1,61,-1
 475 593 l 1,62,-1
 533 593 l 1,63,64
 547 594 547 594 555 604.5 c 128,-1,65
 563 615 563 615 570 615 c 0,66,67
 579 615 579 615 587.5 610 c 128,-1,68
 596 605 596 605 607 594 c 2,69,-1
 620 582 l 2,70,71
 622 579 622 579 622 576 c 0,72,73
 622 569 622 569 611 564 c 2,74,-1
 598 557 l 1,75,-1
 576 536 l 1,76,77
 573 531 573 531 551 486 c 1,78,-1
 480 370 l 1,79,-1
 585 285 l 1,0,1
EndSplineSet
Validated: 1
EndChar

StartChar: uni2EAF
Encoding: 11951 11951 43
Width: 920
GlyphClass: 2
Flags: MW
LayerCount: 2
Fore
SplineSet
316 238 m 1,0,1
 299 186 299 186 287.5 156.5 c 128,-1,2
 276 127 276 127 261 116 c 0,3,4
 245 104 245 104 243.5 87.5 c 128,-1,5
 242 71 242 71 249 57 c 1,6,7
 251 49 251 49 251 44 c 0,8,9
 251 43 251 43 252 44 c 0,10,11
 256 47 256 47 264 48 c 0,12,13
 275 50 275 50 281.5 48.5 c 128,-1,14
 288 47 288 47 294.5 50.5 c 128,-1,15
 301 54 301 54 306 66 c 1,16,-1
 332 238 l 1,17,-1
 316 238 l 1,0,1
411 254 m 1,18,19
 418 225 418 225 426.5 196 c 128,-1,20
 435 167 435 167 439.5 150 c 128,-1,21
 444 133 444 133 447 117 c 0,22,23
 452 86 452 86 461.5 73.5 c 128,-1,24
 471 61 471 61 489 69 c 1,25,26
 499 80 499 80 503 88.5 c 128,-1,27
 507 97 507 97 513 114 c 1,28,29
 499 174 499 174 423 258 c 1,30,-1
 411 254 l 1,18,19
536 264 m 1,31,-1
 548 272 l 1,32,33
 613 212 613 212 639 171 c 1,34,-1
 640 170 l 1,35,36
 640 170 640 170 645 164 c 256,37,38
 650 158 650 158 654 152 c 2,39,-1
 662 140 l 2,40,41
 666 134 666 134 668 127.5 c 128,-1,42
 670 121 670 121 669 117 c 1,43,44
 669 108 669 108 665 105 c 128,-1,45
 661 102 661 102 650.5 100.5 c 128,-1,46
 640 99 640 99 633 96 c 0,47,48
 619 89 619 89 606.5 113.5 c 128,-1,49
 594 138 594 138 588 171 c 0,50,51
 585 183 585 183 580 190 c 2,52,-1
 564 216 l 1,53,54
 551 234 551 234 536 264 c 1,31,-1
530 720 m 1,55,56
 468 689 468 689 393 599 c 1,57,-1
 380 583 l 1,58,59
 419 531 419 531 419 501 c 0,60,61
 419 491 419 491 416 484 c 1,62,63
 398 481 398 481 388 481 c 0,64,65
 381 481 381 481 378 482 c 1,66,67
 329 563 329 563 290 609 c 1,68,69
 289 613 289 613 295 616 c 1,70,71
 327 620 327 620 356 591 c 1,72,73
 418 672 418 672 444 749 c 1,74,75
 443 758 443 758 456 764 c 1,76,77
 476 758 476 758 522 731 c 1,78,79
 530 722 530 722 530 720 c 1,55,56
564 330 m 1,80,-1
 360 303 l 1,81,82
 354 301 354 301 335.5 287.5 c 128,-1,83
 317 274 317 274 306 274 c 0,84,85
 302 274 302 274 299 275 c 1,86,87
 293 281 293 281 288.5 296 c 128,-1,88
 284 311 284 311 281 323.5 c 128,-1,89
 278 336 278 336 278 337 c 2,90,-1
 283 346 l 1,91,-1
 351 354 l 1,92,-1
 389 402 l 1,93,-1
 425 449 l 2,94,95
 442 471 442 471 458 494 c 2,96,-1
 486 536 l 2,97,98
 500 557 500 557 511.5 579 c 128,-1,99
 523 601 523 601 532 621 c 1,100,-1
 539 645 l 1,101,102
 542 649 542 649 545 650 c 1,103,104
 556 648 556 648 575 639.5 c 128,-1,105
 594 631 594 631 608.5 620.5 c 128,-1,106
 623 610 623 610 621 604 c 1,107,108
 583 594 583 594 542 531 c 2,109,-1
 506 477 l 1,110,-1
 402 357 l 1,111,-1
 564 364 l 1,112,-1
 562 370 l 1,113,-1
 556 384 l 1,114,-1
 548 402 l 2,115,116
 545 411 545 411 542.5 418.5 c 128,-1,117
 540 426 540 426 540 428 c 1,118,119
 545 433 545 433 560 428 c 1,120,121
 642 366 642 366 642 298 c 0,122,123
 642 291 642 291 641 287 c 128,-1,124
 640 283 640 283 635 279 c 128,-1,125
 630 275 630 275 620 275 c 0,126,127
 612 275 612 275 607 288.5 c 128,-1,128
 602 302 602 302 592.5 316 c 128,-1,129
 583 330 583 330 564 330 c 1,80,-1
EndSplineSet
Validated: 41
EndChar

StartChar: uni2EBB
Encoding: 11963 11963 44
Width: 920
GlyphClass: 2
Flags: MW
LayerCount: 2
Fore
SplineSet
435 682 m 2,0,1
 435 688 435 688 433 715 c 128,-1,2
 431 742 431 742 431 749 c 0,3,4
 431 760 431 760 433 762 c 2,5,-1
 444 767 l 1,6,-1
 498 758 l 1,7,8
 507 755 507 755 516 750 c 1,9,10
 519 746 519 746 519 741 c 0,11,12
 519 734 519 734 502.5 719.5 c 128,-1,13
 486 705 486 705 485 701 c 1,14,-1
 485 684 l 1,15,16
 488 675 488 675 501 673 c 128,-1,17
 514 671 514 671 554 671 c 2,18,-1
 585 671 l 2,19,20
 608 671 608 671 620 671 c 128,-1,21
 632 671 632 671 644.5 672 c 128,-1,22
 657 673 657 673 660.5 673 c 128,-1,23
 664 673 664 673 670.5 676 c 128,-1,24
 677 679 677 679 677.5 679.5 c 128,-1,25
 678 680 678 680 684 685.5 c 128,-1,26
 690 691 690 691 692 693 c 0,27,28
 703 704 703 704 711 705 c 1,29,-1
 747 679 l 1,30,31
 764 664 764 664 764 650 c 0,32,33
 764 638 764 638 743 625 c 1,34,-1
 732 615 l 1,35,-1
 731 614 l 1,36,-1
 733 577 l 1,37,-1
 738 566 l 1,38,39
 746 561 746 561 753 561 c 0,40,41
 764 561 764 561 788 585.5 c 128,-1,42
 812 610 812 610 821 610 c 2,43,-1
 823 610 l 1,44,-1
 870 569 l 1,45,-1
 882 556 l 2,46,47
 883 554 883 554 883 550 c 0,48,49
 883 534 883 534 858 531 c 1,50,-1
 810 530 l 1,51,-1
 796 530 l 2,52,53
 742 530 742 530 731 516 c 1,54,-1
 733 394 l 1,55,-1
 733 393 l 2,56,57
 733 380 733 380 717 373 c 1,58,-1
 697 373 l 1,59,60
 690 375 690 375 684 390 c 128,-1,61
 678 405 678 405 674 408 c 1,62,-1
 529 410 l 2,63,64
 525 410 525 410 519 409.5 c 128,-1,65
 513 409 513 409 510 409 c 128,-1,66
 507 409 507 409 503 408 c 128,-1,67
 499 407 499 407 497 406.5 c 128,-1,68
 495 406 495 406 492.5 404.5 c 128,-1,69
 490 403 490 403 489 400.5 c 128,-1,70
 488 398 488 398 487 395 c 1,71,-1
 487 338 l 1,72,73
 491 331 491 331 496 331 c 2,74,-1
 705 330 l 2,75,76
 733 330 733 330 741.5 334 c 128,-1,77
 750 338 750 338 764 358 c 0,78,79
 777 376 777 376 786 380 c 1,80,-1
 795 379 l 1,81,82
 836 349 836 349 858 319 c 1,83,-1
 858 315 l 2,84,85
 858 308 858 308 854 304 c 1,86,-1
 848 301 l 1,87,88
 817 297 817 297 643 297 c 2,89,-1
 618 297 l 1,90,91
 367 294 367 294 133 290 c 1,92,-1
 81 285 l 1,93,94
 80 286 80 286 77 286 c 128,-1,95
 74 286 74 286 72 287 c 0,96,97
 56 303 56 303 56 323 c 2,98,-1
 56 329 l 1,99,-1
 63 332 l 1,100,101
 111 327 111 327 196 327 c 0,102,103
 235 327 235 327 295 328 c 128,-1,104
 355 329 355 329 368 329 c 0,105,106
 412 329 412 329 422.5 330.5 c 128,-1,107
 433 332 433 332 437 338 c 1,108,109
 437 370 437 370 435.5 384 c 128,-1,110
 434 398 434 398 433 400 c 128,-1,111
 432 402 432 402 426 406 c 1,112,-1
 274 405 l 1,113,-1
 266 405 l 1,114,-1
 200 399 l 1,115,116
 196 400 196 400 189 400 c 1,117,118
 175 403 175 403 170 432 c 1,119,-1
 171 442 l 1,120,121
 174 446 174 446 180 446 c 0,122,123
 188 446 188 446 219 443 c 128,-1,124
 250 440 250 440 257 440 c 2,125,-1
 426 442 l 1,126,127
 437 448 437 448 437 481 c 0,128,129
 437 524 437 524 419 525 c 1,130,-1
 324 525 l 2,131,132
 152 525 152 525 58 517 c 1,133,134
 49 522 49 522 42.5 534.5 c 128,-1,135
 36 547 36 547 36 558 c 0,136,137
 36 566 36 566 44 568 c 1,138,139
 102 556 102 556 238 556 c 0,140,141
 352 556 352 556 426 562 c 1,142,143
 436 571 436 571 436 598 c 0,144,145
 436 605 436 605 435.5 610.5 c 128,-1,146
 435 616 435 616 435 620 c 0,147,148
 435 630 435 630 421 633 c 128,-1,149
 407 636 407 636 364 636 c 0,150,151
 291 636 291 636 184 626 c 1,152,153
 166 636 166 636 166 661 c 0,154,155
 166 675 166 675 173 675 c 2,156,-1
 228 671 l 1,157,158
 350 668 350 668 383 668 c 0,159,160
 433 668 433 668 435 681 c 1,161,-1
 435 682 l 2,0,1
531 280 m 0,162,-1
332 282 m 0,163,-1
667 563 m 1,164,165
 676 565 676 565 677.5 571 c 128,-1,166
 679 577 679 577 679 598 c 0,167,168
 679 632 679 632 670 634 c 1,169,170
 515 634 515 634 496 633 c 1,171,172
 485 625 485 625 485 599 c 0,173,174
 485 591 485 591 486 586 c 2,175,-1
 491 563 l 1,176,177
 502 562 502 562 550 562 c 0,178,179
 615 562 615 562 660 563 c 1,180,-1
 667 563 l 1,164,165
682 471 m 0,181,182
 682 517 682 517 674 525 c 1,183,184
 616 525 616 525 587 526 c 1,185,-1
 500 525 l 1,186,187
 487 518 487 518 487 487 c 0,188,189
 487 446 487 446 500 442 c 1,190,-1
 667 446 l 2,191,192
 682 446 682 446 682 471 c 0,181,182
EndSplineSet
Validated: 1
EndChar

StartChar: uni2EBC
Encoding: 11964 11964 45
Width: 920
GlyphClass: 2
Flags: MW
LayerCount: 2
Fore
SplineSet
591 432 m 0,0,1
 584 422 584 422 570 423 c 0,2,3
 565 423 565 423 562 424 c 0,4,5
 532 445 532 445 496.5 473.5 c 128,-1,6
 461 502 461 502 448 510 c 1,7,-1
 384 541 l 1,8,9
 381 546 381 546 384 554 c 2,10,-1
 386 558 l 1,11,12
 390 561 390 561 401 561 c 0,13,14
 426 561 426 561 473 544 c 0,15,16
 576 507 576 507 593 468 c 0,17,18
 597 458 597 458 597 452 c 0,19,20
 597 442 597 442 591 432 c 0,0,1
617 356 m 1,21,22
 615 615 615 615 612 675 c 1,23,-1
 612 684 l 1,24,-1
 609 693 l 1,25,26
 609 693 609 693 563 693 c 0,27,28
 535 693 535 693 441 692 c 2,29,-1
 335 691 l 2,30,31
 325 690 325 690 323 681 c 1,32,-1
 323 520 l 2,33,34
 323 508 323 508 319.5 379 c 128,-1,35
 316 250 316 250 315 247 c 0,36,37
 290 44 290 44 187 -69 c 0,38,39
 159 -99 159 -99 150 -107 c 1,40,41
 145 -110 145 -110 137 -107 c 1,42,-1
 131 -103 l 1,43,44
 126 -98 126 -98 127 -92 c 0,45,46
 128 -90 128 -90 129 -88 c 128,-1,47
 130 -86 130 -86 130 -84 c 1,48,-1
 181 -12 l 1,49,50
 191 4 191 4 195 12 c 0,51,52
 264 148 264 148 269 408 c 1,53,-1
 268 631 l 2,54,55
 268 716 268 716 261 752 c 1,56,-1
 268 762 l 1,57,58
 272 761 272 761 311 740 c 0,59,60
 323 733 323 733 328 732 c 0,61,62
 341 728 341 728 476 728 c 2,63,-1
 480 728 l 1,64,65
 589 730 589 730 602 732 c 0,66,67
 611 734 611 734 627 751 c 0,68,69
 640 766 640 766 654 760 c 1,70,-1
 692 728 l 1,71,72
 705 715 705 715 705 706 c 128,-1,73
 705 697 705 697 696 691 c 2,74,-1
 675 674 l 2,75,76
 673 673 673 673 671 669 c 1,77,78
 669 612 669 612 669 480 c 0,79,80
 669 362 669 362 670 297 c 0,81,82
 671 283 671 283 671.5 251.5 c 128,-1,83
 672 220 672 220 672 204 c 2,84,-1
 676 17 l 2,85,86
 676 10 676 10 675.5 -3.5 c 128,-1,87
 675 -17 675 -17 674 -23 c 0,88,89
 672 -50 672 -50 626 -77 c 1,90,-1
 598 -90 l 2,91,92
 592 -92 592 -92 589 -92 c 0,93,94
 578 -93 578 -93 570 -75 c 0,95,96
 560 -55 560 -55 546 -50 c 1,97,-1
 454 -33 l 1,98,99
 446 -28 446 -28 447 -17 c 1,100,-1
 449 -9 l 1,101,102
 452 -3 452 -3 462 -3 c 2,103,-1
 570 -13 l 1,104,105
 592 -13 592 -13 605 -9 c 0,106,107
 617 -6 617 -6 619 8 c 0,108,109
 621 32 621 32 621 75 c 0,110,111
 621 96 621 96 619 208 c 0,112,113
 619 261 619 261 618 323 c 1,114,115
 501 245 501 245 387 198 c 1,116,-1
 381 175 l 1,117,118
 375 159 375 159 367 165 c 1,119,120
 348 195 348 195 341 236 c 1,121,122
 343 243 343 243 350 245 c 0,123,124
 467 278 467 278 546 316 c 0,125,126
 578 332 578 332 611 352 c 1,127,-1
 617 356 l 1,21,22
EndSplineSet
Validated: 1
EndChar

StartChar: uni2EBF
Encoding: 11967 11967 47
Width: 920
GlyphClass: 2
Flags: MW
LayerCount: 2
Fore
SplineSet
574 713 m 0,0,1
 574 726 574 726 578 739 c 1,2,-1
 600 739 l 2,3,4
 623 739 623 739 638 731.5 c 128,-1,5
 653 724 653 724 653 712 c 0,6,7
 653 703 653 703 648.5 697.5 c 128,-1,8
 644 692 644 692 639 689.5 c 128,-1,9
 634 687 634 687 629.5 679 c 128,-1,10
 625 671 625 671 625 658 c 0,11,12
 625 647 625 647 629 635 c 1,13,-1
 672 635 l 2,14,15
 681 635 681 635 701 634.5 c 128,-1,16
 721 634 721 634 730 634 c 0,17,18
 772 634 772 634 780 636.5 c 128,-1,19
 788 639 788 639 798 658 c 0,20,21
 813 686 813 686 822 686 c 0,22,23
 832 686 832 686 860 657 c 128,-1,24
 888 628 888 628 888 609 c 0,25,26
 888 600 888 600 855.5 596.5 c 128,-1,27
 823 593 823 593 738 593 c 0,28,29
 663 593 663 593 645 591.5 c 128,-1,30
 627 590 627 590 623 583 c 0,31,32
 622 581 622 581 621 534.5 c 128,-1,33
 620 488 620 488 616 481 c 0,34,35
 608 463 608 463 589 463 c 0,36,37
 568 463 568 463 568 507 c 0,38,39
 568 512 568 512 566.5 528.5 c 128,-1,40
 565 545 565 545 565 553 c 2,41,-1
 565 580 l 1,42,-1
 511 580 l 1,43,-1
 511 635 l 1,44,-1
 534 635 l 2,45,46
 548 635 548 635 557.5 633.5 c 128,-1,47
 567 632 567 632 567.5 632 c 128,-1,48
 568 632 568 632 568 635 c 0,49,50
 568 639 568 639 571 670.5 c 128,-1,51
 574 702 574 702 574 713 c 0,0,1
73 634 m 0,52,53
 81 634 81 634 130.5 630.5 c 128,-1,54
 180 627 180 627 237 627 c 0,55,56
 300 627 300 627 302 630 c 0,57,58
 305 634 305 634 305 685 c 128,-1,59
 305 736 305 736 311 738 c 0,60,61
 314 739 314 739 321 739 c 0,62,63
 343 739 343 739 364 730.5 c 128,-1,64
 385 722 385 722 385 711 c 0,65,66
 385 703 385 703 374 692 c 1,67,68
 365 685 365 685 363 681 c 128,-1,69
 361 677 361 677 358 662 c 0,70,71
 355 642 355 642 355 641 c 1,72,73
 356 641 356 641 360.5 642.5 c 128,-1,74
 365 644 365 644 375.5 645.5 c 128,-1,75
 386 647 386 647 397 647 c 2,76,-1
 415 647 l 1,77,-1
 415 630 l 2,78,79
 415 623 415 623 416.5 609 c 128,-1,80
 418 595 418 595 418 591 c 0,81,82
 418 584 418 584 417 582.5 c 128,-1,83
 416 581 416 581 410 581 c 0,84,85
 401 581 401 581 384.5 585 c 128,-1,86
 368 589 368 589 367.5 588.5 c 128,-1,87
 367 588 367 588 364.5 546.5 c 128,-1,88
 362 505 362 505 360 483 c 0,89,90
 358 470 358 470 351.5 462.5 c 128,-1,91
 345 455 345 455 335 455 c 0,92,93
 329 455 329 455 324.5 456.5 c 128,-1,94
 320 458 320 458 317 464 c 2,95,-1
 312 473 l 2,96,97
 311 476 311 476 310.5 488 c 128,-1,98
 310 500 310 500 310 504 c 2,99,-1
 310 525 l 2,100,101
 310 571 310 571 304.5 578.5 c 128,-1,102
 299 586 299 586 264 586 c 0,103,104
 251 586 251 586 189.5 582.5 c 128,-1,105
 128 579 128 579 89 579 c 0,106,107
 70 579 70 579 67 582 c 0,108,109
 63 586 63 586 58.5 600 c 128,-1,110
 54 614 54 614 54 624 c 0,111,112
 54 630 54 630 58 632 c 128,-1,113
 62 634 62 634 73 634 c 0,52,53
EndSplineSet
Validated: 1
EndChar

StartChar: uni2EC0
Encoding: 11968 11968 48
Width: 920
GlyphClass: 2
Flags: MW
LayerCount: 2
Fore
SplineSet
554 628 m 1,0,1
 561 635 561 635 561 667 c 2,2,3
 561 667 561 667 561 680 c 2,4,-1
 561 690 l 2,5,6
 561 710 561 710 563.5 714 c 128,-1,7
 566 718 566 718 576 718 c 0,8,9
 585 718 585 718 600 716 c 2,10,-1
 615 713 l 1,11,-1
 638 704 l 1,12,13
 648 696 648 696 640 682 c 1,14,-1
 619 669 l 1,15,-1
 615 658 l 2,16,17
 614 653 614 653 615 647 c 1,18,19
 615 634 615 634 622 629 c 1,20,21
 646 629 646 629 680 628 c 128,-1,22
 714 627 714 627 724 627 c 0,23,24
 737 627 737 627 747 627.5 c 128,-1,25
 757 628 757 628 764 628 c 0,26,27
 776 628 776 628 790 649 c 128,-1,28
 804 670 804 670 815 670 c 0,29,30
 821 670 821 670 828 665 c 2,31,-1
 868 632 l 1,32,33
 881 619 881 619 881 604 c 1,34,35
 873 591 873 591 763 591 c 0,36,37
 742 591 742 591 710.5 591.5 c 128,-1,38
 679 592 679 592 666 592 c 0,39,40
 630 592 630 592 621.5 587 c 128,-1,41
 613 582 613 582 613 561 c 0,42,43
 613 560 613 560 613.5 555.5 c 128,-1,44
 614 551 614 551 614 549 c 2,45,-1
 614 512 l 1,46,47
 611 483 611 483 583 483 c 0,48,49
 570 483 570 483 565.5 491.5 c 128,-1,50
 561 500 561 500 561 518 c 0,51,52
 561 526 561 526 562 538 c 128,-1,53
 563 550 563 550 563 558 c 0,54,55
 563 575 563 575 560.5 600 c 128,-1,56
 558 625 558 625 554 628 c 1,0,1
349 656 m 1,57,58
 345 646 345 646 345.5 630 c 128,-1,59
 346 614 346 614 348 580.5 c 128,-1,60
 350 547 350 547 350 537 c 2,61,-1
 350 504 l 1,62,63
 346 481 346 481 324 481 c 0,64,65
 308 481 308 481 303 491 c 128,-1,66
 298 501 298 501 298 529 c 2,67,68
 298 529 298 529 298 545 c 2,69,-1
 298 557 l 2,70,71
 298 581 298 581 289.5 586.5 c 128,-1,72
 281 592 281 592 242 592 c 0,73,74
 241 592 241 592 180.5 588 c 128,-1,75
 120 584 120 584 60 584 c 1,76,77
 45 590 45 590 41 624 c 1,78,79
 45 632 45 632 60 632 c 0,80,81
 66 632 66 632 73.5 630.5 c 128,-1,82
 81 629 81 629 82 629 c 0,83,84
 106 629 106 629 149.5 626.5 c 128,-1,85
 193 624 193 624 212 624 c 0,86,87
 277 624 277 624 290 627 c 0,88,89
 297 629 297 629 297 675 c 2,90,91
 297 675 297 675 297 690 c 2,92,-1
 297 713 l 1,93,94
 302 718 302 718 314 718 c 0,95,96
 333 718 333 718 355 710.5 c 128,-1,97
 377 703 377 703 377 692 c 0,98,99
 377 687 377 687 373.5 684 c 128,-1,100
 370 681 370 681 359 674 c 1,101,-1
 352 667 l 1,102,-1
 349 656 l 1,57,58
EndSplineSet
Validated: 1
EndChar

StartChar: uni2EC2
Encoding: 11970 11970 49
Width: 920
GlyphClass: 2
Flags: MW
LayerCount: 2
Fore
SplineSet
291 605 m 0,0,1
 303 605 303 605 321.5 599 c 128,-1,2
 340 593 340 593 344 593 c 2,3,-1
 418 593 l 1,4,-1
 418 699 l 2,5,6
 418 707 418 707 417 714 c 2,7,-1
 409 756 l 1,8,9
 409 763 409 763 413 764 c 1,10,-1
 504 748 l 1,11,-1
 508 741 l 1,12,13
 506 737 506 737 494 730 c 0,14,15
 484 724 484 724 482 722 c 128,-1,16
 480 720 480 720 478 715 c 0,17,18
 475 700 475 700 475 655 c 2,19,-1
 475 636 l 1,20,-1
 475 615 l 1,21,-1
 475 593 l 1,22,-1
 533 593 l 1,23,24
 544 594 544 594 546.5 595.5 c 128,-1,25
 549 597 549 597 555 604.5 c 128,-1,26
 561 612 561 612 563 613.5 c 128,-1,27
 565 615 565 615 570 615 c 0,28,29
 579 615 579 615 587.5 610 c 128,-1,30
 596 605 596 605 607 594 c 2,31,-1
 620 582 l 1,32,33
 623 576 623 576 623.5 573.5 c 128,-1,34
 624 571 624 571 621.5 569.5 c 128,-1,35
 619 568 619 568 611 564 c 2,36,-1
 598 557 l 1,37,-1
 576 536 l 1,38,39
 573 531 573 531 551 486 c 1,40,-1
 480 370 l 1,41,-1
 514 346 l 1,42,-1
 562 415 l 2,43,44
 566 421 566 421 574 421 c 256,45,46
 582 421 582 421 586.5 419 c 128,-1,47
 591 417 591 417 610 406 c 2,48,-1
 635 390 l 1,49,50
 636 385 636 385 631 382 c 128,-1,51
 626 379 626 379 615.5 376.5 c 128,-1,52
 605 374 605 374 584.5 362.5 c 128,-1,53
 564 351 564 351 542 332 c 1,54,-1
 585 285 l 1,55,56
 598 269 598 269 603 255.5 c 128,-1,57
 608 242 608 242 605.5 235.5 c 128,-1,58
 603 229 603 229 600 223.5 c 128,-1,59
 597 218 597 218 594 217 c 2,60,-1
 569 214 l 2,61,62
 567 214 567 214 565 215 c 2,63,-1
 554 227 l 1,64,65
 538 268 538 268 529 281.5 c 128,-1,66
 520 295 520 295 484 337 c 1,67,-1
 484 -54 l 2,68,69
 484 -69 484 -69 482 -72.5 c 128,-1,70
 480 -76 480 -76 467.5 -82.5 c 128,-1,71
 455 -89 455 -89 451 -90 c 128,-1,72
 447 -91 447 -91 436 -91 c 0,73,74
 428 -91 428 -91 420 -88 c 1,75,-1
 413 -81 l 1,76,77
 424 19 424 19 426 54.5 c 128,-1,78
 428 90 428 90 428 201 c 0,79,80
 428 211 428 211 426.5 248.5 c 128,-1,81
 425 286 425 286 425 315 c 1,82,-1
 423 316 l 1,83,84
 396 282 396 282 386 270 c 128,-1,85
 376 258 376 258 360 247 c 128,-1,86
 344 236 344 236 333.5 234.5 c 128,-1,87
 323 233 323 233 294 229 c 0,88,89
 289 229 289 229 288 229.5 c 128,-1,90
 287 230 287 230 288 234 c 1,91,92
 288 239 288 239 291 242 c 0,93,94
 338 281 338 281 357 296.5 c 128,-1,95
 376 312 376 312 403 340 c 128,-1,96
 430 368 430 368 437.5 378.5 c 128,-1,97
 445 389 445 389 464 424 c 128,-1,98
 483 459 483 459 493 482.5 c 128,-1,99
 503 506 503 506 528 566 c 1,100,-1
 383 566 l 2,101,102
 358 566 358 566 341 564.5 c 128,-1,103
 324 563 324 563 319 561.5 c 128,-1,104
 314 560 314 560 311.5 559 c 128,-1,105
 309 558 309 558 308 558 c 0,106,107
 303 558 303 558 301 560 c 128,-1,108
 299 562 299 562 294 574 c 1,109,110
 286 589 286 589 284 604 c 1,111,112
 287 605 287 605 291 605 c 0,0,1
EndSplineSet
Validated: 1
EndChar

StartChar: uni2EC3
Encoding: 11971 11971 50
Width: 920
GlyphClass: 2
Flags: MW
LayerCount: 2
Fore
SplineSet
169 440 m 1,0,1
 166 424 166 424 154.5 416 c 128,-1,2
 143 408 143 408 130 408 c 0,3,4
 125 408 125 408 119 410 c 1,5,-1
 115 420 l 1,6,-1
 115 633 l 1,7,8
 121 637 121 637 128 637 c 0,9,10
 139 637 139 637 153 629 c 2,11,-1
 163 623 l 2,12,13
 166 621 166 621 168 617 c 1,14,15
 168 617 168 617 169 616 c 1,16,-1
 320 616 l 1,17,-1
 320 687 l 1,18,-1
 82 687 l 1,19,-1
 49 679 l 1,20,21
 38 681 38 681 30 724 c 1,22,23
 37 725 37 725 64 719 c 128,-1,24
 91 713 91 713 97 713 c 2,25,-1
 767 713 l 1,26,-1
 796 753 l 2,27,28
 801 759 801 759 808 762 c 1,29,30
 822 764 822 764 847 742 c 128,-1,31
 872 720 872 720 873 720 c 0,32,33
 875 716 875 716 882.5 709.5 c 128,-1,34
 890 703 890 703 890 699 c 0,35,36
 890 694 890 694 880 688 c 1,37,-1
 576 688 l 1,38,-1
 576 616 l 1,39,-1
 729 616 l 1,40,41
 762 648 762 648 767 648 c 0,42,43
 777 648 777 648 796 632 c 2,44,-1
 826 607 l 1,45,46
 827 601 827 601 816 590 c 2,47,-1
 804 579 l 1,48,-1
 798 562 l 1,49,-1
 798 449 l 2,50,51
 798 436 798 436 782 427.5 c 128,-1,52
 766 419 766 419 752 419 c 0,53,54
 743 419 743 419 738 426 c 1,55,-1
 738 440 l 1,56,-1
 169 440 l 1,0,1
738 468 m 1,57,-1
 738 590 l 1,58,-1
 576 590 l 1,59,-1
 576 468 l 1,60,-1
 738 468 l 1,57,-1
516 619 m 1,61,-1
 516 684 l 1,62,-1
 381 684 l 1,63,-1
 381 619 l 1,64,-1
 516 619 l 1,61,-1
516 468 m 1,65,-1
 516 590 l 1,66,-1
 381 590 l 1,67,-1
 381 468 l 1,68,-1
 516 468 l 1,65,-1
320 468 m 1,69,-1
 320 590 l 1,70,-1
 172 590 l 1,71,-1
 172 468 l 1,72,-1
 320 468 l 1,69,-1
EndSplineSet
Validated: 33
EndChar

StartChar: uni2ECA
Encoding: 11978 11978 51
Width: 920
GlyphClass: 2
Flags: MW
LayerCount: 2
Fore
SplineSet
571 745 m 0,0,1
 581 745 581 745 602 723.5 c 128,-1,2
 623 702 623 702 623 691 c 0,3,4
 623 685 623 685 614 675.5 c 128,-1,5
 605 666 605 666 597.5 654 c 128,-1,6
 590 642 590 642 592 627 c 1,7,-1
 592 426 l 1,8,-1
 594 424 l 1,9,10
 592 414 592 414 574 409.5 c 128,-1,11
 556 405 556 405 546 417 c 1,12,-1
 541 447 l 1,13,-1
 535 453 l 1,14,-1
 508 453 l 1,15,16
 501 451 501 451 498.5 446 c 128,-1,17
 496 441 496 441 496 430 c 2,18,-1
 496 401 l 2,19,20
 496 391 496 391 497 356 c 128,-1,21
 498 321 498 321 498 296 c 0,22,23
 498 291 498 291 505 288 c 1,24,-1
 533 288 l 1,25,26
 538 291 538 291 550.5 310.5 c 128,-1,27
 563 330 563 330 572 332 c 1,28,29
 601 318 601 318 638 271 c 1,30,31
 639 258 639 258 632 253.5 c 128,-1,32
 625 249 625 249 602 249 c 0,33,34
 597 249 597 249 579.5 250 c 128,-1,35
 562 251 562 251 550 251 c 2,36,-1
 513 251 l 2,37,38
 507 251 507 251 501.5 246.5 c 128,-1,39
 496 242 496 242 496 232 c 0,40,41
 496 230 496 230 495.5 214.5 c 128,-1,42
 495 199 495 199 495 185 c 0,43,44
 495 176 495 176 495.5 144.5 c 128,-1,45
 496 113 496 113 496 91 c 2,46,-1
 496 47 l 1,47,-1
 499 43 l 1,48,49
 605 86 605 86 614 86 c 1,50,51
 620 85 620 85 627 71 c 1,52,53
 623 57 623 57 560 28.5 c 128,-1,54
 497 0 497 0 427 -27 c 128,-1,55
 357 -54 357 -54 349 -59 c 0,56,57
 346 -61 346 -61 338.5 -79 c 128,-1,58
 331 -97 331 -97 324 -97 c 1,59,60
 314 -99 314 -99 301.5 -75.5 c 128,-1,61
 289 -52 289 -52 282 -26 c 1,62,63
 284 -17 284 -17 305.5 -11 c 128,-1,64
 327 -5 327 -5 331 3 c 1,65,-1
 331 223 l 1,66,-1
 328 236 l 1,67,-1
 328 337 l 1,68,-1
 328 344 l 2,69,70
 328 356 328 356 336 358 c 1,71,72
 414 344 414 344 414 327 c 0,73,74
 414 320 414 320 397 307 c 128,-1,75
 380 294 380 294 380 289 c 0,76,77
 380 282 380 282 379 248.5 c 128,-1,78
 378 215 378 215 378 187 c 0,79,80
 378 125 378 125 379 71.5 c 128,-1,81
 380 18 380 18 380 9 c 0,82,83
 380 6 380 6 384 6 c 1,84,-1
 440 25 l 1,85,-1
 446 34 l 1,86,-1
 446 326 l 1,87,-1
 448 327 l 1,88,-1
 448 422 l 2,89,90
 448 444 448 444 442.5 450 c 128,-1,91
 437 456 437 456 420 456 c 0,92,93
 391 456 391 456 380 446 c 1,94,-1
 380 413 l 1,95,96
 372 393 372 393 346 393 c 0,97,98
 341 393 341 393 338 394 c 128,-1,99
 335 395 335 395 333 400 c 128,-1,100
 331 405 331 405 330 406 c 128,-1,101
 329 407 329 407 328.5 418.5 c 128,-1,102
 328 430 328 430 328 432 c 2,103,-1
 328 451 l 1,104,-1
 328 700 l 2,105,106
 328 707 328 707 327 719 c 128,-1,107
 326 731 326 731 326 736 c 1,108,109
 328 742 328 742 336 742 c 0,110,111
 347 742 347 742 353.5 738 c 128,-1,112
 360 734 360 734 365.5 729.5 c 128,-1,113
 371 725 371 725 394 721.5 c 128,-1,114
 417 718 417 718 455 718 c 0,115,116
 515 718 515 718 525.5 719.5 c 128,-1,117
 536 721 536 721 553 736 c 0,118,119
 562 745 562 745 571 745 c 0,0,1
473 489 m 0,120,121
 533 489 533 489 541 497 c 1,122,123
 541 521 541 521 542.5 557.5 c 128,-1,124
 544 594 544 594 544 607 c 128,-1,125
 544 620 544 620 543 639 c 128,-1,126
 542 658 542 658 542 664 c 0,127,128
 542 667 542 667 541 670 c 1,129,130
 541 679 541 679 533 681 c 1,131,-1
 391 681 l 1,132,-1
 380 674 l 1,133,-1
 380 527 l 2,134,135
 380 498 380 498 384 494 c 1,136,137
 402 494 402 494 431.5 491.5 c 128,-1,138
 461 489 461 489 473 489 c 0,120,121
EndSplineSet
Validated: 1
EndChar

StartChar: uni2ECC
Encoding: 11980 11980 52
Width: 920
GlyphClass: 2
Flags: MW
LayerCount: 2
Fore
SplineSet
252 602 m 0,0,1
 252 579 252 579 231 579 c 0,2,3
 212 579 212 579 198 589.5 c 128,-1,4
 184 600 184 600 169 620.5 c 128,-1,5
 154 641 154 641 148 647 c 2,6,-1
 90 697 l 2,7,8
 81 704 81 704 72 710 c 1,9,-1
 72 718 l 2,10,11
 72 719 72 719 74 720 c 1,12,13
 88 720 88 720 105.5 713 c 128,-1,14
 123 706 123 706 142 696 c 2,15,-1
 164 685 l 1,16,-1
 228 641 l 1,17,18
 252 621 252 621 252 602 c 0,0,1
231 101 m 1,19,20
 291 32 291 32 400.5 7 c 128,-1,21
 510 -18 510 -18 669 -18 c 0,22,23
 734 -18 734 -18 807 -15.5 c 128,-1,24
 880 -13 880 -13 894 -13 c 1,25,26
 897 -16 897 -16 897 -21 c 1,27,28
 896 -24 896 -24 895 -26 c 1,29,30
 883 -30 883 -30 860 -54 c 2,31,-1
 849 -65 l 1,32,33
 825 -65 825 -65 780 -67 c 128,-1,34
 735 -69 735 -69 713 -69 c 0,35,36
 628 -69 628 -69 566 -65.5 c 128,-1,37
 504 -62 504 -62 440 -52.5 c 128,-1,38
 376 -43 376 -43 332 -26.5 c 128,-1,39
 288 -10 288 -10 251 18.5 c 128,-1,40
 214 47 214 47 192 87 c 1,41,42
 157 41 157 41 102 -18 c 1,43,44
 102 -51 102 -51 86 -51 c 0,45,46
 74 -51 74 -51 50.5 -26.5 c 128,-1,47
 27 -2 27 -2 23 0 c 1,48,49
 25 6 25 6 47.5 16.5 c 128,-1,50
 70 27 70 27 109 50 c 128,-1,51
 148 73 148 73 181 105 c 1,52,-1
 181 375 l 1,53,-1
 124 375 l 2,54,55
 68 375 68 375 49 369 c 1,56,57
 42 376 42 376 34 405 c 1,58,59
 43 411 43 411 178 411 c 1,60,61
 186 416 186 416 201.5 434.5 c 128,-1,62
 217 453 217 453 223 453 c 0,63,64
 233 453 233 453 250.5 430.5 c 128,-1,65
 268 408 268 408 268 402 c 1,66,67
 266 397 266 397 250 382 c 1,68,-1
 235 366 l 1,69,-1
 233 326 l 2,70,71
 231 287 231 287 231 255 c 2,72,-1
 231 101 l 1,19,20
EndSplineSet
Validated: 1
EndChar

StartChar: uni2ECD
Encoding: 11981 11981 53
Width: 920
GlyphClass: 2
Flags: MW
LayerCount: 2
Fore
SplineSet
114 731 m 1,0,1
 115 732 115 732 116 735 c 0,2,3
 120 743 120 743 127 743 c 0,4,5
 147 743 147 743 186.5 723 c 128,-1,6
 226 703 226 703 257 679 c 128,-1,7
 288 655 288 655 288 644 c 0,8,9
 288 630 288 630 274 622.5 c 128,-1,10
 260 615 260 615 245 620 c 1,11,12
 235 627 235 627 194 673 c 1,13,-1
 173 694 l 2,14,15
 168 699 168 699 143.5 712.5 c 128,-1,16
 119 726 119 726 114 731 c 1,0,1
237 462 m 0,17,18
 237 439 237 439 217 439 c 256,19,20
 197 439 197 439 183 449.5 c 128,-1,21
 169 460 169 460 154.5 480.5 c 128,-1,22
 140 501 140 501 134 507 c 2,23,-1
 76 557 l 2,24,25
 67 564 67 564 58 570 c 1,26,-1
 58 578 l 2,27,28
 58 579 58 579 60 580 c 1,29,30
 74 580 74 580 91.5 573 c 128,-1,31
 109 566 109 566 128 556 c 2,32,-1
 150 545 l 1,33,-1
 214 501 l 1,34,35
 237 481 237 481 237 462 c 0,17,18
231 101 m 1,36,37
 291 32 291 32 400.5 7 c 128,-1,38
 510 -18 510 -18 669 -18 c 0,39,40
 734 -18 734 -18 807 -15.5 c 128,-1,41
 880 -13 880 -13 894 -13 c 1,42,43
 897 -16 897 -16 897 -21 c 1,44,45
 896 -24 896 -24 895 -26 c 1,46,47
 883 -30 883 -30 860 -54 c 2,48,-1
 849 -65 l 1,49,50
 825 -65 825 -65 780 -67 c 128,-1,51
 735 -69 735 -69 713 -69 c 0,52,53
 628 -69 628 -69 566 -65.5 c 128,-1,54
 504 -62 504 -62 440 -52.5 c 128,-1,55
 376 -43 376 -43 332 -26.5 c 128,-1,56
 288 -10 288 -10 251 18.5 c 128,-1,57
 214 47 214 47 192 87 c 1,58,59
 157 41 157 41 102 -18 c 1,60,61
 102 -51 102 -51 86 -51 c 0,62,63
 74 -51 74 -51 50.5 -26.5 c 128,-1,64
 27 -2 27 -2 23 0 c 1,65,66
 25 6 25 6 45 16.5 c 128,-1,67
 65 27 65 27 102.5 50 c 128,-1,68
 140 73 140 73 173 105 c 1,69,-1
 173 289 l 1,70,71
 166 289 166 289 152.5 289.5 c 128,-1,72
 139 290 139 290 134 290 c 0,73,74
 85 290 85 290 55 281 c 1,75,76
 44 292 44 292 35 326 c 1,77,78
 40 329 40 329 76.5 321.5 c 128,-1,79
 113 314 113 314 152 314 c 2,80,81
 152 314 152 314 157 314 c 2,82,-1
 164 314 l 1,83,84
 171 319 171 319 184 333 c 128,-1,85
 197 347 197 347 203 347 c 0,86,87
 214 347 214 347 237 328.5 c 128,-1,88
 260 310 260 310 260 305 c 0,89,90
 260 299 260 299 245.5 282 c 128,-1,91
 231 265 231 265 231 255 c 2,92,-1
 231 101 l 1,36,37
EndSplineSet
Validated: 33
EndChar

StartChar: uni2ECE
Encoding: 11982 11982 54
Width: 920
GlyphClass: 2
Flags: MW
LayerCount: 2
Fore
SplineSet
81 522 m 2,0,-1
 60 570 l 1,1,-1
 231 570 l 1,2,-1
 270 597 l 1,3,-1
 306 555 l 1,4,-1
 258 519 l 1,5,-1
 201 378 l 1,6,-1
 267 378 l 1,7,-1
 306 411 l 1,8,-1
 333 357 l 1,9,-1
 303 327 l 1,10,11
 301 293 301 293 303 302.5 c 128,-1,12
 305 312 305 312 298 286.5 c 128,-1,13
 291 261 291 261 279 201 c 1,14,15
 270 193 270 193 252 166 c 2,16,-1
 234 138 l 1,17,-1
 186 90 l 1,18,-1
 173 105 l 1,19,20
 141 73 141 73 103.5 50 c 128,-1,21
 66 27 66 27 45.5 16.5 c 128,-1,22
 25 6 25 6 23 0 c 1,23,24
 27 -2 27 -2 50.5 -26.5 c 128,-1,25
 74 -51 74 -51 86 -51 c 0,26,27
 102 -51 102 -51 102 -18 c 1,28,29
 143 42 143 42 177 69 c 1,30,31
 190 38 190 38 216.5 14.5 c 128,-1,32
 243 -9 243 -9 284 -24 c 128,-1,33
 325 -39 325 -39 367.5 -48 c 128,-1,34
 410 -57 410 -57 472.5 -61.5 c 128,-1,35
 535 -66 535 -66 586 -67.5 c 128,-1,36
 637 -69 637 -69 713 -69 c 0,37,38
 735 -69 735 -69 780 -67 c 128,-1,39
 825 -65 825 -65 849 -65 c 1,40,-1
 860 -54 l 2,41,42
 883 -30 883 -30 895 -26 c 1,43,44
 896 -24 896 -24 897 -21 c 1,45,46
 897 -16 897 -16 894 -13 c 1,47,48
 880 -13 880 -13 807 -15.5 c 128,-1,49
 734 -18 734 -18 669 -18 c 0,50,51
 461 -18 461 -18 342.5 11 c 128,-1,52
 224 40 224 40 173 105 c 1,53,54
 193 132 193 132 207.5 163.5 c 128,-1,55
 222 195 222 195 228.5 217.5 c 128,-1,56
 235 240 235 240 244.5 278.5 c 128,-1,57
 254 317 254 317 261 339 c 1,58,-1
 201 348 l 1,59,-1
 189 330 l 1,60,-1
 141 339 l 1,61,-1
 204 528 l 1,62,-1
 144 522 l 2,63,64
 83 515 83 515 81 522 c 2,0,-1
92 753 m 1,65,66
 93 755 93 755 95 757 c 0,67,68
 99 765 99 765 106 765 c 0,69,70
 126 765 126 765 165.5 745 c 128,-1,71
 205 725 205 725 236 701 c 128,-1,72
 267 677 267 677 267 666 c 0,73,74
 267 652 267 652 253 644.5 c 128,-1,75
 239 637 239 637 224 642 c 0,76,77
 222 643 222 643 172 695 c 1,78,-1
 152 717 l 2,79,80
 147 722 147 722 122 735 c 128,-1,81
 97 748 97 748 92 753 c 1,65,66
EndSplineSet
Validated: 37
EndChar

StartChar: uni2ED0
Encoding: 11984 11984 56
Width: 920
GlyphClass: 2
Flags: MW
LayerCount: 2
Fore
SplineSet
216 -78 m 0,0,1
 210 -78 210 -78 207.5 -76 c 128,-1,2
 205 -74 205 -74 194.5 -63.5 c 128,-1,3
 184 -53 184 -53 182.5 -50 c 128,-1,4
 181 -47 181 -47 181 -40 c 0,5,6
 181 -38 181 -38 172 -28 c 0,7,8
 165 -20 165 -20 164.5 -18 c 128,-1,9
 164 -16 164 -16 165 -12 c 1,10,-1
 195 0 l 1,11,-1
 195 123 l 2,12,13
 195 254 195 254 192 257 c 1,14,15
 188 259 188 259 147 259 c 0,16,17
 122 259 122 259 103 258 c 128,-1,18
 84 257 84 257 78 256.5 c 128,-1,19
 72 256 72 256 69 256.5 c 128,-1,20
 66 257 66 257 64 259 c 0,21,22
 48 278 48 278 45.5 281.5 c 128,-1,23
 43 285 43 285 45 288 c 128,-1,24
 47 291 47 291 119 290 c 0,25,26
 173 289 173 289 182.5 289.5 c 128,-1,27
 192 290 192 290 195 294 c 0,28,29
 197 297 197 297 197 356 c 128,-1,30
 197 415 197 415 196 425 c 1,31,32
 194 432 194 432 193 434 c 128,-1,33
 192 436 192 436 185 438 c 256,34,35
 178 440 178 440 152 440 c 0,36,37
 130 440 130 440 125 439.5 c 128,-1,38
 120 439 120 439 114 434 c 1,39,40
 106 429 106 429 86 400 c 0,41,42
 52 351 52 351 45 343 c 128,-1,43
 38 335 38 335 30 335 c 0,44,45
 28 335 28 335 28 337 c 0,46,47
 28 341 28 341 45 369 c 128,-1,48
 62 397 62 397 95 466 c 128,-1,49
 128 535 128 535 158 623 c 0,50,51
 184 700 184 700 196 750 c 0,52,53
 198 758 198 758 199.5 760.5 c 128,-1,54
 201 763 201 763 203.5 763.5 c 128,-1,55
 206 764 206 764 208 766 c 0,56,57
 213 770 213 770 216 770 c 0,58,59
 222 770 222 770 246 757 c 0,60,61
 265 747 265 747 270 743.5 c 128,-1,62
 275 740 275 740 286 729 c 1,63,64
 270 719 270 719 263 709 c 128,-1,65
 256 699 256 699 239 663 c 0,66,67
 224 630 224 630 222.5 625.5 c 128,-1,68
 221 621 221 621 225 618 c 0,69,70
 228 615 228 615 255 615 c 0,71,72
 272 615 272 615 287.5 613 c 128,-1,73
 303 611 303 611 309 610.5 c 128,-1,74
 315 610 315 610 322 613 c 128,-1,75
 329 616 329 616 338 624 c 0,76,77
 357 643 357 643 364 643 c 0,78,79
 375 643 375 643 379.5 641.5 c 128,-1,80
 384 640 384 640 397.5 630.5 c 128,-1,81
 411 621 411 621 414.5 618 c 128,-1,82
 418 615 418 615 426 605 c 256,83,84
 434 595 434 595 434 593.5 c 128,-1,85
 434 592 434 592 429 590 c 1,86,87
 429 586 429 586 310 586 c 2,88,-1
 206 586 l 1,89,90
 195 576 195 576 189 567 c 128,-1,91
 183 558 183 558 170.5 533.5 c 128,-1,92
 158 509 158 509 144 485 c 0,93,94
 137 473 137 473 138 472 c 128,-1,95
 139 471 139 471 144 471 c 1,96,97
 152 468 152 468 246 468 c 0,98,99
 265 468 265 468 281 467 c 128,-1,100
 297 466 297 466 301 465.5 c 128,-1,101
 305 465 305 465 310 467 c 128,-1,102
 315 469 315 469 323 476 c 0,103,104
 337 489 337 489 344 489 c 0,105,106
 358 489 358 489 363 486.5 c 128,-1,107
 368 484 368 484 386 468 c 0,108,109
 408 448 408 448 406 445 c 0,110,111
 405 444 405 444 400 442 c 1,112,113
 400 440 400 440 397 439 c 128,-1,114
 394 438 394 438 329 438 c 0,115,116
 283 438 283 438 274.5 437 c 128,-1,117
 266 436 266 436 261 431 c 0,118,119
 260 431 260 431 257.5 429.5 c 128,-1,120
 255 428 255 428 253.5 425.5 c 128,-1,121
 252 423 252 423 250 417 c 128,-1,122
 248 411 248 411 247 397 c 128,-1,123
 246 383 246 383 246 363 c 0,124,125
 246 299 246 299 249 297 c 0,126,127
 251 296 251 296 268 292 c 128,-1,128
 285 288 285 288 291 288 c 0,129,130
 309 288 309 288 314.5 290 c 128,-1,131
 320 292 320 292 336.5 303 c 128,-1,132
 353 314 353 314 356.5 316 c 128,-1,133
 360 318 360 318 366 318 c 0,134,135
 375 318 375 318 386.5 312 c 128,-1,136
 398 306 398 306 406.5 298 c 128,-1,137
 415 290 415 290 420 282 c 0,138,139
 424 276 424 276 424 274.5 c 128,-1,140
 424 273 424 273 421.5 269 c 128,-1,141
 419 265 419 265 417 264.5 c 128,-1,142
 415 264 415 264 405 265 c 1,143,144
 405 260 405 260 397 259 c 0,145,146
 389 259 389 259 328 261 c 0,147,148
 271 263 271 263 260.5 263 c 128,-1,149
 250 263 250 263 246 259 c 0,150,151
 245 257 245 257 245 249.5 c 128,-1,152
 245 242 245 242 245.5 209 c 128,-1,153
 246 176 246 176 246 139 c 0,154,155
 246 29 246 29 249 28 c 0,156,157
 254 26 254 26 264 33 c 128,-1,158
 274 40 274 40 330 83 c 0,159,160
 403 140 403 140 405 140 c 0,161,162
 409 140 409 140 396 126 c 1,163,164
 392 120 392 120 377 103 c 1,165,-1
 318 18 l 1,166,167
 259 -50 259 -50 244 -64 c 0,168,169
 232 -74 232 -74 228.5 -76 c 128,-1,170
 225 -78 225 -78 216 -78 c 0,0,1
EndSplineSet
Validated: 33
EndChar

StartChar: uni2ED2
Encoding: 11986 11986 58
Width: 920
GlyphClass: 2
Flags: MW
LayerCount: 2
Fore
SplineSet
264 7 m 256,0,1
 264 20 264 20 274.5 20.5 c 128,-1,2
 285 21 285 21 287 18 c 1,3,-1
 318 27 l 1,4,-1
 358 282 l 1,5,6
 354 282 354 282 346 282.5 c 128,-1,7
 338 283 338 283 334 283 c 0,8,9
 304 283 304 283 286 275 c 1,10,11
 274 283 274 283 264 321 c 1,12,-1
 268 324 l 1,13,14
 285 317 285 317 331 308 c 1,15,-1
 331 721 l 1,16,17
 337 724 337 724 344 724 c 0,18,19
 359 724 359 724 382 713 c 1,20,-1
 390 704 l 1,21,-1
 539 704 l 1,22,-1
 561 742 l 1,23,24
 567 748 567 748 574 748 c 0,25,26
 588 748 588 748 641 695 c 1,27,28
 642 690 642 690 638 685 c 128,-1,29
 634 680 634 680 629 680 c 2,30,-1
 392 680 l 1,31,-1
 392 572 l 1,32,-1
 522 572 l 1,33,34
 533 593 533 593 552 615 c 1,35,-1
 575 611 l 1,36,-1
 626 566 l 1,37,38
 626 555 626 555 615 549 c 1,39,-1
 392 549 l 1,40,-1
 392 431 l 1,41,-1
 517 431 l 1,42,-1
 542 468 l 1,43,44
 555 482 555 482 569 471 c 1,45,-1
 622 422 l 1,46,47
 619 408 619 408 609 408 c 2,48,-1
 392 408 l 1,49,-1
 392 308 l 1,50,-1
 551 308 l 1,51,52
 552 309 552 309 559 321.5 c 128,-1,53
 566 334 566 334 574 343.5 c 128,-1,54
 582 353 582 353 590 353 c 0,55,56
 600 353 600 353 627 328.5 c 128,-1,57
 654 304 654 304 656 303 c 1,58,59
 653 287 653 287 641 285 c 1,60,-1
 426 285 l 1,61,-1
 360 38 l 1,62,63
 398 38 398 38 544 96 c 1,64,-1
 583 112 l 1,65,66
 564 165 564 165 530 219 c 1,67,68
 534 225 534 225 554 225 c 2,69,-1
 559 225 l 1,70,-1
 589 186 l 2,71,72
 656 100 656 100 656 32 c 0,73,74
 656 18 656 18 653 3 c 1,75,76
 647 0 647 0 634 0 c 0,77,78
 613 0 613 0 606 26 c 1,79,-1
 595 88 l 1,80,81
 593 92 593 92 592 95 c 1,82,83
 481 23 481 23 331 -20 c 1,84,85
 328 -22 328 -22 321 -41 c 128,-1,86
 314 -60 314 -60 306 -60 c 0,87,88
 303 -60 303 -60 299 -59 c 1,89,90
 285 -44 285 -44 274.5 -25 c 128,-1,91
 264 -6 264 -6 264 7 c 256,0,1
EndSplineSet
Validated: 1
EndChar

StartChar: uni2EDE
Encoding: 11998 11998 60
Width: 920
GlyphClass: 2
Flags: MW
LayerCount: 2
Fore
SplineSet
658 579 m 1,0,1
 643 567 643 567 630 567 c 0,2,3
 626 567 626 567 622 568 c 1,4,5
 586 613 586 613 492 699 c 1,6,-1
 402 577 l 1,7,8
 340 498 340 498 280 472 c 1,9,10
 270 470 270 470 266 470 c 1,11,12
 262 476 262 476 262 478 c 1,13,14
 352 550 352 550 410 680 c 1,15,-1
 440 754 l 2,16,17
 441 757 441 757 442 759 c 0,18,19
 447 767 447 767 460 767 c 0,20,21
 477 767 477 767 505 756 c 2,22,-1
 532 745 l 2,23,24
 537 744 537 744 536 730 c 1,25,-1
 514 718 l 1,26,27
 523 710 523 710 548 694 c 2,28,-1
 594 665 l 2,29,30
 616 651 616 651 635.5 628 c 128,-1,31
 655 605 655 605 658 579 c 1,0,1
632 540 m 1,32,33
 633 531 633 531 618 521 c 1,34,-1
 474 521 l 2,35,36
 450 521 450 521 422 514 c 1,37,-1
 410 516 l 1,38,-1
 394 559 l 1,39,40
 399 559 399 559 455 552.5 c 128,-1,41
 511 546 511 546 526 546 c 1,42,-1
 533 558 l 2,43,44
 540 570 540 570 549.5 581 c 128,-1,45
 559 592 559 592 566 592 c 0,46,47
 571 592 571 592 576 588 c 2,48,-1
 632 540 l 1,32,33
624 213 m 2,49,50
 624 203 624 203 609 195 c 128,-1,51
 594 187 594 187 580 187 c 0,52,53
 569 187 569 187 566 194 c 1,54,-1
 566 222 l 1,55,-1
 386 222 l 1,56,-1
 386 127 l 1,57,-1
 536 127 l 1,58,-1
 562 163 l 2,59,60
 569 172 569 172 577 172 c 0,61,62
 590 172 590 172 640 119 c 1,63,64
 642 114 642 114 638.5 109 c 128,-1,65
 635 104 635 104 632 103 c 1,66,-1
 386 103 l 1,67,-1
 386 0 l 1,68,-1
 542 0 l 1,69,70
 543 1 543 1 549 13 c 128,-1,71
 555 25 555 25 563.5 35.5 c 128,-1,72
 572 46 572 46 581 46 c 0,73,74
 596 46 596 46 648 -6 c 1,75,76
 649 -11 649 -11 644.5 -16 c 128,-1,77
 640 -21 640 -21 634 -21 c 2,78,-1
 386 -21 l 1,79,-1
 386 -70 l 1,80,81
 378 -99 378 -99 343 -99 c 0,82,83
 338 -99 338 -99 334 -98 c 1,84,-1
 328 -89 l 1,85,-1
 328 480 l 1,86,87
 333 486 333 486 342 486 c 0,88,89
 348 486 348 486 355.5 483.5 c 128,-1,90
 363 481 363 481 370 477.5 c 128,-1,91
 377 474 377 474 378 474 c 2,92,-1
 386 465 l 1,93,-1
 554 465 l 1,94,-1
 586 496 l 2,95,96
 589 498 589 498 593 498 c 0,97,98
 602 498 602 498 616 487 c 1,99,-1
 615 488 l 2,100,101
 616 488 616 488 634 473 c 128,-1,102
 652 458 652 458 652 454 c 0,103,104
 652 448 652 448 642 438 c 2,105,-1
 630 426 l 1,106,-1
 624 410 l 1,107,-1
 624 213 l 2,49,50
564 360 m 1,108,-1
 564 439 l 1,109,-1
 386 439 l 1,110,-1
 386 360 l 1,111,-1
 564 360 l 1,108,-1
564 252 m 1,112,-1
 564 330 l 1,113,-1
 386 330 l 1,114,-1
 386 252 l 1,115,-1
 564 252 l 1,112,-1
EndSplineSet
Validated: 1
EndChar

StartChar: uni2F02
Encoding: 12034 12034 63
Width: 920
GlyphClass: 2
Flags: MW
LayerCount: 2
Fore
SplineSet
380 497 m 1,0,1
 370 513 370 513 359 530 c 0,2,3
 353 539 353 539 353 541 c 128,-1,4
 353 543 353 543 359 547 c 0,5,6
 361 548 361 548 362 549 c 0,7,8
 370 555 370 555 374 555 c 128,-1,9
 378 555 378 555 392 550 c 0,10,11
 408 545 408 545 415 539 c 128,-1,12
 422 533 422 533 451 503 c 0,13,14
 478 474 478 474 490.5 459 c 128,-1,15
 503 444 503 444 515 427.5 c 128,-1,16
 527 411 527 411 541 394 c 0,17,18
 566 364 566 364 564 357 c 1,19,20
 574 338 574 338 574 331 c 128,-1,21
 574 324 574 324 561 300 c 0,22,23
 556 290 556 290 553 286.5 c 128,-1,24
 550 283 550 283 537 270.5 c 128,-1,25
 524 258 524 258 520.5 256.5 c 128,-1,26
 517 255 517 255 510 258 c 0,27,28
 500 262 500 262 493.5 273.5 c 128,-1,29
 487 285 487 285 458 350 c 0,30,31
 437 398 437 398 426 420.5 c 128,-1,32
 415 443 415 443 412 447 c 128,-1,33
 409 451 409 451 400.5 463 c 128,-1,34
 392 475 392 475 380 497 c 1,0,1
EndSplineSet
Validated: 33
EndChar

StartChar: uni2F03
Encoding: 12035 12035 64
Width: 920
GlyphClass: 2
Flags: MW
LayerCount: 2
Fore
SplineSet
625 724 m 1,0,1
 625 722 625 722 627 721 c 0,2,3
 631 719 631 719 632 716 c 1,4,5
 632 712 632 712 630.5 711 c 128,-1,6
 629 710 629 710 620.5 706 c 128,-1,7
 612 702 612 702 602 694 c 0,8,9
 594 688 594 688 593 685.5 c 128,-1,10
 592 683 592 683 592 674 c 1,11,12
 588 658 588 658 588 624 c 2,13,-1
 588 456 l 2,14,15
 588 299 588 299 581 258.5 c 128,-1,16
 574 218 574 218 530 129 c 1,17,18
 504 73 504 73 492.5 57 c 128,-1,19
 481 41 481 41 440.5 3 c 128,-1,20
 400 -35 400 -35 381 -47.5 c 128,-1,21
 362 -60 362 -60 289 -94 c 1,22,23
 285 -89 285 -89 277 -92 c 1,24,25
 274 -90 274 -90 272 -85 c 1,26,-1
 273 -82 l 1,27,-1
 274 -74 l 1,28,29
 366 -19 366 -19 388 2 c 128,-1,30
 410 23 410 23 453 95 c 1,31,32
 512 199 512 199 522 240 c 128,-1,33
 532 281 532 281 532 421 c 1,34,-1
 530 539 l 1,35,-1
 527 670 l 1,36,-1
 527 730 l 2,37,38
 527 740 527 740 531 743 c 1,39,-1
 625 724 l 1,0,1
EndSplineSet
Validated: 1
EndChar

StartChar: uni2F04
Encoding: 12036 12036 65
Width: 920
GlyphClass: 2
Flags: MW
LayerCount: 2
Fore
SplineSet
813 210 m 0,0,1
 813 177 813 177 807 126 c 128,-1,2
 801 75 801 75 801 53 c 0,3,4
 801 44 801 44 803 40.5 c 128,-1,5
 805 37 805 37 815.5 25 c 128,-1,6
 826 13 826 13 828 10 c 128,-1,7
 830 7 830 7 830 2 c 0,8,9
 830 -29 830 -29 818 -38 c 0,10,11
 795 -55 795 -55 650 -57 c 0,12,13
 590 -58 590 -58 404 -58 c 0,14,15
 344 -58 344 -58 308 -56 c 2,16,-1
 208 -50 l 1,17,18
 169 -45 169 -45 158.5 -41.5 c 128,-1,19
 148 -38 148 -38 123 -21 c 128,-1,20
 98 -4 98 -4 94 3 c 128,-1,21
 90 10 90 10 90 38 c 0,22,23
 90 64 90 64 96.5 77 c 128,-1,24
 103 90 103 90 143 146 c 0,25,26
 147 151 147 151 154 160 c 0,27,28
 180 197 180 197 196.5 218 c 128,-1,29
 213 239 213 239 256 287 c 128,-1,30
 299 335 299 335 376 418 c 0,31,32
 466 514 466 514 520 567 c 2,33,-1
 571 617 l 2,34,35
 575 621 575 621 588 628 c 2,36,-1
 613 642 l 2,37,38
 626 650 626 650 627 650 c 1,39,40
 627 656 627 656 622.5 657.5 c 128,-1,41
 618 659 618 659 616 656 c 1,42,-1
 579 650 l 1,43,44
 548 649 548 649 419 649 c 0,45,46
 169 649 169 649 116 647 c 1,47,48
 107 651 107 651 104.5 654.5 c 128,-1,49
 102 658 102 658 96 674.5 c 128,-1,50
 90 691 90 691 90.5 694 c 128,-1,51
 91 697 91 697 100 697 c 2,52,-1
 233 686 l 1,53,54
 259 685 259 685 323.5 685 c 128,-1,55
 388 685 388 685 491 686 c 1,56,-1
 598 685 l 1,57,58
 606 686 606 686 612 686 c 0,59,60
 618 687 618 687 632 701 c 128,-1,61
 646 715 646 715 656 715 c 0,62,63
 663 715 663 715 667.5 711.5 c 128,-1,64
 672 708 672 708 691 685.5 c 128,-1,65
 710 663 710 663 713.5 658.5 c 128,-1,66
 717 654 717 654 717 649 c 2,67,-1
 717 644 l 1,68,69
 714 632 714 632 709 630 c 128,-1,70
 704 628 704 628 677 628 c 1,71,-1
 655 626 l 1,72,-1
 655 625 l 1,73,74
 646 622 646 622 623 598 c 1,75,76
 454 439 454 439 398.5 379 c 128,-1,77
 343 319 343 319 183 118 c 1,78,79
 154 84 154 84 149.5 75.5 c 128,-1,80
 145 67 145 67 145 48 c 0,81,82
 145 34 145 34 147 30.5 c 128,-1,83
 149 27 149 27 162 18.5 c 128,-1,84
 175 10 175 10 183.5 7.5 c 128,-1,85
 192 5 192 5 233 0 c 0,86,87
 287 -7 287 -7 383 -7 c 0,88,89
 659 -7 659 -7 698 0 c 0,90,91
 725 5 725 5 743 25 c 0,92,93
 743 26 743 26 745 28 c 0,94,95
 751 35 751 35 753.5 43 c 128,-1,96
 756 51 756 51 757.5 62.5 c 128,-1,97
 759 74 759 74 764.5 107 c 128,-1,98
 770 140 770 140 780 182 c 0,99,100
 787 214 787 214 789.5 219.5 c 128,-1,101
 792 225 792 225 802 225 c 1,102,103
 813 217 813 217 813 210 c 0,0,1
EndSplineSet
Validated: 1
EndChar

StartChar: uni2F05
Encoding: 12037 12037 66
Width: 920
GlyphClass: 2
Flags: MW
LayerCount: 2
Fore
SplineSet
574 25 m 2,0,1
 574 17 574 17 573.5 4.5 c 128,-1,2
 573 -8 573 -8 573 -16 c 0,3,4
 573 -36 573 -36 569.5 -42 c 128,-1,5
 566 -48 566 -48 546 -64 c 128,-1,6
 526 -80 526 -80 519.5 -83 c 128,-1,7
 513 -86 513 -86 495 -86 c 0,8,9
 487 -86 487 -86 480 -84 c 1,10,11
 469 -54 469 -54 458.5 -47.5 c 128,-1,12
 448 -41 448 -41 398 -32 c 1,13,-1
 354 -23 l 1,14,15
 342 -18 342 -18 340 -16 c 128,-1,16
 338 -14 338 -14 338 -3 c 0,17,18
 338 6 338 6 342 7.5 c 128,-1,19
 346 9 346 9 369 9 c 0,20,21
 388 9 388 9 416 5.5 c 128,-1,22
 444 2 444 2 471 2 c 0,23,24
 492 2 492 2 497 3 c 128,-1,25
 502 4 502 4 510.5 10 c 128,-1,26
 519 16 519 16 520.5 20.5 c 128,-1,27
 522 25 522 25 522 46 c 0,28,29
 522 53 522 53 521 71 c 128,-1,30
 520 89 520 89 521 114 c 1,31,-1
 521 409 l 2,32,33
 521 433 521 433 518 470 c 128,-1,34
 515 507 515 507 515 523 c 1,35,36
 516 525 516 525 516 540 c 0,37,38
 516 551 516 551 515.5 576 c 128,-1,39
 515 601 515 601 515 617 c 0,40,41
 515 679 515 679 520 679 c 1,42,43
 521 680 521 680 525 678 c 1,44,-1
 582 669 l 1,45,-1
 582 449 l 1,46,-1
 577 449 l 1,47,48
 574 428 574 428 574 329 c 2,49,-1
 574 25 l 2,0,1
EndSplineSet
Validated: 33
EndChar

StartChar: uni2F06
Encoding: 12038 12038 67
Width: 920
GlyphClass: 2
Flags: MW
LayerCount: 2
Fore
SplineSet
788 577 m 1,0,1
 792 564 792 564 791 561.5 c 128,-1,2
 790 559 790 559 776 556 c 0,3,4
 759 552 759 552 703 552 c 0,5,6
 666 552 666 552 612 553 c 1,7,-1
 595 554 l 1,8,9
 249 554 249 554 151 551 c 1,10,11
 135 559 135 559 131.5 565.5 c 128,-1,12
 128 572 128 572 124 601 c 1,13,-1
 131 607 l 1,14,-1
 199 597 l 1,15,16
 312 592 312 592 461 592 c 0,17,18
 577 592 577 592 650 594 c 1,19,20
 658 599 658 599 676.5 623 c 128,-1,21
 695 647 695 647 704 655 c 1,22,23
 714 655 714 655 724 646.5 c 128,-1,24
 734 638 734 638 780 587 c 1,25,-1
 788 577 l 1,0,1
40 58 m 0,26,27
 40 63 40 63 41 64 c 128,-1,28
 42 65 42 65 49 65 c 0,29,30
 71 65 71 65 142 57 c 1,31,-1
 151 57 l 1,32,33
 182 56 182 56 341 56 c 0,34,35
 605 56 605 56 738 57 c 1,36,37
 748 64 748 64 766 89.5 c 128,-1,38
 784 115 784 115 792 122 c 1,39,-1
 802 121 l 1,40,-1
 861 65 l 1,41,42
 880 42 880 42 880 35 c 0,43,44
 880 27 880 27 879 24.5 c 128,-1,45
 878 22 878 22 870 18 c 1,46,-1
 211 17 l 1,47,-1
 121 15 l 1,48,-1
 73 11 l 2,49,50
 63 11 63 11 55 16 c 1,51,52
 40 50 40 50 40 58 c 0,26,27
EndSplineSet
Validated: 1
EndChar

StartChar: uni2F07
Encoding: 12039 12039 68
Width: 920
GlyphClass: 2
Flags: MW
LayerCount: 2
Fore
SplineSet
63 448 m 0,0,1
 72 448 72 448 169.5 441 c 128,-1,2
 267 434 267 434 293 434 c 0,3,4
 381 434 381 434 397.5 435 c 128,-1,5
 414 436 414 436 427 442 c 0,6,7
 438 446 438 446 439.5 451 c 128,-1,8
 441 456 441 456 441 482 c 0,9,10
 441 488 441 488 440 503.5 c 128,-1,11
 439 519 439 519 439 538 c 2,12,-1
 439 615 l 1,13,14
 451 621 451 621 459 621 c 0,15,16
 477 621 477 621 498 614 c 1,17,18
 514 610 514 610 516.5 607 c 128,-1,19
 519 604 519 604 519 594 c 0,20,21
 519 583 519 583 517 579 c 128,-1,22
 515 575 515 575 502 562 c 2,23,-1
 491 552 l 1,24,-1
 491 504 l 2,25,26
 491 469 491 469 492 461 c 128,-1,27
 493 453 493 453 501 443 c 1,28,-1
 691 443 l 2,29,30
 749 443 749 443 759 446.5 c 128,-1,31
 769 450 769 450 787 477 c 1,32,-1
 798 492 l 2,33,34
 807 504 807 504 815 504 c 0,35,36
 826 504 826 504 831.5 500 c 128,-1,37
 837 496 837 496 859.5 473 c 128,-1,38
 882 450 882 450 885.5 443.5 c 128,-1,39
 889 437 889 437 889 421 c 0,40,41
 889 416 889 416 887.5 413.5 c 128,-1,42
 886 411 886 411 874.5 408.5 c 128,-1,43
 863 406 863 406 839 406 c 2,44,-1
 812 406 l 2,45,46
 807 406 807 406 659.5 405 c 128,-1,47
 512 404 512 404 419 404 c 0,48,49
 64 404 64 404 64 400 c 1,50,51
 55 400 55 400 53 401.5 c 128,-1,52
 51 403 51 403 47 412 c 0,53,54
 42 425 42 425 42 439 c 0,55,56
 42 443 42 443 42.5 444 c 128,-1,57
 43 445 43 445 48 446.5 c 128,-1,58
 53 448 53 448 63 448 c 0,0,1
EndSplineSet
Validated: 1
EndChar

StartChar: uni2F09
Encoding: 12041 12041 70
Width: 920
GlyphClass: 2
Flags: MW
LayerCount: 2
Fore
SplineSet
619 667 m 1,0,1
 619 647 619 647 604.5 630.5 c 128,-1,2
 590 614 590 614 590 601 c 2,3,-1
 589 104 l 2,4,5
 589 72 589 72 592 64.5 c 128,-1,6
 595 57 595 57 613 44 c 1,7,8
 678 32 678 32 720 32 c 0,9,10
 746 32 746 32 767 39 c 1,11,12
 778 44 778 44 781 51.5 c 128,-1,13
 784 59 784 59 788 100 c 0,14,15
 794 150 794 150 796 193 c 128,-1,16
 798 236 798 236 798 256.5 c 128,-1,17
 798 277 798 277 800 284 c 1,18,19
 815 284 815 284 817.5 282.5 c 128,-1,20
 820 281 820 281 820 273 c 2,21,-1
 826 92 l 2,22,23
 827 85 827 85 837.5 58 c 128,-1,24
 848 31 848 31 848 18 c 0,25,26
 848 -10 848 -10 844 -16 c 128,-1,27
 840 -22 840 -22 814.5 -32.5 c 128,-1,28
 789 -43 789 -43 774.5 -44.5 c 128,-1,29
 760 -46 760 -46 697 -46 c 0,30,31
 630 -46 630 -46 612 -43 c 128,-1,32
 594 -40 594 -40 554 -20 c 1,33,34
 540 1 540 1 538 13.5 c 128,-1,35
 536 26 536 26 536 81 c 2,36,-1
 536 598 l 1,37,-1
 533 675 l 1,38,39
 534 702 534 702 535.5 706.5 c 128,-1,40
 537 711 537 711 546 711 c 0,41,42
 557 711 557 711 562.5 709 c 128,-1,43
 568 707 568 707 587.5 693.5 c 128,-1,44
 607 680 607 680 611 677 c 128,-1,45
 615 674 615 674 619 667 c 1,0,1
293 512 m 0,46,47
 293 531 293 531 292 606 c 128,-1,48
 291 681 291 681 291 700 c 1,49,50
 297 710 297 710 300 712 c 128,-1,51
 303 714 303 714 315 714 c 128,-1,52
 327 714 327 714 346 705 c 0,53,54
 359 698 359 698 362.5 695.5 c 128,-1,55
 366 693 366 693 371 684 c 1,56,57
 370 674 370 674 358 647 c 1,58,-1
 353 624 l 2,59,60
 352 618 352 618 352 612 c 2,61,-1
 356 519 l 1,62,-1
 356 518 l 2,63,64
 356 448 356 448 356 418.5 c 128,-1,65
 356 389 356 389 353 343 c 128,-1,66
 350 297 350 297 349 283 c 128,-1,67
 348 269 348 269 338.5 237 c 128,-1,68
 329 205 329 205 323 196 c 128,-1,69
 317 187 317 187 297.5 158 c 128,-1,70
 278 129 278 129 264.5 114 c 128,-1,71
 251 99 251 99 219 62 c 0,72,73
 180 18 180 18 169.5 8 c 128,-1,74
 159 -2 159 -2 136.5 -20 c 128,-1,75
 114 -38 114 -38 106 -41 c 128,-1,76
 98 -44 98 -44 75 -45 c 1,77,-1
 72 -21 l 1,78,79
 116 17 116 17 128.5 30 c 128,-1,80
 141 43 141 43 172 81 c 256,81,82
 203 119 203 119 211 131.5 c 128,-1,83
 219 144 219 144 236.5 178.5 c 128,-1,84
 254 213 254 213 258.5 226 c 128,-1,85
 263 239 263 239 273 282 c 0,86,87
 273 284 273 284 276.5 297.5 c 128,-1,88
 280 311 280 311 280.5 314.5 c 128,-1,89
 281 318 281 318 283.5 332 c 128,-1,90
 286 346 286 346 286.5 354.5 c 128,-1,91
 287 363 287 363 289 380.5 c 128,-1,92
 291 398 291 398 291.5 415.5 c 128,-1,93
 292 433 292 433 292.5 458 c 128,-1,94
 293 483 293 483 293 512 c 0,46,47
EndSplineSet
Validated: 1
EndChar

StartChar: uni2F0A
Encoding: 12042 12042 71
Width: 920
GlyphClass: 2
Flags: MW
LayerCount: 2
Fore
SplineSet
58 -85 m 0,0,1
 50 -85 50 -85 45.5 -79 c 128,-1,2
 41 -73 41 -73 41 -67 c 0,3,4
 41 -63 41 -63 44 -61 c 2,5,-1
 84 -31 l 1,6,7
 136 6 136 6 152.5 21 c 128,-1,8
 169 36 169 36 215.5 89.5 c 128,-1,9
 262 143 262 143 275.5 161 c 128,-1,10
 289 179 289 179 320 232 c 0,11,12
 408 380 408 380 442 500 c 0,13,14
 453 540 453 540 455 550.5 c 128,-1,15
 457 561 457 561 457 584 c 0,16,17
 457 610 457 610 451 658 c 1,18,-1
 445 664 l 1,19,-1
 283 665 l 1,20,21
 256 664 256 664 232 661 c 1,22,23
 221 670 221 670 218.5 675 c 128,-1,24
 216 680 216 680 212 703 c 1,25,26
 212 710 212 710 213.5 711.5 c 128,-1,27
 215 713 215 713 223 714 c 1,28,-1
 386 701 l 1,29,30
 417 700 417 700 433 705 c 128,-1,31
 449 710 449 710 450.5 717 c 128,-1,32
 452 724 452 724 457 730 c 128,-1,33
 462 736 462 736 473 736 c 0,34,35
 480 736 480 736 483.5 734.5 c 128,-1,36
 487 733 487 733 500 724.5 c 128,-1,37
 513 716 513 716 516.5 712 c 128,-1,38
 520 708 520 708 529 694 c 1,39,-1
 536 679 l 2,40,41
 537 675 537 675 536 671 c 1,42,43
 531 663 531 663 506 651 c 1,44,-1
 492 641 l 1,45,-1
 488 635 l 1,46,47
 491 509 491 509 498 461.5 c 128,-1,48
 505 414 505 414 523.5 372.5 c 128,-1,49
 542 331 542 331 603 235 c 0,50,51
 636 182 636 182 649 161 c 128,-1,52
 662 140 662 140 686 111 c 128,-1,53
 710 82 710 82 718.5 74 c 128,-1,54
 727 66 727 66 756.5 46.5 c 128,-1,55
 786 27 786 27 805.5 18 c 128,-1,56
 825 9 825 9 875 -14 c 1,57,58
 879 -19 879 -19 879 -24 c 0,59,60
 879 -34 879 -34 875 -36.5 c 128,-1,61
 871 -39 871 -39 847 -45 c 1,62,-1
 835 -49 l 2,63,64
 833 -50 833 -50 822 -61 c 0,65,66
 815 -69 815 -69 811.5 -70 c 128,-1,67
 808 -71 808 -71 798 -68 c 1,68,69
 782 -60 782 -60 772 -52 c 128,-1,70
 762 -44 762 -44 720 -5 c 128,-1,71
 678 34 678 34 660 50.5 c 128,-1,72
 642 67 642 67 615.5 97 c 128,-1,73
 589 127 589 127 580.5 136.5 c 128,-1,74
 572 146 572 146 555.5 178 c 128,-1,75
 539 210 539 210 535 223.5 c 128,-1,76
 531 237 531 237 518.5 281 c 128,-1,77
 506 325 506 325 500.5 352.5 c 128,-1,78
 495 380 495 380 481 447 c 1,79,-1
 478 451 l 1,80,81
 467 388 467 388 454.5 359.5 c 128,-1,82
 442 331 442 331 380 224 c 1,83,84
 348 172 348 172 334 153.5 c 128,-1,85
 320 135 320 135 267.5 77 c 128,-1,86
 215 19 215 19 195 2.5 c 128,-1,87
 175 -14 175 -14 109 -58 c 1,88,89
 64 -85 64 -85 58 -85 c 0,0,1
EndSplineSet
Validated: 33
EndChar

StartChar: uni2F0C
Encoding: 12044 12044 73
Width: 920
GlyphClass: 2
Flags: MW
LayerCount: 2
Fore
SplineSet
587 -28 m 1,0,1
 596 -28 596 -28 639 -30 c 128,-1,2
 682 -32 682 -32 709 -32 c 0,3,4
 733 -32 733 -32 733 -13 c 2,5,-1
 733 654 l 1,6,-1
 154 654 l 1,7,-1
 154 -40 l 2,8,9
 154 -97 154 -97 111 -97 c 0,10,11
 94 -97 94 -97 94 -62 c 2,12,-1
 94 700 l 2,13,14
 94 717 94 717 105 717 c 0,15,16
 110 717 110 717 137 696 c 128,-1,17
 164 675 164 675 169 675 c 2,18,-1
 708 675 l 2,19,20
 713 675 713 675 731.5 688.5 c 128,-1,21
 750 702 750 702 755 702 c 0,22,23
 768 702 768 702 805 665 c 1,24,-1
 822 644 l 2,25,26
 826 639 826 639 826 637 c 0,27,28
 826 629 826 629 810 621 c 1,29,-1
 796 612 l 1,30,31
 791 606 791 606 791 599 c 2,32,-1
 791 -16 l 2,33,34
 791 -87 791 -87 736 -104 c 1,35,-1
 708 -108 l 1,36,-1
 706 -108 l 2,37,38
 700 -108 700 -108 693.5 -100 c 128,-1,39
 687 -92 687 -92 681 -81.5 c 128,-1,40
 675 -71 675 -71 673 -69 c 0,41,42
 663 -59 663 -59 627 -45 c 128,-1,43
 591 -31 591 -31 587 -28 c 1,0,1
EndSplineSet
Validated: 1
EndChar

StartChar: uni2F0E
Encoding: 12046 12046 75
Width: 920
GlyphClass: 2
Flags: MW
LayerCount: 2
Fore
SplineSet
472 114 m 2,0,1
 472 106 472 106 473 73 c 128,-1,2
 474 40 474 40 474 32 c 0,3,4
 474 17 474 17 476 -5.5 c 128,-1,5
 478 -28 478 -28 478 -33 c 0,6,7
 478 -62 478 -62 477 -68.5 c 128,-1,8
 476 -75 476 -75 471.5 -85.5 c 128,-1,9
 467 -96 467 -96 463.5 -98 c 128,-1,10
 460 -100 460 -100 447 -100 c 0,11,12
 419 -100 419 -100 414.5 -93 c 128,-1,13
 410 -86 410 -86 410 -45 c 0,14,15
 410 -42 410 -42 409 -28.5 c 128,-1,16
 408 -15 408 -15 407 8.5 c 128,-1,17
 406 32 406 32 406 60 c 0,18,19
 406 89 406 89 405 96.5 c 128,-1,20
 404 104 404 104 397.5 117 c 128,-1,21
 391 130 391 130 386.5 134.5 c 128,-1,22
 382 139 382 139 362 150 c 0,23,24
 347 158 347 158 344.5 160 c 128,-1,25
 342 162 342 162 342 166 c 0,26,27
 342 173 342 173 352.5 175.5 c 128,-1,28
 363 178 363 178 381.5 181 c 128,-1,29
 400 184 400 184 412 191 c 0,30,31
 434 202 434 202 439.5 210 c 128,-1,32
 445 218 445 218 458 254 c 2,33,-1
 481 322 l 2,34,35
 491 353 491 353 511 417.5 c 128,-1,36
 531 482 531 482 545 525.5 c 128,-1,37
 559 569 559 569 564 577 c 0,38,39
 567 582 567 582 574 582 c 0,40,41
 587 582 587 582 589 580 c 128,-1,42
 591 578 591 578 591 566 c 0,43,44
 591 558 591 558 532 356 c 2,45,-1
 472 153 l 1,46,-1
 472 114 l 2,0,1
519 623 m 0,47,48
 519 614 519 614 518 612 c 128,-1,49
 517 610 517 610 510 605 c 0,50,51
 501 599 501 599 488 599 c 0,52,53
 468 599 468 599 461 606 c 128,-1,54
 454 613 454 613 427 658 c 1,55,56
 409 690 409 690 389.5 713 c 128,-1,57
 370 736 370 736 360.5 745 c 128,-1,58
 351 754 351 754 351 757 c 0,59,60
 351 759 351 759 355 759 c 0,61,62
 390 759 390 759 403 752.5 c 128,-1,63
 416 746 416 746 460 708.5 c 128,-1,64
 504 671 504 671 511.5 660 c 128,-1,65
 519 649 519 649 519 623 c 0,47,48
EndSplineSet
Validated: 1
EndChar

StartChar: uni2F0F
Encoding: 12047 12047 76
Width: 920
GlyphClass: 2
Flags: MW
LayerCount: 2
Fore
SplineSet
295 736 m 0,0,1
 300 736 300 736 330 722.5 c 128,-1,2
 360 709 360 709 375 710 c 1,3,-1
 533 707 l 1,4,5
 562 708 562 708 576.5 713.5 c 128,-1,6
 591 719 591 719 592 724.5 c 128,-1,7
 593 730 593 730 597.5 734.5 c 128,-1,8
 602 739 602 739 613 739 c 256,9,10
 624 739 624 739 628 736.5 c 128,-1,11
 632 734 632 734 647.5 720.5 c 128,-1,12
 663 707 663 707 665.5 703 c 128,-1,13
 668 699 668 699 668 691 c 0,14,15
 668 685 668 685 666 681.5 c 128,-1,16
 664 678 664 678 650.5 662.5 c 128,-1,17
 637 647 637 647 635 642 c 128,-1,18
 633 637 633 637 633 622 c 2,19,-1
 633 355 l 1,20,21
 632 226 632 226 632 146 c 128,-1,22
 632 66 632 66 633 33 c 0,23,24
 633 15 633 15 634.5 11 c 128,-1,25
 636 7 636 7 646 1 c 128,-1,26
 656 -5 656 -5 662 -6 c 128,-1,27
 668 -7 668 -7 696 -7 c 0,28,29
 743 -7 743 -7 762 -3.5 c 128,-1,30
 781 0 781 0 788 7 c 128,-1,31
 795 14 795 14 802 34 c 1,32,33
 823 107 823 107 823 183 c 1,34,-1
 836 193 l 1,35,36
 845 192 845 192 846.5 185 c 128,-1,37
 848 178 848 178 848 136 c 0,38,39
 848 124 848 124 847.5 107 c 128,-1,40
 847 90 847 90 847 73 c 0,41,42
 847 36 847 36 848 28 c 128,-1,43
 849 20 849 20 854 12 c 1,44,-1
 871 -8 l 2,45,46
 873 -11 873 -11 873 -17 c 0,47,48
 873 -44 873 -44 863 -50 c 0,49,50
 849 -59 849 -59 744 -59 c 2,51,-1
 743 -59 l 1,52,-1
 742 -59 l 1,53,-1
 741 -59 l 1,54,-1
 740 -59 l 1,55,-1
 739 -59 l 1,56,-1
 729 -59 l 2,57,58
 686 -59 686 -59 649 -54 c 2,59,-1
 620 -50 l 1,60,-1
 609 -47 l 1,61,-1
 604 -44 l 2,62,63
 600 -42 600 -42 596 -37.5 c 128,-1,64
 592 -33 592 -33 590 -24 c 2,65,-1
 586 -11 l 2,66,67
 581 8 581 8 581 113 c 2,68,-1
 581 181 l 2,69,70
 581 270 581 270 582.5 408 c 128,-1,71
 584 546 584 546 584 576 c 0,72,73
 584 631 584 631 583 652 c 0,74,75
 583 661 583 661 582.5 664 c 128,-1,76
 582 667 582 667 580.5 669 c 128,-1,77
 579 671 579 671 573 674 c 1,78,79
 493 680 493 680 430 680 c 0,80,81
 401 680 401 680 376 679 c 1,82,-1
 357 677 l 1,83,84
 344 674 344 674 342 670 c 128,-1,85
 340 666 340 666 340 644 c 0,86,87
 340 638 340 638 341 628.5 c 128,-1,88
 342 619 342 619 342 615 c 0,89,90
 340 469 340 469 331.5 380.5 c 128,-1,91
 323 292 323 292 317 267 c 128,-1,92
 311 242 311 242 290 176 c 0,93,94
 275 131 275 131 268 117 c 128,-1,95
 261 103 261 103 234.5 63.5 c 128,-1,96
 208 24 208 24 199 13.5 c 128,-1,97
 190 3 190 3 164 -20 c 0,98,99
 89 -85 89 -85 62 -85 c 0,100,101
 54 -85 54 -85 51.5 -84.5 c 128,-1,102
 49 -84 49 -84 48 -82.5 c 128,-1,103
 47 -81 47 -81 47 -75 c 0,104,105
 47 -71 47 -71 50 -66 c 1,106,107
 90 -41 90 -41 107.5 -30.5 c 128,-1,108
 125 -20 125 -20 152.5 1 c 128,-1,109
 180 22 180 22 189 28.5 c 128,-1,110
 198 35 198 35 215.5 57 c 128,-1,111
 233 79 233 79 237 86 c 128,-1,112
 241 93 241 93 251 121.5 c 128,-1,113
 261 150 261 150 262 163.5 c 128,-1,114
 263 177 263 177 268.5 216.5 c 128,-1,115
 274 256 274 256 275.5 280.5 c 128,-1,116
 277 305 277 305 281 361 c 0,117,118
 289 489 289 489 289 596 c 0,119,120
 289 640 289 640 288 681 c 2,121,-1
 286 730 l 1,122,123
 288 736 288 736 295 736 c 0,0,1
EndSplineSet
Validated: 33
EndChar

StartChar: uni2F10
Encoding: 12048 12048 77
Width: 920
GlyphClass: 2
Flags: MW
LayerCount: 2
Fore
SplineSet
841 684 m 1,0,1
 840 682 840 682 824 669 c 128,-1,2
 808 656 808 656 808 649 c 2,3,-1
 805 -15 l 1,4,5
 798 -35 798 -35 792 -38.5 c 128,-1,6
 786 -42 786 -42 761 -42 c 0,7,8
 752 -42 752 -42 750.5 -41 c 128,-1,9
 749 -40 749 -40 749 -32 c 2,10,-1
 749 23 l 1,11,-1
 147 24 l 1,12,-1
 140 -20 l 1,13,14
 136 -35 136 -35 130 -37.5 c 128,-1,15
 124 -40 124 -40 92 -38 c 1,16,-1
 89 -32 l 1,17,-1
 87 661 l 1,18,-1
 79 710 l 1,19,-1
 85 713 l 1,20,21
 115 711 115 711 173 696 c 1,22,-1
 176 688 l 1,23,-1
 153 671 l 1,24,-1
 147 660 l 1,25,26
 146 656 146 656 146 652 c 2,27,-1
 146 51 l 1,28,-1
 748 50 l 1,29,-1
 748 658 l 2,30,31
 748 666 748 666 740 699 c 1,32,33
 745 702 745 702 756 702 c 0,34,35
 776 702 776 702 805.5 695.5 c 128,-1,36
 835 689 835 689 841 684 c 1,0,1
EndSplineSet
Validated: 33
EndChar

StartChar: uni2F11
Encoding: 12049 12049 78
Width: 920
GlyphClass: 2
Flags: MW
LayerCount: 2
Fore
SplineSet
392 612 m 0,0,1
 392 649 392 649 392 613 c 1,2,3
 390 649 390 649 387 652 c 1,4,5
 385 652 385 652 384 653 c 1,6,-1
 164 650 l 2,7,8
 144 649 144 649 126 647 c 1,9,10
 112 655 112 655 109.5 659.5 c 128,-1,11
 107 664 107 664 107 684 c 2,12,-1
 107 694 l 1,13,-1
 111 697 l 1,14,15
 194 690 194 690 250 688.5 c 128,-1,16
 306 687 306 687 558 687 c 0,17,18
 698 687 698 687 723.5 688.5 c 128,-1,19
 749 690 749 690 760 698 c 1,20,-1
 783 721 l 1,21,22
 789 725 789 725 796 725 c 0,23,24
 806 725 806 725 811 722 c 128,-1,25
 816 719 816 719 835.5 700.5 c 128,-1,26
 855 682 855 682 858.5 677 c 128,-1,27
 862 672 862 672 862 660 c 0,28,29
 862 650 862 650 859 646 c 128,-1,30
 856 642 856 642 837 632 c 1,31,-1
 824 623 l 1,32,-1
 819 614 l 1,33,34
 817 602 817 602 812 461 c 1,35,-1
 811 447 l 1,36,37
 800 262 800 262 793.5 213 c 128,-1,38
 787 164 787 164 758 56 c 0,39,40
 751 31 751 31 748 24 c 128,-1,41
 745 17 745 17 732 -1 c 0,42,43
 731 -1 731 -1 729 -4.5 c 128,-1,44
 727 -8 727 -8 725 -10.5 c 128,-1,45
 723 -13 723 -13 719 -17.5 c 128,-1,46
 715 -22 715 -22 709.5 -26 c 128,-1,47
 704 -30 704 -30 697.5 -34 c 128,-1,48
 691 -38 691 -38 681 -42 c 128,-1,49
 671 -46 671 -46 660 -49 c 0,50,51
 645 -53 645 -53 633 -53 c 1,52,-1
 620 -50 l 1,53,-1
 618 -49 l 1,54,55
 615 -37 615 -37 613 -33.5 c 128,-1,56
 611 -30 611 -30 600 -21 c 0,57,58
 575 2 575 2 526 10 c 1,59,60
 501 13 501 13 480 22 c 0,61,62
 465 28 465 28 462.5 31 c 128,-1,63
 460 34 460 34 460 44 c 0,64,65
 460 52 460 52 462 53.5 c 128,-1,66
 464 55 464 55 477 55 c 0,67,68
 488 55 488 55 497 53 c 128,-1,69
 506 51 506 51 507 51 c 0,70,71
 607 34 607 34 641 34 c 0,72,73
 660 34 660 34 675 35 c 1,74,75
 695 49 695 49 701 63.5 c 128,-1,76
 707 78 707 78 720 148 c 0,77,78
 722 155 722 155 725.5 173 c 128,-1,79
 729 191 729 191 730.5 197.5 c 128,-1,80
 732 204 732 204 734.5 222 c 128,-1,81
 737 240 737 240 738.5 254.5 c 128,-1,82
 740 269 740 269 742.5 296.5 c 128,-1,83
 745 324 745 324 747 356 c 128,-1,84
 749 388 749 388 751.5 433.5 c 128,-1,85
 754 479 754 479 757 536 c 0,86,87
 762 636 762 636 763 644 c 1,88,89
 760 651 760 651 759 652 c 128,-1,90
 758 653 758 653 754 653 c 2,91,-1
 614 650 l 1,92,-1
 489 651 l 2,93,94
 474 651 474 651 461 649 c 0,95,96
 457 649 457 649 456.5 648 c 128,-1,97
 456 647 456 647 454 640 c 1,98,-1
 448 520 l 1,99,100
 438 414 438 414 430 382.5 c 128,-1,101
 422 351 422 351 385 267 c 128,-1,102
 348 183 348 183 333 159.5 c 128,-1,103
 318 136 318 136 264 77 c 0,104,105
 210 19 210 19 188 0.5 c 128,-1,106
 166 -18 166 -18 89 -69 c 1,107,108
 85 -70 85 -70 82 -70 c 0,109,110
 64 -70 64 -70 61 -68 c 128,-1,111
 58 -66 58 -66 58 -54 c 0,112,113
 58 -51 58 -51 59 -49 c 1,114,115
 109 -15 109 -15 128.5 -1.5 c 128,-1,116
 148 12 148 12 176 35.5 c 128,-1,117
 204 59 204 59 212 68 c 128,-1,118
 220 77 220 77 240 106 c 128,-1,119
 260 135 260 135 270 154 c 128,-1,120
 280 173 280 173 306 222 c 0,121,122
 366 334 366 334 378 377 c 0,123,124
 392 428 392 428 392 568 c 0,125,126
 392 582 392 582 392 612 c 0,0,1
EndSplineSet
Validated: 5
EndChar

StartChar: uni2F12
Encoding: 12050 12050 79
Width: 920
GlyphClass: 2
Flags: MW
LayerCount: 2
Fore
SplineSet
492 736 m 0,0,1
 492 726 492 726 476 720.5 c 128,-1,2
 460 715 460 715 458 705 c 1,3,-1
 458 565 l 1,4,-1
 455 559 l 1,5,6
 470 559 470 559 541 559.5 c 128,-1,7
 612 560 612 560 657 560 c 2,8,-1
 730 560 l 2,9,10
 740 560 740 560 744 562 c 128,-1,11
 748 564 748 564 761 577.5 c 128,-1,12
 774 591 774 591 777.5 593 c 128,-1,13
 781 595 781 595 786 595 c 0,14,15
 797 595 797 595 804 589 c 128,-1,16
 811 583 811 583 840 548 c 1,17,-1
 851 533 l 2,18,19
 852 530 852 530 852 526 c 0,20,21
 852 515 852 515 833 503.5 c 128,-1,22
 814 492 814 492 813 483 c 0,23,24
 809 463 809 463 809 391 c 0,25,26
 809 363 809 363 806 343 c 1,27,28
 804 347 804 347 804 360 c 1,29,30
 804 227 804 227 798 184.5 c 128,-1,31
 792 142 792 142 755 19 c 0,32,33
 731 -63 731 -63 715 -76.5 c 128,-1,34
 699 -90 699 -90 628 -90 c 0,35,36
 619 -90 619 -90 617 -89 c 128,-1,37
 615 -88 615 -88 612 -82 c 1,38,-1
 608 -68 l 1,39,40
 608 -54 608 -54 599.5 -49 c 128,-1,41
 591 -44 591 -44 539 -31 c 2,42,-1
 484 -18 l 1,43,-1
 482 -17 l 1,44,45
 477 -12 477 -12 477 0 c 0,46,47
 477 9 477 9 479.5 10.5 c 128,-1,48
 482 12 482 12 495 12 c 0,49,50
 503 12 503 12 514 10 c 2,51,-1
 614 -3 l 2,52,53
 616 -3 616 -3 622.5 -3.5 c 128,-1,54
 629 -4 629 -4 631 -4 c 0,55,56
 651 -4 651 -4 669 0 c 1,57,58
 682 9 682 9 687 12 c 128,-1,59
 692 15 692 15 699 25.5 c 128,-1,60
 706 36 706 36 708.5 41 c 128,-1,61
 711 46 711 46 716 68 c 128,-1,62
 721 90 721 90 723.5 106.5 c 128,-1,63
 726 123 726 123 732 165 c 0,64,65
 749 268 749 268 751.5 310.5 c 128,-1,66
 754 353 754 353 754 507 c 1,67,68
 757 511 757 511 756 516 c 1,69,70
 756 522 756 522 751 524 c 1,71,-1
 455 524 l 2,72,73
 450 524 450 524 449.5 522 c 128,-1,74
 449 520 449 520 449 510 c 0,75,76
 449 420 449 420 443.5 389 c 128,-1,77
 438 358 438 358 405.5 260 c 128,-1,78
 373 162 373 162 356.5 133.5 c 128,-1,79
 340 105 340 105 272 29 c 1,80,81
 236 -13 236 -13 222.5 -25 c 128,-1,82
 209 -37 209 -37 165.5 -68.5 c 128,-1,83
 122 -100 122 -100 112 -105 c 128,-1,84
 102 -110 102 -110 86 -110 c 0,85,86
 67 -110 67 -110 67 -96 c 0,87,88
 67 -91 67 -91 71 -84 c 1,89,90
 90 -74 90 -74 108 -62.5 c 128,-1,91
 126 -51 126 -51 139 -42 c 128,-1,92
 152 -33 152 -33 165.5 -21.5 c 128,-1,93
 179 -10 179 -10 187 -3 c 128,-1,94
 195 4 195 4 205.5 15 c 128,-1,95
 216 26 216 26 219.5 30.5 c 128,-1,96
 223 35 223 35 231.5 45 c 128,-1,97
 240 55 240 55 240 56 c 0,98,99
 274 95 274 95 283.5 109.5 c 128,-1,100
 293 124 293 124 317 170 c 128,-1,101
 341 216 341 216 347.5 235.5 c 128,-1,102
 354 255 354 255 370 322.5 c 128,-1,103
 386 390 386 390 388.5 414.5 c 128,-1,104
 391 439 391 439 391 516 c 1,105,-1
 385 522 l 1,106,-1
 248 522 l 2,107,108
 242 522 242 522 219.5 520.5 c 128,-1,109
 197 519 197 519 191 519 c 2,110,-1
 127 519 l 2,111,112
 117 519 117 519 114.5 520.5 c 128,-1,113
 112 522 112 522 105 531.5 c 128,-1,114
 98 541 98 541 97 544 c 128,-1,115
 96 547 96 547 96 557 c 256,116,117
 96 567 96 567 102 569 c 1,118,119
 170 562 170 562 204 560.5 c 128,-1,120
 238 559 238 559 375 559 c 0,121,122
 389 559 389 559 391.5 566 c 128,-1,123
 394 573 394 573 394 597 c 0,124,125
 394 629 394 629 392.5 675.5 c 128,-1,126
 391 722 391 722 391 767 c 1,127,128
 396 772 396 772 409 772 c 0,129,130
 428 772 428 772 434.5 770.5 c 128,-1,131
 441 769 441 769 463 761.5 c 128,-1,132
 485 754 485 754 488.5 750.5 c 128,-1,133
 492 747 492 747 492 736 c 0,0,1
EndSplineSet
Validated: 1
EndChar

StartChar: uni2F13
Encoding: 12051 12051 80
Width: 920
GlyphClass: 2
Flags: MW
LayerCount: 2
Fore
SplineSet
287 601 m 1,0,1
 375 601 375 601 508.5 599.5 c 128,-1,2
 642 598 642 598 699 598 c 2,3,-1
 730 598 l 2,4,5
 744 598 744 598 760.5 616 c 128,-1,6
 777 634 777 634 787 634 c 0,7,8
 795 634 795 634 799.5 631 c 128,-1,9
 804 628 804 628 823 612 c 128,-1,10
 842 596 842 596 845 591.5 c 128,-1,11
 848 587 848 587 848 578 c 0,12,13
 848 567 848 567 829 552 c 128,-1,14
 810 537 810 537 809 529 c 0,15,16
 809 528 809 528 802 424 c 0,17,18
 797 346 797 346 794 317.5 c 128,-1,19
 791 289 791 289 777.5 196 c 128,-1,20
 764 103 764 103 758.5 77.5 c 128,-1,21
 753 52 753 52 731 -9 c 1,22,23
 724 -32 724 -32 719 -39 c 128,-1,24
 714 -46 714 -46 692.5 -66 c 128,-1,25
 671 -86 671 -86 664 -90 c 128,-1,26
 657 -94 657 -94 637 -100 c 1,27,-1
 615 -103 l 1,28,-1
 613 -103 l 2,29,30
 602 -103 602 -103 591 -84.5 c 128,-1,31
 580 -66 580 -66 572 -62 c 1,32,-1
 492 -39 l 2,33,34
 486 -37 486 -37 481 -34 c 1,35,36
 477 -27 477 -27 480 -21 c 1,37,38
 483 -18 483 -18 504 -18 c 0,39,40
 516 -18 516 -18 566 -21 c 128,-1,41
 616 -24 616 -24 629 -24 c 0,42,43
 647 -24 647 -24 660 -16 c 0,44,45
 668 -11 668 -11 672 -7.5 c 128,-1,46
 676 -4 676 -4 686 18 c 128,-1,47
 696 40 696 40 706 78 c 1,48,49
 744 200 744 200 750.5 260 c 128,-1,50
 757 320 757 320 757 561 c 1,51,-1
 751 568 l 1,52,-1
 285 568 l 2,53,54
 280 568 280 568 276.5 563 c 128,-1,55
 273 558 273 558 258 528 c 0,56,57
 201 419 201 419 184 392.5 c 128,-1,58
 167 366 167 366 121 313 c 2,59,-1
 107 297 l 1,60,61
 99 286 99 286 95.5 284.5 c 128,-1,62
 92 283 92 283 80 283 c 1,63,64
 74 282 74 282 73 283 c 128,-1,65
 72 284 72 284 72 290 c 0,66,67
 72 293 72 293 73 298 c 1,68,69
 166 416 166 416 188 461 c 128,-1,70
 210 506 210 506 249 656 c 1,71,-1
 272 752 l 2,72,73
 273 757 273 757 281 764 c 1,74,75
 297 764 297 764 303 762.5 c 128,-1,76
 309 761 309 761 330.5 750.5 c 128,-1,77
 352 740 352 740 355.5 737 c 128,-1,78
 359 734 359 734 359 724 c 0,79,80
 359 716 359 716 356 714 c 128,-1,81
 353 712 353 712 334 704 c 1,82,-1
 321 695 l 1,83,84
 317 690 317 690 314 684 c 1,85,-1
 297 631 l 1,86,87
 292 619 292 619 281 610 c 1,88,89
 283 603 283 603 287 601 c 1,0,1
EndSplineSet
Validated: 1
EndChar

StartChar: uni2F14
Encoding: 12052 12052 81
Width: 920
GlyphClass: 2
Flags: MW
LayerCount: 2
Fore
SplineSet
391 -33 m 0,0,1
 409 -33 409 -33 482.5 -36 c 128,-1,2
 556 -39 556 -39 574 -39 c 0,3,4
 600 -39 600 -39 615 -39 c 128,-1,5
 630 -39 630 -39 644 -39 c 128,-1,6
 658 -39 658 -39 665.5 -37.5 c 128,-1,7
 673 -36 673 -36 679.5 -35.5 c 128,-1,8
 686 -35 686 -35 690.5 -32 c 128,-1,9
 695 -29 695 -29 698 -28 c 128,-1,10
 701 -27 701 -27 707 -21.5 c 128,-1,11
 713 -16 713 -16 718 -14 c 1,12,13
 730 -5 730 -5 745 75 c 1,14,15
 759 141 759 141 762 149 c 1,16,17
 770 158 770 158 775.5 157 c 128,-1,18
 781 156 781 156 784 150 c 2,19,-1
 786 144 l 1,20,-1
 774 29 l 1,21,22
 774 10 774 10 776 -7 c 1,23,24
 793 -24 793 -24 796 -28.5 c 128,-1,25
 799 -33 799 -33 799 -45 c 0,26,27
 799 -56 799 -56 796.5 -58.5 c 128,-1,28
 794 -61 794 -61 778 -68 c 0,29,30
 728 -87 728 -87 497 -87 c 0,31,32
 472 -87 472 -87 440.5 -85.5 c 128,-1,33
 409 -84 409 -84 387.5 -82.5 c 128,-1,34
 366 -81 366 -81 364 -81 c 0,35,36
 328 -81 328 -81 300 -68 c 1,37,38
 300 -68 300 -68 298.5 -67.5 c 128,-1,39
 297 -67 297 -67 296 -66 c 128,-1,40
 295 -65 295 -65 292.5 -63.5 c 128,-1,41
 290 -62 290 -62 288 -60 c 128,-1,42
 286 -58 286 -58 283.5 -54.5 c 128,-1,43
 281 -51 281 -51 278 -46 c 128,-1,44
 275 -41 275 -41 272 -34 c 0,45,46
 265 -18 265 -18 265 41 c 2,47,-1
 265 49 l 2,48,49
 265 65 265 65 265.5 103.5 c 128,-1,50
 266 142 266 142 266 167 c 0,51,52
 266 183 266 183 267 200.5 c 128,-1,53
 268 218 268 218 268 221 c 0,54,55
 265 231 265 231 262 231 c 0,56,57
 250 228 250 228 207 211.5 c 128,-1,58
 164 195 164 195 139 191 c 1,59,60
 125 191 125 191 122 197 c 1,61,62
 120 204 120 204 122 206 c 128,-1,63
 124 208 124 208 137 214 c 2,64,-1
 229 253 l 2,65,66
 236 257 236 257 241.5 259.5 c 128,-1,67
 247 262 247 262 249 262.5 c 128,-1,68
 251 263 251 263 253.5 266 c 128,-1,69
 256 269 256 269 260 276 c 0,70,71
 266 288 266 288 266 306 c 2,72,-1
 266 348 l 2,73,74
 266 395 266 395 266.5 459.5 c 128,-1,75
 267 524 267 524 267 636 c 0,76,77
 267 657 267 657 267.5 690 c 128,-1,78
 268 723 268 723 268 737 c 1,79,80
 271 744 271 744 273.5 745 c 128,-1,81
 276 746 276 746 286 746 c 0,82,83
 304 746 304 746 322.5 737.5 c 128,-1,84
 341 729 341 729 346 719 c 1,85,86
 346 707 346 707 330.5 696 c 128,-1,87
 315 685 315 685 315 673 c 2,88,-1
 315 336 l 2,89,90
 315 331 315 331 312 318.5 c 128,-1,91
 309 306 309 306 309 303 c 0,92,93
 311 297 311 297 315 297 c 1,94,95
 340 308 340 308 355 318 c 128,-1,96
 370 328 370 328 436.5 380 c 128,-1,97
 503 432 503 432 523.5 450 c 128,-1,98
 544 468 544 468 602 525 c 1,99,-1
 651 580 l 2,100,101
 653 583 653 583 656 585 c 1,102,103
 677 582 677 582 704 565 c 0,104,105
 724 552 724 552 727.5 548 c 128,-1,106
 731 544 731 544 731 534 c 0,107,108
 731 532 731 532 730 530 c 1,109,110
 722 524 722 524 694 521 c 1,111,-1
 682 519 l 1,112,113
 674 514 674 514 604.5 454.5 c 128,-1,114
 535 395 535 395 476 355 c 1,115,-1
 348 276 l 1,116,-1
 323 257 l 2,117,118
 318 252 318 252 316.5 250 c 128,-1,119
 315 248 315 248 313 235.5 c 128,-1,120
 311 223 311 223 311 198 c 2,121,-1
 311 167 l 2,122,123
 311 50 311 50 312 28.5 c 128,-1,124
 313 7 313 7 318 -5 c 0,125,126
 328 -26 328 -26 337 -29.5 c 128,-1,127
 346 -33 346 -33 391 -33 c 0,0,1
EndSplineSet
Validated: 1
EndChar

StartChar: uni2F15
Encoding: 12053 12053 82
Width: 920
GlyphClass: 2
Flags: MW
LayerCount: 2
Fore
SplineSet
92 713 m 0,0,1
 101 713 101 713 115 706.5 c 128,-1,2
 129 700 129 700 130 700 c 2,3,-1
 137 692 l 1,4,-1
 676 692 l 1,5,-1
 718 748 l 1,6,-1
 727 751 l 1,7,-1
 745 748 l 1,8,-1
 809 684 l 1,9,10
 812 679 812 679 808.5 675 c 128,-1,11
 805 671 805 671 799 671 c 2,12,-1
 140 671 l 1,13,-1
 140 8 l 1,14,-1
 706 8 l 1,15,-1
 733 43 l 2,16,17
 748 62 748 62 751.5 65 c 128,-1,18
 755 68 755 68 762 68 c 0,19,20
 770 68 770 68 773.5 66 c 128,-1,21
 777 64 777 64 789 52 c 2,22,-1
 840 -3 l 2,23,24
 842 -6 842 -6 840.5 -7.5 c 128,-1,25
 839 -9 839 -9 829 -14 c 1,26,-1
 140 -14 l 1,27,28
 137 -42 137 -42 135.5 -49 c 128,-1,29
 134 -56 134 -56 127.5 -66.5 c 128,-1,30
 121 -77 121 -77 117.5 -79 c 128,-1,31
 114 -81 114 -81 101 -81 c 0,32,33
 91 -81 91 -81 86 -78.5 c 128,-1,34
 81 -76 81 -76 80.5 -74 c 128,-1,35
 80 -72 80 -72 79 -72 c 1,36,-1
 79 707 l 1,37,38
 84 713 84 713 92 713 c 0,0,1
EndSplineSet
Validated: 1
EndChar

StartChar: uni2F16
Encoding: 12054 12054 83
Width: 920
GlyphClass: 2
Flags: MW
LayerCount: 2
Fore
SplineSet
566 665 m 0,0,1
 585 665 585 665 659.5 666.5 c 128,-1,2
 734 668 734 668 753 668 c 1,3,4
 758 671 758 671 773 693 c 128,-1,5
 788 715 788 715 799 715 c 256,6,7
 810 715 810 715 815 711.5 c 128,-1,8
 820 708 820 708 839.5 689 c 128,-1,9
 859 670 859 670 862.5 664 c 128,-1,10
 866 658 866 658 866 645 c 0,11,12
 866 637 866 637 858 633 c 1,13,-1
 626 633 l 1,14,15
 624 635 624 635 564 635 c 0,16,17
 509 635 509 635 382.5 633 c 128,-1,18
 256 631 256 631 227 631 c 128,-1,19
 198 631 198 631 186 628 c 0,20,21
 182 628 182 628 182 620 c 0,22,23
 182 580 182 580 180 486 c 128,-1,24
 178 392 178 392 178 331 c 0,25,26
 178 319 178 319 178.5 290.5 c 128,-1,27
 179 262 179 262 179 244 c 0,28,29
 179 192 179 192 179.5 152 c 128,-1,30
 180 112 180 112 180 84 c 2,31,-1
 180 35 l 2,32,33
 180 16 180 16 184.5 12 c 128,-1,34
 189 8 189 8 215 1 c 128,-1,35
 241 -6 241 -6 256.5 -7 c 128,-1,36
 272 -8 272 -8 337 -8 c 2,37,-1
 588 -8 l 2,38,39
 598 -8 598 -8 618.5 -0.5 c 128,-1,40
 639 7 639 7 649 7 c 2,41,-1
 796 7 l 2,42,43
 805 7 805 7 808 5.5 c 128,-1,44
 811 4 811 4 821.5 -5.5 c 128,-1,45
 832 -15 832 -15 833.5 -18 c 128,-1,46
 835 -21 835 -21 835 -29 c 256,47,48
 835 -37 835 -37 824 -45 c 128,-1,49
 813 -53 813 -53 788 -53 c 0,50,51
 672 -53 672 -53 491.5 -54 c 128,-1,52
 311 -55 311 -55 272 -55 c 0,53,54
 266 -55 266 -55 243.5 -53 c 128,-1,55
 221 -51 221 -51 215 -51 c 0,56,57
 178 -51 178 -51 169.5 -47.5 c 128,-1,58
 161 -44 161 -44 147.5 -22 c 128,-1,59
 134 0 134 0 132 11 c 128,-1,60
 130 22 130 22 130 68 c 0,61,62
 130 69 130 69 128.5 70 c 128,-1,63
 127 71 127 71 127 73 c 2,64,-1
 127 622 l 1,65,66
 122 629 122 629 117.5 630 c 128,-1,67
 113 631 113 631 93 631 c 0,68,69
 64 631 64 631 59 635 c 128,-1,70
 54 639 54 639 54 664 c 0,71,72
 54 670 54 670 59 674 c 1,73,74
 119 667 119 667 225 667 c 0,75,76
 259 667 259 667 395.5 666 c 128,-1,77
 532 665 532 665 566 665 c 0,0,1
EndSplineSet
Validated: 1
EndChar

StartChar: uni2F17
Encoding: 12055 12055 84
Width: 920
GlyphClass: 2
Flags: MW
LayerCount: 2
Fore
SplineSet
56 372 m 1,0,1
 46 378 46 378 40.5 394 c 128,-1,2
 35 410 35 410 35 416 c 1,3,-1
 41 424 l 1,4,5
 138 414 138 414 181 412 c 128,-1,6
 224 410 224 410 385 410 c 0,7,8
 391 410 391 410 405.5 411 c 128,-1,9
 420 412 420 412 423 412 c 0,10,11
 430 414 430 414 431.5 418 c 128,-1,12
 433 422 433 422 433 438 c 0,13,14
 433 566 433 566 431.5 640 c 128,-1,15
 430 714 430 714 430 768 c 1,16,17
 432 773 432 773 434.5 774 c 128,-1,18
 437 775 437 775 450 775 c 0,19,20
 475 775 475 775 503 764 c 0,21,22
 524 756 524 756 527.5 753 c 128,-1,23
 531 750 531 750 531 739 c 0,24,25
 531 732 531 732 512 723 c 128,-1,26
 493 714 493 714 488 706 c 1,27,28
 488 682 488 682 487 584 c 128,-1,29
 486 486 486 486 486 462 c 0,30,31
 486 436 486 436 488 424.5 c 128,-1,32
 490 413 490 413 491.5 412 c 128,-1,33
 493 411 493 411 499 411 c 0,34,35
 515 409 515 409 555 409 c 0,36,37
 566 409 566 409 616 409.5 c 128,-1,38
 666 410 666 410 698 410 c 0,39,40
 705 410 705 410 722 410.5 c 128,-1,41
 739 411 739 411 743 411 c 1,42,43
 745 413 745 413 749 419 c 128,-1,44
 753 425 753 425 762 436 c 128,-1,45
 771 447 771 447 782 460 c 0,46,47
 792 471 792 471 794.5 473 c 128,-1,48
 797 475 797 475 803 475 c 0,49,50
 807 475 807 475 809 472 c 2,51,-1
 864 421 l 1,52,53
 877 407 877 407 885 393 c 1,54,55
 885 380 885 380 883.5 377.5 c 128,-1,56
 882 375 882 375 873 375 c 2,57,-1
 500 375 l 1,58,59
 492 373 492 373 490.5 371.5 c 128,-1,60
 489 370 489 370 489 366 c 2,61,-1
 489 -4 l 1,62,-1
 490 -5 l 1,63,-1
 490 -96 l 1,64,65
 488 -112 488 -112 483.5 -114.5 c 128,-1,66
 479 -117 479 -117 454 -117 c 1,67,-1
 435 -114 l 2,68,69
 430 -114 430 -114 429 -111 c 128,-1,70
 428 -108 428 -108 428 -91 c 0,71,72
 428 -83 428 -83 429 -70 c 2,73,-1
 430 -58 l 1,74,75
 430 -37 430 -37 432 59 c 128,-1,76
 434 155 434 155 434 217 c 2,77,-1
 434 351 l 2,78,79
 434 359 434 359 433 366 c 1,80,81
 433 374 433 374 415 376 c 1,82,-1
 398 376 l 1,83,84
 390 377 390 377 382 376 c 1,85,-1
 161 376 l 2,86,87
 139 376 139 376 104.5 374 c 128,-1,88
 70 372 70 372 56 372 c 1,0,1
EndSplineSet
Validated: 1
EndChar

StartChar: uni2F18
Encoding: 12056 12056 85
Width: 920
GlyphClass: 2
Flags: MW
LayerCount: 2
Fore
SplineSet
307 392 m 0,0,1
 307 388 307 388 309 257 c 128,-1,2
 311 126 311 126 311 43 c 2,3,-1
 311 -74 l 1,4,-1
 316 -75 l 1,5,6
 315 -83 315 -83 314 -86 c 128,-1,7
 313 -89 313 -89 311 -91.5 c 128,-1,8
 309 -94 309 -94 302 -100 c 0,9,10
 293 -107 293 -107 290.5 -108 c 128,-1,11
 288 -109 288 -109 277 -109 c 0,12,13
 262 -109 262 -109 259.5 -106.5 c 128,-1,14
 257 -104 257 -104 254 -88 c 0,15,16
 250 -67 250 -67 254 -62 c 1,17,-1
 254 548 l 2,18,19
 254 575 254 575 253 616.5 c 128,-1,20
 252 658 252 658 252 675 c 1,21,-1
 243 759 l 1,22,23
 247 764 247 764 262 764 c 0,24,25
 286 764 286 764 316 752 c 0,26,27
 339 743 339 743 342.5 740 c 128,-1,28
 346 737 346 737 346 726 c 128,-1,29
 346 715 346 715 327.5 707.5 c 128,-1,30
 309 700 309 700 307 690 c 1,31,-1
 307 453 l 1,32,33
 309 443 309 443 310.5 441 c 128,-1,34
 312 439 312 439 319 437 c 2,35,-1
 507 366 l 1,36,37
 632 314 632 314 654 297 c 256,38,39
 676 280 676 280 677 244 c 0,40,41
 677 237 677 237 677 222 c 0,42,43
 677 204 677 204 670 195 c 0,44,45
 664 188 664 188 661.5 186.5 c 128,-1,46
 659 185 659 185 649 185 c 0,47,48
 640 185 640 185 633.5 189.5 c 128,-1,49
 627 194 627 194 619 202.5 c 128,-1,50
 611 211 611 211 587 233 c 128,-1,51
 563 255 563 255 530 281 c 0,52,53
 524 286 524 286 520.5 289 c 128,-1,54
 517 292 517 292 512.5 295.5 c 128,-1,55
 508 299 508 299 505.5 300.5 c 128,-1,56
 503 302 503 302 498 305 c 128,-1,57
 493 308 493 308 491 309.5 c 128,-1,58
 489 311 489 311 482 315.5 c 128,-1,59
 475 320 475 320 471 322 c 128,-1,60
 467 324 467 324 457 330 c 128,-1,61
 447 336 447 336 440 340 c 0,62,63
 382 374 382 374 313 403 c 1,64,65
 308 403 308 403 307.5 401.5 c 128,-1,66
 307 400 307 400 307 392 c 0,0,1
EndSplineSet
Validated: 1
EndChar

StartChar: uni2F1B
Encoding: 12059 12059 88
Width: 920
GlyphClass: 2
Flags: MW
LayerCount: 2
Fore
SplineSet
414 554 m 0,0,1
 429 554 429 554 435 552 c 128,-1,2
 441 550 441 550 462.5 537.5 c 128,-1,3
 484 525 484 525 487.5 522 c 128,-1,4
 491 519 491 519 491 514 c 0,5,6
 491 511 491 511 461 475 c 2,7,-1
 443 454 l 1,8,-1
 282 105 l 2,9,10
 278 97 278 97 278 95 c 0,11,12
 278 94 278 94 286 94 c 0,13,14
 377 94 377 94 444.5 104 c 128,-1,15
 512 114 512 114 554.5 126.5 c 128,-1,16
 597 139 597 139 607 140 c 0,17,18
 638 145 638 145 692 163 c 0,19,20
 694 163 694 163 694 166 c 0,21,22
 694 174 694 174 688 183 c 128,-1,23
 682 192 682 192 647 238 c 0,24,25
 593 311 593 311 593 317 c 0,26,27
 593 325 593 325 594 326.5 c 128,-1,28
 595 328 595 328 600 328 c 0,29,30
 609 328 609 328 615 324 c 128,-1,31
 621 320 621 320 649 298 c 256,32,33
 677 276 677 276 686.5 267 c 128,-1,34
 696 258 696 258 725.5 227 c 128,-1,35
 755 196 755 196 764 185 c 128,-1,36
 773 174 773 174 796.5 137 c 128,-1,37
 820 100 820 100 824 90 c 128,-1,38
 828 80 828 80 828 55 c 0,39,40
 828 24 828 24 825 18 c 128,-1,41
 822 12 822 12 806 7 c 128,-1,42
 790 2 790 2 784.5 6 c 128,-1,43
 779 10 779 10 763 40 c 0,44,45
 751 62 751 62 740 88 c 2,46,-1
 726 124 l 2,47,48
 722 132 722 132 721 133.5 c 128,-1,49
 720 135 720 135 716 135 c 0,50,51
 714 135 714 135 486 82 c 2,52,-1
 200 16 l 2,53,54
 186 12 186 12 182.5 10 c 128,-1,55
 179 8 179 8 170 0 c 1,56,57
 162 -9 162 -9 157 -15.5 c 128,-1,58
 152 -22 152 -22 151 -24.5 c 128,-1,59
 150 -27 150 -27 149 -28.5 c 128,-1,60
 148 -30 148 -30 145 -30 c 0,61,62
 136 -30 136 -30 133 -25 c 128,-1,63
 130 -20 130 -20 119 8.5 c 128,-1,64
 108 37 108 37 106.5 44.5 c 128,-1,65
 105 52 105 52 105 68 c 0,66,67
 105 78 105 78 108 80.5 c 128,-1,68
 111 83 111 83 130 84 c 1,69,70
 154 87 154 87 173 85 c 1,71,-1
 227 85 l 1,72,-1
 249 129 l 1,73,74
 338 314 338 314 378 460 c 0,75,76
 395 525 395 525 395 526 c 0,77,78
 402 547 402 547 404 550.5 c 128,-1,79
 406 554 406 554 414 554 c 0,0,1
EndSplineSet
Validated: 33
EndChar

StartChar: uni2F1C
Encoding: 12060 12060 89
Width: 920
GlyphClass: 2
Flags: MW
LayerCount: 2
Fore
SplineSet
277 695 m 2,0,1
 285 695 285 695 322.5 696 c 128,-1,2
 360 697 360 697 425 698 c 128,-1,3
 490 699 490 699 567 699 c 2,4,-1
 672 699 l 1,5,-1
 692 718 l 2,6,7
 706 732 706 732 710 734 c 128,-1,8
 714 736 714 736 723 734 c 1,9,10
 771 699 771 699 779 690 c 128,-1,11
 787 681 787 681 787 662 c 1,12,13
 782 652 782 652 779 649 c 128,-1,14
 776 646 776 646 759 640 c 1,15,-1
 742 632 l 1,16,17
 734 626 734 626 722 590 c 2,18,-1
 692 506 l 1,19,20
 680 469 680 469 672.5 453 c 128,-1,21
 665 437 665 437 631.5 376 c 128,-1,22
 598 315 598 315 584.5 295 c 128,-1,23
 571 275 571 275 524 215 c 1,24,25
 526 204 526 204 531 199 c 128,-1,26
 536 194 536 194 562 177 c 1,27,28
 657 101 657 101 696.5 82.5 c 128,-1,29
 736 64 736 64 875 28 c 1,30,31
 881 23 881 23 881 14 c 128,-1,32
 881 5 881 5 879 0 c 1,33,-1
 828 -31 l 1,34,-1
 818 -40 l 2,35,36
 816 -41 816 -41 813 -41 c 0,37,38
 796 -41 796 -41 783.5 -36 c 128,-1,39
 771 -31 771 -31 709.5 -0.5 c 128,-1,40
 648 30 648 30 628.5 42.5 c 128,-1,41
 609 55 609 55 551 99 c 1,42,-1
 509 135 l 1,43,44
 497 147 497 147 488 157 c 1,45,-1
 480 170 l 1,46,-1
 478 171 l 1,47,-1
 454 146 l 1,48,49
 403 100 403 100 384 86 c 128,-1,50
 365 72 365 72 302 34 c 0,51,52
 180 -40 180 -40 114 -61 c 0,53,54
 62 -77 62 -77 54 -77 c 0,55,56
 49 -77 49 -77 44 -72 c 128,-1,57
 39 -67 39 -67 39 -60 c 0,58,59
 39 -54 39 -54 41.5 -51 c 128,-1,60
 44 -48 44 -48 68 -36 c 128,-1,61
 92 -24 92 -24 145 -3 c 0,62,63
 179 10 179 10 193 17.5 c 128,-1,64
 207 25 207 25 257 55.5 c 128,-1,65
 307 86 307 86 322.5 97.5 c 128,-1,66
 338 109 338 109 381 149 c 0,67,68
 422 187 422 187 436 206 c 1,69,-1
 435 214 l 1,70,71
 410 240 410 240 398 258 c 128,-1,72
 386 276 386 276 342 361.5 c 128,-1,73
 298 447 298 447 287 476.5 c 128,-1,74
 276 506 276 506 253 601 c 2,75,-1
 241 652 l 1,76,77
 235 657 235 657 230 658 c 128,-1,78
 225 659 225 659 200 659 c 0,79,80
 169 659 169 659 117 653 c 0,81,82
 110 653 110 653 105 652 c 1,83,84
 90 660 90 660 84 698 c 1,85,86
 88 695 88 695 90 695 c 2,87,-1
 277 695 l 2,0,1
681 659 m 1,88,-1
 681 661 l 1,89,90
 547 661 547 661 413 660 c 1,91,-1
 279 660 l 1,92,-1
 276 656 l 1,93,94
 288 592 288 592 294.5 571.5 c 128,-1,95
 301 551 301 551 328 490 c 1,96,97
 329 485 329 485 335.5 469.5 c 128,-1,98
 342 454 342 454 345.5 447.5 c 128,-1,99
 349 441 349 441 356.5 425 c 128,-1,100
 364 409 364 409 372 396 c 128,-1,101
 380 383 380 383 392 364.5 c 128,-1,102
 404 346 404 346 420 325 c 128,-1,103
 436 304 436 304 455 280 c 0,104,105
 479 250 479 250 481 250 c 1,106,107
 505 271 505 271 515.5 287 c 128,-1,108
 526 303 526 303 564.5 378 c 128,-1,109
 603 453 603 453 612.5 473.5 c 128,-1,110
 622 494 622 494 639 542 c 1,111,-1
 671 639 l 1,112,113
 676 650 676 650 681 659 c 1,88,-1
EndSplineSet
Validated: 1
EndChar

StartChar: uni2F1F
Encoding: 12063 12063 92
Width: 920
GlyphClass: 2
Flags: MW
LayerCount: 2
Fore
SplineSet
324 -35 m 0,0,1
 345 -35 345 -35 377 -34.5 c 128,-1,2
 409 -34 409 -34 416 -34 c 1,3,4
 425 -30 425 -30 426.5 -28.5 c 128,-1,5
 428 -27 428 -27 428 -22 c 2,6,-1
 428 359 l 1,7,8
 426 364 426 364 423.5 365 c 128,-1,9
 421 366 421 366 410 366 c 2,10,-1
 202 366 l 2,11,12
 189 366 189 366 146 361 c 1,13,14
 139 366 139 366 136 372 c 128,-1,15
 133 378 133 378 122 409 c 1,16,17
 124 415 124 415 125 416.5 c 128,-1,18
 126 418 126 418 133 419 c 1,19,20
 212 406 212 406 240 404 c 128,-1,21
 268 402 268 402 357 402 c 0,22,23
 402 402 402 402 416 406 c 1,24,25
 424 406 424 406 425.5 407.5 c 128,-1,26
 427 409 427 409 427 419 c 2,27,-1
 427 641 l 2,28,29
 427 643 427 643 426.5 651 c 128,-1,30
 426 659 426 659 426 661 c 2,31,-1
 416 732 l 1,32,-1
 416 733 l 2,33,34
 416 739 416 739 424 742 c 1,35,36
 450 742 450 742 486 734 c 0,37,38
 514 727 514 727 518.5 723.5 c 128,-1,39
 523 720 523 720 523 707 c 0,40,41
 523 699 523 699 521 696.5 c 128,-1,42
 519 694 519 694 507 687 c 1,43,-1
 487 673 l 2,44,45
 484 670 484 670 483 667 c 1,46,47
 483 599 483 599 482.5 547 c 128,-1,48
 482 495 482 495 482 458 c 2,49,-1
 482 419 l 1,50,51
 484 409 484 409 485.5 407.5 c 128,-1,52
 487 406 487 406 494 406 c 2,53,-1
 574 406 l 2,54,55
 618 406 618 406 636.5 406.5 c 128,-1,56
 655 407 655 407 656 407 c 0,57,58
 668 412 668 412 685 437 c 128,-1,59
 702 462 702 462 710 469 c 1,60,-1
 722 467 l 1,61,-1
 771 423 l 1,62,63
 789 404 789 404 792 399.5 c 128,-1,64
 795 395 795 395 795 386 c 0,65,66
 795 373 795 373 789 371 c 128,-1,67
 783 369 783 369 748 369 c 0,68,69
 690 369 690 369 599.5 367.5 c 128,-1,70
 509 366 509 366 490 366 c 1,71,-1
 484 360 l 1,72,-1
 484 -22 l 2,73,74
 484 -28 484 -28 493 -32 c 1,75,-1
 740 -32 l 1,76,-1
 750 -28 l 1,77,-1
 782 22 l 1,78,79
 788 29 788 29 795 34 c 1,80,81
 806 32 806 32 811.5 28 c 128,-1,82
 817 24 817 24 838.5 2.5 c 128,-1,83
 860 -19 860 -19 865 -25 c 128,-1,84
 870 -31 870 -31 879 -47 c 1,85,86
 881 -63 881 -63 877.5 -65.5 c 128,-1,87
 874 -68 874 -68 850 -68 c 1,88,89
 847 -69 847 -69 838 -69 c 2,90,-1
 504 -69 l 2,91,92
 372 -69 372 -69 240 -71 c 2,93,-1
 107 -73 l 1,94,-1
 71 -78 l 1,95,96
 62 -77 62 -77 55 -73 c 1,97,98
 43 -50 43 -50 41.5 -44 c 128,-1,99
 40 -38 40 -38 42 -26 c 1,100,-1
 46 -22 l 1,101,102
 102 -32 102 -32 137 -33.5 c 128,-1,103
 172 -35 172 -35 324 -35 c 0,0,1
EndSplineSet
Validated: 1
EndChar

StartChar: uni2F20
Encoding: 12064 12064 93
Width: 920
GlyphClass: 2
Flags: MW
LayerCount: 2
Fore
SplineSet
327 415 m 0,0,1
 343 415 343 415 368 416 c 128,-1,2
 393 417 393 417 404 417 c 0,3,4
 411 417 411 417 418 428 c 1,5,6
 418 537 418 537 414 628 c 2,7,-1
 410 720 l 2,8,9
 410 728 410 728 411.5 730 c 128,-1,10
 413 732 413 732 421 732 c 0,11,12
 438 732 438 732 472 722 c 0,13,14
 498 715 498 715 502 712.5 c 128,-1,15
 506 710 506 710 506 700 c 0,16,17
 506 691 506 691 489.5 677 c 128,-1,18
 473 663 473 663 472 658 c 0,19,20
 471 650 471 650 471 630 c 0,21,22
 471 627 471 627 472.5 550.5 c 128,-1,23
 474 474 474 474 474 426 c 1,24,25
 475 422 475 422 475.5 421 c 128,-1,26
 476 420 476 420 477 419.5 c 128,-1,27
 478 419 478 419 481 419 c 0,28,29
 493 417 493 417 522 417 c 0,30,31
 536 417 536 417 608 418.5 c 128,-1,32
 680 420 680 420 744 420 c 1,33,-1
 766 445 l 2,34,35
 787 470 787 470 798 476 c 1,36,37
 817 476 817 476 826.5 467.5 c 128,-1,38
 836 459 836 459 877 408 c 1,39,40
 877 398 877 398 876 393.5 c 128,-1,41
 875 389 875 389 868 385.5 c 128,-1,42
 861 382 861 382 846 382 c 2,43,-1
 821 382 l 2,44,45
 818 382 818 382 787 382.5 c 128,-1,46
 756 383 756 383 697 383 c 2,47,-1
 520 383 l 2,48,49
 498 383 498 383 487 379.5 c 128,-1,50
 476 376 476 376 475.5 374.5 c 128,-1,51
 475 373 475 373 473 367 c 1,52,53
 473 304 473 304 472 208 c 128,-1,54
 471 112 471 112 471 71 c 0,55,56
 471 64 471 64 471.5 35.5 c 128,-1,57
 472 7 472 7 472 0 c 0,58,59
 472 -9 472 -9 473.5 -14 c 128,-1,60
 475 -19 475 -19 479.5 -21 c 128,-1,61
 484 -23 484 -23 488 -23.5 c 128,-1,62
 492 -24 492 -24 501 -24 c 0,63,64
 511 -24 511 -24 562.5 -23 c 128,-1,65
 614 -22 614 -22 659 -22 c 0,66,67
 664 -22 664 -22 671 -21.5 c 128,-1,68
 678 -21 678 -21 680 -21 c 1,69,70
 690 -13 690 -13 705.5 10.5 c 128,-1,71
 721 34 721 34 726 35 c 1,72,-1
 749 35 l 1,73,74
 750 33 750 33 766.5 17 c 128,-1,75
 783 1 783 1 798 -16.5 c 128,-1,76
 813 -34 813 -34 813 -45 c 0,77,78
 813 -48 813 -48 812 -50 c 1,79,-1
 801 -57 l 1,80,-1
 201 -57 l 2,81,82
 200 -57 200 -57 198 -59.5 c 128,-1,83
 196 -62 196 -62 194 -62 c 0,84,85
 170 -70 170 -70 113 -70 c 0,86,87
 107 -70 107 -70 102 -71 c 1,88,89
 91 -57 91 -57 89 -50 c 128,-1,90
 87 -43 87 -43 87 -17 c 1,91,-1
 94 -14 l 1,92,93
 150 -24 150 -24 179.5 -26 c 128,-1,94
 209 -28 209 -28 329 -28 c 0,95,96
 379 -28 379 -28 409 -23 c 0,97,98
 414 -23 414 -23 415 -20 c 128,-1,99
 416 -17 416 -17 417 2 c 0,100,101
 418 27 418 27 417 42 c 1,102,103
 417 144 417 144 417.5 218 c 128,-1,104
 418 292 418 292 418 370 c 1,105,106
 412 380 412 380 406 380 c 2,107,-1
 244 380 l 2,108,109
 191 380 191 380 168.5 379.5 c 128,-1,110
 146 379 146 379 145 379 c 2,111,-1
 76 379 l 2,112,113
 75 379 75 379 72.5 376.5 c 128,-1,114
 70 374 70 374 69 374 c 0,115,116
 50 377 50 377 46.5 383.5 c 128,-1,117
 43 390 43 390 43 425 c 1,118,-1
 50 431 l 1,119,120
 118 419 118 419 152.5 417 c 128,-1,121
 187 415 187 415 327 415 c 0,0,1
EndSplineSet
Validated: 33
EndChar

StartChar: uni2F21
Encoding: 12065 12065 94
Width: 920
GlyphClass: 2
Flags: MW
LayerCount: 2
Fore
SplineSet
355 579 m 1,0,1
 358 573 358 573 429 573 c 2,2,-1
 503 573 l 1,3,-1
 507 596 l 1,4,-1
 510 614 l 2,5,6
 513 628 513 628 518 628 c 0,7,8
 526 628 526 628 528.5 622.5 c 128,-1,9
 531 617 531 617 541 583.5 c 128,-1,10
 551 550 551 550 552.5 542 c 128,-1,11
 554 534 554 534 554 520 c 0,12,13
 554 514 554 514 552.5 509 c 128,-1,14
 551 504 551 504 548.5 500 c 128,-1,15
 546 496 546 496 541 487.5 c 128,-1,16
 536 479 536 479 531 468 c 0,17,18
 527 458 527 458 520 429 c 128,-1,19
 513 400 513 400 499 347.5 c 128,-1,20
 485 295 485 295 466 238 c 0,21,22
 456 210 456 210 456 205 c 256,23,24
 456 200 456 200 459 196 c 128,-1,25
 462 192 462 192 479.5 169 c 128,-1,26
 497 146 497 146 504.5 138.5 c 128,-1,27
 512 131 512 131 540.5 106.5 c 128,-1,28
 569 82 569 82 577 77.5 c 128,-1,29
 585 73 585 73 606 70 c 0,30,31
 631 67 631 67 638 60 c 128,-1,32
 645 53 645 53 645 42 c 0,33,34
 645 41 645 41 644.5 36 c 128,-1,35
 644 31 644 31 644 28 c 0,36,37
 644 20 644 20 631.5 -6.5 c 128,-1,38
 619 -33 619 -33 615 -47 c 0,39,40
 614 -54 614 -54 612.5 -55.5 c 128,-1,41
 611 -57 611 -57 604 -57 c 0,42,43
 592 -57 592 -57 586 -52.5 c 128,-1,44
 580 -48 580 -48 555 -23 c 0,45,46
 522 11 522 11 500 41 c 2,47,-1
 454 103 l 1,48,49
 432 136 432 136 429 136 c 0,50,51
 428 136 428 136 413 112 c 2,52,-1
 376 57 l 2,53,54
 354 25 354 25 315 -15 c 0,55,56
 286 -45 286 -45 276 -53.5 c 128,-1,57
 266 -62 266 -62 234 -82 c 1,58,59
 209 -99 209 -99 202 -99 c 0,60,61
 198 -99 198 -99 198 -94 c 0,62,63
 198 -88 198 -88 198.5 -84.5 c 128,-1,64
 199 -81 199 -81 207 -70.5 c 128,-1,65
 215 -60 215 -60 232 -45 c 0,66,67
 278 -4 278 -4 343 94 c 1,68,-1
 384 160 l 1,69,70
 405 196 405 196 405 198 c 0,71,72
 405 202 405 202 397.5 220.5 c 128,-1,73
 390 239 390 239 373.5 291.5 c 128,-1,74
 357 344 357 344 339 416 c 0,75,76
 326 465 326 465 325 465 c 1,77,78
 326 465 326 465 319 443 c 128,-1,79
 312 421 312 421 294 372.5 c 128,-1,80
 276 324 276 324 253 271 c 0,81,82
 231 222 231 222 225.5 214 c 128,-1,83
 220 206 220 206 209 204 c 0,84,85
 205 203 205 203 204.5 204.5 c 128,-1,86
 204 206 204 206 204 215 c 0,87,88
 204 220 204 220 217 248 c 1,89,-1
 246 319 l 2,90,91
 269 375 269 375 277 402.5 c 128,-1,92
 285 430 285 430 310 536.5 c 128,-1,93
 335 643 335 643 339 668.5 c 128,-1,94
 343 694 343 694 343 741 c 0,95,96
 343 758 343 758 343.5 760.5 c 128,-1,97
 344 763 344 763 348 763 c 0,98,99
 353 763 353 763 356.5 760.5 c 128,-1,100
 360 758 360 758 375.5 744.5 c 128,-1,101
 391 731 391 731 393.5 726 c 128,-1,102
 396 721 396 721 396 707 c 0,103,104
 396 692 396 692 391.5 683 c 128,-1,105
 387 674 387 674 381 669 c 128,-1,106
 375 664 375 664 374 661 c 0,107,108
 372 658 372 658 367.5 637.5 c 128,-1,109
 363 617 363 617 359 598 c 2,110,-1
 355 579 l 1,0,1
436 259 m 1,111,112
 473 361 473 361 500 516 c 1,113,-1
 342 516 l 1,114,-1
 340 506 l 2,115,116
 338 498 338 498 338 496 c 0,117,118
 338 482 338 482 342.5 466.5 c 128,-1,119
 347 451 347 451 372.5 374 c 128,-1,120
 398 297 398 297 405 280.5 c 128,-1,121
 412 264 412 264 429 242 c 1,122,-1
 436 259 l 1,111,112
EndSplineSet
Validated: 5
EndChar

StartChar: uni2F22
Encoding: 12066 12066 95
Width: 920
GlyphClass: 2
Flags: MW
LayerCount: 2
Fore
SplineSet
295 188 m 1,0,1
 244 148 244 148 177 114.5 c 128,-1,2
 110 81 110 81 78 81 c 0,3,4
 59 81 59 81 51 92 c 1,5,6
 63 97 63 97 94 111.5 c 128,-1,7
 125 126 125 126 136 131.5 c 128,-1,8
 147 137 147 137 170.5 149 c 128,-1,9
 194 161 194 161 206.5 170 c 128,-1,10
 219 179 219 179 236 192 c 128,-1,11
 253 205 253 205 267 219 c 1,12,13
 238 255 238 255 238 256 c 2,14,-1
 232 271 l 1,15,-1
 273 271 l 1,16,-1
 288 234 l 2,17,18
 289 233 289 233 290 233 c 0,19,20
 295 233 295 233 307.5 251.5 c 128,-1,21
 320 270 320 270 330 288 c 2,22,-1
 339 306 l 1,23,-1
 353 353 l 1,24,25
 357 357 357 357 367 357 c 0,26,27
 376 357 376 357 411.5 347.5 c 128,-1,28
 447 338 447 338 447 327 c 2,29,-1
 447 325 l 1,30,-1
 406 302 l 1,31,-1
 397 293 l 1,32,-1
 372 259 l 1,33,-1
 620 258 l 1,34,-1
 647 283 l 1,35,36
 656 289 656 289 665 289 c 0,37,38
 672 289 672 289 676 287 c 1,39,-1
 719 239 l 1,40,41
 719 231 719 231 712.5 226.5 c 128,-1,42
 706 222 706 222 696.5 219.5 c 128,-1,43
 687 217 687 217 684 215 c 0,44,45
 672 208 672 208 639 167.5 c 128,-1,46
 606 127 606 127 597 118 c 2,47,-1
 530 55 l 1,48,49
 671 -10 671 -10 889 -27 c 1,50,51
 887 -36 887 -36 842 -78 c 1,52,-1
 839 -78 l 2,53,54
 786 -78 786 -78 686 -47 c 128,-1,55
 586 -16 586 -16 487 29 c 1,56,57
 286 -68 286 -68 53 -93 c 1,58,59
 30 -85 30 -85 30 -81 c 0,60,61
 30 -75 30 -75 46.5 -70.5 c 128,-1,62
 63 -66 63 -66 99 -58.5 c 128,-1,63
 135 -51 135 -51 181 -40 c 128,-1,64
 227 -29 227 -29 298 -3 c 128,-1,65
 369 23 369 23 443 58 c 1,66,67
 346 130 346 130 295 188 c 1,0,1
616 231 m 1,68,-1
 345 231 l 1,69,-1
 319 206 l 1,70,71
 379 140 379 140 463 92 c 1,72,-1
 484 81 l 1,73,74
 554 132 554 132 616 231 c 1,68,-1
EndSplineSet
Validated: 1
EndChar

StartChar: uni2F23
Encoding: 12067 12067 96
Width: 920
GlyphClass: 2
Flags: MW
LayerCount: 2
Fore
SplineSet
511 260 m 0,0,1
 511 248 511 248 506 238 c 0,2,3
 501 230 501 230 499.5 228.5 c 128,-1,4
 498 227 498 227 492 227 c 0,5,6
 480 227 480 227 476.5 229 c 128,-1,7
 473 231 473 231 465 242 c 2,8,-1
 379 361 l 1,9,10
 336 416 336 416 325 425.5 c 128,-1,11
 314 435 314 435 291 435 c 0,12,13
 288 435 288 435 286 434.5 c 128,-1,14
 284 434 284 434 282 433 c 128,-1,15
 280 432 280 432 277 429 c 128,-1,16
 274 426 274 426 270.5 422.5 c 128,-1,17
 267 419 267 419 259.5 411.5 c 128,-1,18
 252 404 252 404 243.5 395.5 c 128,-1,19
 235 387 235 387 220.5 374 c 128,-1,20
 206 361 206 361 188 346 c 1,21,22
 157 317 157 317 146.5 310 c 128,-1,23
 136 303 136 303 106 287 c 1,24,25
 98 287 98 287 96 288.5 c 128,-1,26
 94 290 94 290 89 298 c 1,27,-1
 90 307 l 1,28,29
 158 361 158 361 257 471 c 0,30,31
 296 514 296 514 308 530.5 c 128,-1,32
 320 547 320 547 351.5 601.5 c 128,-1,33
 383 656 383 656 390.5 673.5 c 128,-1,34
 398 691 398 691 412 742 c 1,35,-1
 417 765 l 2,36,37
 419 770 419 770 424 772 c 1,38,39
 465 766 465 766 508 749 c 1,40,41
 516 743 516 743 517.5 740.5 c 128,-1,42
 519 738 519 738 519 731 c 1,43,44
 515 721 515 721 511.5 718.5 c 128,-1,45
 508 716 508 716 488 711.5 c 128,-1,46
 468 707 468 707 464 704.5 c 128,-1,47
 460 702 460 702 455 692 c 2,48,-1
 433 651 l 1,49,-1
 421 638 l 1,50,-1
 416 635 l 1,51,-1
 418 632 l 1,52,-1
 704 632 l 2,53,54
 722 632 722 632 725 633.5 c 128,-1,55
 728 635 728 635 742 650 c 1,56,57
 754 661 754 661 757 663 c 128,-1,58
 760 665 760 665 766 665 c 0,59,60
 781 665 781 665 787.5 660.5 c 128,-1,61
 794 656 794 656 820 627 c 1,62,-1
 829 614 l 2,63,64
 831 611 831 611 831 607 c 0,65,66
 831 599 831 599 829 596 c 128,-1,67
 827 593 827 593 815 585 c 1,68,-1
 789 564 l 1,69,-1
 776 547 l 2,70,71
 773 543 773 543 770.5 533 c 128,-1,72
 768 523 768 523 757.5 490 c 128,-1,73
 747 457 747 457 729 411 c 0,74,75
 715 374 715 374 706.5 358 c 128,-1,76
 698 342 698 342 660.5 283.5 c 128,-1,77
 623 225 623 225 608.5 206.5 c 128,-1,78
 594 188 594 188 542 134 c 0,79,80
 497 87 497 87 478 67.5 c 128,-1,81
 459 48 459 48 426.5 18.5 c 128,-1,82
 394 -11 394 -11 384 -19.5 c 128,-1,83
 374 -28 374 -28 344.5 -45.5 c 128,-1,84
 315 -63 315 -63 303.5 -66.5 c 128,-1,85
 292 -70 292 -70 255.5 -81 c 128,-1,86
 219 -92 219 -92 196.5 -96 c 128,-1,87
 174 -100 174 -100 121 -111 c 1,88,89
 110 -109 110 -109 108 -107 c 128,-1,90
 106 -105 106 -105 106 -97 c 0,91,92
 106 -88 106 -88 108 -86 c 128,-1,93
 110 -84 110 -84 121 -80 c 0,94,95
 181 -61 181 -61 204.5 -54 c 128,-1,96
 228 -47 228 -47 264 -31.5 c 128,-1,97
 300 -16 300 -16 311 -9 c 128,-1,98
 322 -2 322 -2 353 22.5 c 128,-1,99
 384 47 384 47 401.5 64.5 c 128,-1,100
 419 82 419 82 464 126.5 c 128,-1,101
 509 171 509 171 526.5 188.5 c 128,-1,102
 544 206 544 206 569.5 236.5 c 128,-1,103
 595 267 595 267 602 277.5 c 128,-1,104
 609 288 609 288 626.5 323.5 c 128,-1,105
 644 359 644 359 653 382 c 128,-1,106
 662 405 662 405 684 464 c 1,107,-1
 722 576 l 2,108,109
 723 579 723 579 725 582 c 2,110,-1
 738 597 l 2,111,112
 739 599 739 599 739 601 c 1,113,-1
 736 604 l 1,114,115
 708 598 708 598 703 598 c 0,116,117
 604 599 604 599 527 599 c 2,118,-1
 428 599 l 2,119,120
 419 599 419 599 416 597 c 128,-1,121
 413 595 413 595 408 594 c 1,122,123
 408 594 408 594 407 594 c 0,124,125
 405 594 405 594 402.5 591 c 128,-1,126
 400 588 400 588 390 574 c 2,127,128
 390 574 390 574 353 520 c 0,129,130
 334 494 334 494 328 487.5 c 128,-1,131
 322 481 322 481 306 468 c 1,132,133
 307 465 307 465 340 444 c 1,134,-1
 410 395 l 2,135,136
 436 377 436 377 444 369.5 c 128,-1,137
 452 362 452 362 477.5 333 c 128,-1,138
 503 304 503 304 507 295 c 128,-1,139
 511 286 511 286 511 260 c 0,0,1
EndSplineSet
Validated: 1
EndChar

StartChar: uni2F25
Encoding: 12069 12069 98
Width: 920
GlyphClass: 2
Flags: MW
LayerCount: 2
Fore
SplineSet
750 530 m 1,0,1
 755 534 755 534 772.5 558 c 128,-1,2
 790 582 790 582 803 589 c 1,3,-1
 813 587 l 1,4,-1
 867 534 l 2,5,6
 876 524 876 524 882 513 c 1,7,8
 883 504 883 504 880 498 c 1,9,-1
 872 492 l 1,10,-1
 871 491 l 1,11,12
 863 489 863 489 837 489 c 0,13,14
 805 489 805 489 746 492 c 1,15,-1
 684 492 l 1,16,-1
 668 489 l 2,17,18
 662 487 662 487 657 475 c 1,19,-1
 646 408 l 1,20,21
 624 301 624 301 610.5 268.5 c 128,-1,22
 597 236 597 236 541 150 c 1,23,24
 541 146 541 146 549.5 141.5 c 128,-1,25
 558 137 558 137 610 112 c 128,-1,26
 662 87 662 87 680 76.5 c 128,-1,27
 698 66 698 66 757 28 c 0,28,29
 770 20 770 20 774 15 c 128,-1,30
 778 10 778 10 786.5 -9.5 c 128,-1,31
 795 -29 795 -29 796.5 -34 c 128,-1,32
 798 -39 798 -39 798 -52 c 0,33,34
 798 -64 798 -64 792 -69 c 128,-1,35
 786 -74 786 -74 781 -74 c 0,36,37
 774 -74 774 -74 768.5 -70.5 c 128,-1,38
 763 -67 763 -67 736 -46 c 2,39,-1
 643 23 l 2,40,41
 608 50 608 50 564 78 c 0,42,43
 532 98 532 98 525 101.5 c 128,-1,44
 518 105 518 105 510 105 c 0,45,46
 505 105 505 105 500 101 c 128,-1,47
 495 97 495 97 485.5 88 c 128,-1,48
 476 79 476 79 463 67 c 128,-1,49
 450 55 450 55 424.5 36.5 c 128,-1,50
 399 18 399 18 366 -2 c 0,51,52
 334 -22 334 -22 319.5 -29 c 128,-1,53
 305 -36 305 -36 250 -55 c 256,54,55
 195 -74 195 -74 175 -79 c 128,-1,56
 155 -84 155 -84 90 -94 c 0,57,58
 72 -97 72 -97 64 -97 c 0,59,60
 54 -97 54 -97 52 -95.5 c 128,-1,61
 50 -94 50 -94 47.5 -83.5 c 128,-1,62
 45 -73 45 -73 45.5 -70.5 c 128,-1,63
 46 -68 46 -68 54 -63 c 1,64,65
 134 -50 134 -50 165.5 -44.5 c 128,-1,66
 197 -39 197 -39 242 -26.5 c 128,-1,67
 287 -14 287 -14 300 -8 c 128,-1,68
 313 -2 313 -2 344.5 21 c 128,-1,69
 376 44 376 44 392 61 c 128,-1,70
 408 78 408 78 449 120 c 1,71,72
 457 125 457 125 457 133 c 1,73,74
 456 136 456 136 446 143 c 1,75,-1
 299 204 l 1,76,-1
 267 213 l 1,77,78
 264 215 264 215 261.5 213.5 c 128,-1,79
 259 212 259 212 258 211.5 c 128,-1,80
 257 211 257 211 254.5 206.5 c 128,-1,81
 252 202 252 202 249.5 198 c 128,-1,82
 247 194 247 194 241 184.5 c 128,-1,83
 235 175 235 175 227 165 c 0,84,85
 217 152 217 152 213.5 150 c 128,-1,86
 210 148 210 148 199 148 c 0,87,88
 189 148 189 148 177 157 c 1,89,90
 171 164 171 164 172 176 c 1,91,-1
 174 186 l 1,92,93
 177 193 177 193 195.5 224 c 128,-1,94
 214 255 214 255 246 322 c 128,-1,95
 278 389 278 389 313 483 c 1,96,97
 310 488 310 488 307 489 c 128,-1,98
 304 490 304 490 288 489 c 2,99,-1
 138 487 l 1,100,-1
 137 487 l 1,101,-1
 70 482 l 1,102,-1
 66 482 l 1,103,104
 58 483 58 483 56 485.5 c 128,-1,105
 54 488 54 488 47 502 c 0,106,107
 38 521 38 521 38 530 c 0,108,109
 38 538 38 538 39 539 c 128,-1,110
 40 540 40 540 48 540 c 1,111,-1
 105 530 l 1,112,113
 174 523 174 523 235 523 c 0,114,115
 260 523 260 523 283 524 c 0,116,117
 305 524 305 524 315.5 526.5 c 128,-1,118
 326 529 326 529 328.5 532.5 c 128,-1,119
 331 536 331 536 335 545 c 0,120,121
 367 622 367 622 374.5 648 c 128,-1,122
 382 674 382 674 393 756 c 1,123,124
 399 760 399 760 412 760 c 0,125,126
 433 760 433 760 440 759 c 128,-1,127
 447 758 447 758 469.5 750.5 c 128,-1,128
 492 743 492 743 495 740 c 128,-1,129
 498 737 498 737 497 725 c 1,130,131
 494 715 494 715 490.5 712.5 c 128,-1,132
 487 710 487 710 468 704 c 0,133,134
 466 703 466 703 461 702 c 0,135,136
 444 697 444 697 437.5 685 c 128,-1,137
 431 673 431 673 410 605 c 0,138,139
 403 582 403 582 399 568 c 1,140,-1
 385 530 l 1,141,142
 385 526 385 526 388 526 c 2,143,-1
 748 530 l 1,144,-1
 750 530 l 1,0,1
599 483 m 0,145,146
 599 487 599 487 596 487 c 0,147,148
 573 490 573 490 514 490 c 0,149,150
 414 490 414 490 396 489 c 128,-1,151
 378 488 378 488 371 483 c 1,152,153
 313 330 313 330 275 253 c 1,154,-1
 278 249 l 1,155,156
 306 241 306 241 354 222.5 c 128,-1,157
 402 204 402 204 439 189.5 c 128,-1,158
 476 175 476 175 486 175 c 0,159,160
 491 175 491 175 494 177 c 1,161,162
 542 249 542 249 557.5 280 c 128,-1,163
 573 311 573 311 580.5 348 c 128,-1,164
 588 385 588 385 599 483 c 0,145,146
EndSplineSet
Validated: 1
EndChar

StartChar: uni2F26
Encoding: 12070 12070 99
Width: 920
GlyphClass: 2
Flags: MW
LayerCount: 2
Fore
SplineSet
562 374 m 0,0,1
 640 374 640 374 691.5 375.5 c 128,-1,2
 743 377 743 377 750 377 c 1,3,4
 752 378 752 378 774 406 c 0,5,6
 790 427 790 427 794 430.5 c 128,-1,7
 798 434 798 434 806 434 c 128,-1,8
 814 434 814 434 819 429.5 c 128,-1,9
 824 425 824 425 850 399 c 128,-1,10
 876 373 876 373 880 367.5 c 128,-1,11
 884 362 884 362 884 356 c 0,12,13
 884 347 884 347 875 339 c 1,14,-1
 576 338 l 2,15,16
 504 338 504 338 494 336.5 c 128,-1,17
 484 335 484 335 482 323 c 1,18,19
 480 296 480 296 480 219 c 0,20,21
 480 162 480 162 481 78 c 0,22,23
 481 74 481 74 482 70 c 1,24,-1
 482 -16 l 1,25,26
 480 -40 480 -40 476 -46 c 128,-1,27
 472 -52 472 -52 451 -66 c 128,-1,28
 430 -80 430 -80 423 -82.5 c 128,-1,29
 416 -85 416 -85 397 -88 c 1,30,31
 387 -84 387 -84 379.5 -67 c 128,-1,32
 372 -50 372 -50 361 -46 c 0,33,34
 339 -37 339 -37 327 -34.5 c 128,-1,35
 315 -32 315 -32 265 -28 c 1,36,37
 256 -22 256 -22 255 -19.5 c 128,-1,38
 254 -17 254 -17 255 -6.5 c 128,-1,39
 256 4 256 4 258 5.5 c 128,-1,40
 260 7 260 7 270 7 c 0,41,42
 283 7 283 7 335 3.5 c 128,-1,43
 387 0 387 0 400 0 c 0,44,45
 419 0 419 0 423 8 c 128,-1,46
 427 16 427 16 427 61 c 0,47,48
 427 80 427 80 426 106 c 1,49,50
 426 256 426 256 425 330 c 1,51,-1
 415 336 l 1,52,-1
 349 336 l 1,53,-1
 113 335 l 1,54,-1
 66 330 l 1,55,56
 56 331 56 331 53 333.5 c 128,-1,57
 50 336 50 336 44 352 c 1,58,59
 35 372 35 372 36 382 c 1,60,-1
 44 386 l 1,61,62
 102 377 102 377 130.5 375.5 c 128,-1,63
 159 374 159 374 274 374 c 0,64,65
 320 374 320 374 356 375 c 128,-1,66
 392 376 392 376 417 376 c 1,67,68
 425 381 425 381 426 384.5 c 128,-1,69
 427 388 427 388 427 407 c 0,70,71
 427 440 427 440 422 515 c 0,72,73
 422 528 422 528 421 536 c 1,74,75
 425 542 425 542 427 543 c 128,-1,76
 429 544 429 544 439 544 c 0,77,78
 448 544 448 544 459 541.5 c 128,-1,79
 470 539 470 539 472 539 c 1,80,81
 477 536 477 536 483 536 c 0,82,83
 494 536 494 536 498.5 538 c 128,-1,84
 503 540 503 540 519 551 c 2,85,-1
 529 558 l 2,86,87
 583 595 583 595 599.5 608.5 c 128,-1,88
 616 622 616 622 663 668 c 0,89,90
 664 670 664 670 663 671 c 128,-1,91
 662 672 662 672 656 674 c 1,92,-1
 253 674 l 2,93,94
 250 674 250 674 188 668 c 1,95,96
 172 678 172 678 168.5 685 c 128,-1,97
 165 692 165 692 162 722 c 1,98,-1
 172 728 l 1,99,100
 216 717 216 717 239 715 c 128,-1,101
 262 713 262 713 355 713 c 2,102,-1
 582 714 l 1,103,-1
 662 714 l 2,104,105
 676 714 676 714 680.5 716 c 128,-1,106
 685 718 685 718 698.5 730.5 c 128,-1,107
 712 743 712 743 715.5 744.5 c 128,-1,108
 719 746 719 746 728 745 c 1,109,110
 742 736 742 736 747.5 730 c 128,-1,111
 753 724 753 724 770 697 c 1,112,-1
 782 673 l 1,113,-1
 783 660 l 1,114,115
 781 651 781 651 776 649.5 c 128,-1,116
 771 648 771 648 745 649 c 1,117,-1
 738 649 l 1,118,119
 695 617 695 617 677.5 605.5 c 128,-1,120
 660 594 660 594 598 559 c 1,121,-1
 540 528 l 1,122,-1
 531 521 l 1,123,-1
 518 499 l 1,124,125
 512 493 512 493 495 487 c 1,126,-1
 485 481 l 1,127,128
 482 478 482 478 482 474 c 0,129,130
 479 460 479 460 479 435 c 0,131,132
 479 391 479 391 480.5 383.5 c 128,-1,133
 482 376 482 376 490 376 c 0,134,135
 507 374 507 374 562 374 c 0,0,1
EndSplineSet
Validated: 1
EndChar

StartChar: uni2F29
Encoding: 12073 12073 102
Width: 920
GlyphClass: 2
Flags: MW
LayerCount: 2
Fore
SplineSet
884 169 m 0,0,1
 884 148 884 148 877 130 c 0,2,3
 872 117 872 117 869 115 c 128,-1,4
 866 113 866 113 854 113 c 0,5,6
 839 113 839 113 835 116 c 128,-1,7
 831 119 831 119 822 136 c 1,8,-1
 798 195 l 1,9,10
 753 298 753 298 736.5 328.5 c 128,-1,11
 720 359 720 359 668 439 c 1,12,-1
 630 495 l 2,13,14
 626 502 626 502 627 504.5 c 128,-1,15
 628 507 628 507 636 513 c 128,-1,16
 644 519 644 519 646.5 519.5 c 128,-1,17
 649 520 649 520 655 516 c 1,18,19
 695 478 695 478 712.5 456.5 c 128,-1,20
 730 435 730 435 796 341 c 128,-1,21
 862 247 862 247 873 225.5 c 128,-1,22
 884 204 884 204 884 169 c 0,0,1
297 -2 m 0,23,24
 317 -2 317 -2 347.5 -4.5 c 128,-1,25
 378 -7 378 -7 391 -7 c 0,26,27
 422 -7 422 -7 428 -5.5 c 128,-1,28
 434 -4 434 -4 437 7 c 1,29,30
 438 22 438 22 438 66.5 c 128,-1,31
 438 111 438 111 437 185 c 1,32,-1
 437 225 l 1,33,-1
 440 617 l 1,34,35
 439 644 439 644 439 670 c 1,36,-1
 432 748 l 1,37,38
 437 760 437 760 441 760 c 0,39,40
 464 760 464 760 472 758.5 c 128,-1,41
 480 757 480 757 507.5 748.5 c 128,-1,42
 535 740 535 740 539.5 736 c 128,-1,43
 544 732 544 732 544 719 c 256,44,45
 544 706 544 706 522 697 c 128,-1,46
 500 688 500 688 497 673 c 1,47,48
 495 656 495 656 495 602 c 0,49,50
 495 565 495 565 496 512 c 1,51,-1
 496 498 l 1,52,53
 495 387 495 387 495 164 c 1,54,-1
 496 -13 l 1,55,56
 495 -39 495 -39 492 -46.5 c 128,-1,57
 489 -54 489 -54 469.5 -72 c 128,-1,58
 450 -90 450 -90 444 -93 c 128,-1,59
 438 -96 438 -96 419 -96 c 1,60,-1
 410 -95 l 1,61,-1
 394 -73 l 1,62,63
 394 -73 394 -73 392 -69.5 c 128,-1,64
 390 -66 390 -66 389 -65 c 128,-1,65
 388 -64 388 -64 384.5 -61 c 128,-1,66
 381 -58 381 -58 378 -56.5 c 128,-1,67
 375 -55 375 -55 368.5 -52 c 128,-1,68
 362 -49 362 -49 354.5 -47 c 128,-1,69
 347 -45 347 -45 335.5 -43 c 128,-1,70
 324 -41 324 -41 311 -40 c 0,71,72
 282 -36 282 -36 267 -31 c 1,73,74
 260 -24 260 -24 260 -21 c 128,-1,75
 260 -18 260 -18 267 -7 c 1,76,77
 272 -2 272 -2 297 -2 c 0,23,24
237 525 m 0,78,79
 254 525 254 525 261.5 523 c 128,-1,80
 269 521 269 521 294.5 508 c 128,-1,81
 320 495 320 495 324.5 491.5 c 128,-1,82
 329 488 329 488 329 477 c 0,83,84
 329 468 329 468 326 465.5 c 128,-1,85
 323 463 323 463 305 456.5 c 128,-1,86
 287 450 287 450 283.5 448 c 128,-1,87
 280 446 280 446 277 440 c 2,88,-1
 232 339 l 2,89,90
 189 242 189 242 174.5 215.5 c 128,-1,91
 160 189 160 189 113 128 c 0,92,93
 81 87 81 87 72.5 78.5 c 128,-1,94
 64 70 64 70 55 70 c 0,95,96
 49 70 49 70 42 74 c 0,97,98
 38 77 38 77 37 78.5 c 128,-1,99
 36 80 36 80 36 88 c 1,100,101
 40 95 40 95 61 126.5 c 128,-1,102
 82 158 82 158 89 165 c 1,103,104
 180 317 180 317 198 362 c 128,-1,105
 216 407 216 407 230 524 c 1,106,107
 233 525 233 525 237 525 c 0,78,79
EndSplineSet
Validated: 1
EndChar

StartChar: uni2F2A
Encoding: 12074 12074 103
Width: 920
GlyphClass: 2
Flags: MW
LayerCount: 2
Fore
SplineSet
836 119 m 0,0,1
 836 97 836 97 835.5 72 c 128,-1,2
 835 47 835 47 835 42 c 0,3,4
 835 11 835 11 839.5 -4.5 c 128,-1,5
 844 -20 844 -20 849 -21.5 c 128,-1,6
 854 -23 854 -23 858.5 -28.5 c 128,-1,7
 863 -34 863 -34 863 -46 c 0,8,9
 863 -57 863 -57 861 -60 c 128,-1,10
 859 -63 859 -63 848 -70 c 0,11,12
 811 -91 811 -91 645 -91 c 2,13,-1
 614 -91 l 2,14,15
 587 -91 587 -91 568 -89.5 c 128,-1,16
 549 -88 549 -88 526 -82 c 128,-1,17
 503 -76 503 -76 490.5 -62.5 c 128,-1,18
 478 -49 478 -49 476 -28 c 0,19,20
 473 6 473 6 473 91 c 0,21,22
 473 143 473 143 474 213 c 1,23,-1
 474 255 l 1,24,-1
 471 404 l 1,25,26
 472 420 472 420 473 434 c 0,27,28
 473 437 473 437 481 442 c 1,29,-1
 526 433 l 1,30,31
 539 428 539 428 542 426 c 128,-1,32
 545 424 545 424 550 414 c 1,33,34
 552 405 552 405 538 395 c 128,-1,35
 524 385 524 385 523 378 c 0,36,37
 521 364 521 364 521 277 c 2,38,-1
 521 262 l 1,39,40
 520 165 520 165 520 104 c 0,41,42
 520 18 520 18 521.5 2 c 128,-1,43
 523 -14 523 -14 531 -24 c 1,44,45
 544 -37 544 -37 557 -39 c 128,-1,46
 570 -41 570 -41 636 -41 c 0,47,48
 704 -41 704 -41 720 -40 c 128,-1,49
 736 -39 736 -39 765 -32 c 0,50,51
 779 -28 779 -28 783 -22 c 128,-1,52
 787 -16 787 -16 795 18 c 0,53,54
 806 62 806 62 810 97 c 128,-1,55
 814 132 814 132 815.5 143.5 c 128,-1,56
 817 155 817 155 824 161 c 1,57,58
 828 163 828 163 830 162 c 128,-1,59
 832 161 832 161 832.5 159.5 c 128,-1,60
 833 158 833 158 835 152 c 1,61,62
 836 143 836 143 836 119 c 0,0,1
409 712 m 0,63,64
 409 720 409 720 409 726.5 c 128,-1,65
 409 733 409 733 409.5 738 c 128,-1,66
 410 743 410 743 410.5 747 c 128,-1,67
 411 751 411 751 411.5 753.5 c 128,-1,68
 412 756 412 756 412.5 758 c 128,-1,69
 413 760 413 760 413.5 761.5 c 128,-1,70
 414 763 414 763 415 764 c 128,-1,71
 416 765 416 765 417 765 c 128,-1,72
 418 765 418 765 419 766 c 128,-1,73
 420 767 420 767 421 767 c 0,74,75
 469 762 469 762 479 758.5 c 128,-1,76
 489 755 489 755 501 737 c 1,77,78
 502 725 502 725 484.5 714.5 c 128,-1,79
 467 704 467 704 464 693 c 1,80,-1
 460 555 l 1,81,82
 461 550 461 550 462 548.5 c 128,-1,83
 463 547 463 547 466 546.5 c 128,-1,84
 469 546 469 546 477 546 c 0,85,86
 579 539 579 539 656 539 c 0,87,88
 695 539 695 539 727 541 c 1,89,90
 747 541 747 541 759 549 c 0,91,92
 772 557 772 557 774 565.5 c 128,-1,93
 776 574 776 574 784 583 c 0,94,95
 790 589 790 589 792.5 590 c 128,-1,96
 795 591 795 591 804 591 c 0,97,98
 812 591 812 591 817 587.5 c 128,-1,99
 822 584 822 584 843 564.5 c 128,-1,100
 864 545 864 545 867.5 539.5 c 128,-1,101
 871 534 871 534 871 522 c 1,102,103
 865 511 865 511 861 510 c 2,104,-1
 487 507 l 2,105,106
 468 507 468 507 464.5 505.5 c 128,-1,107
 461 504 461 504 457 495 c 1,108,109
 444 362 444 362 435 324 c 128,-1,110
 426 286 426 286 386 195 c 0,111,112
 370 158 370 158 364 143 c 128,-1,113
 358 128 358 128 345.5 106.5 c 128,-1,114
 333 85 333 85 328 78 c 128,-1,115
 323 71 323 71 305 54 c 128,-1,116
 287 37 287 37 274.5 27 c 128,-1,117
 262 17 262 17 230 -7 c 0,118,119
 133 -82 133 -82 111 -94.5 c 128,-1,120
 89 -107 89 -107 57 -107 c 0,121,122
 51 -107 51 -107 50 -106.5 c 128,-1,123
 49 -106 49 -106 49 -102 c 0,124,125
 49 -91 49 -91 63 -79.5 c 128,-1,126
 77 -68 77 -68 99.5 -56.5 c 128,-1,127
 122 -45 122 -45 160.5 -17.5 c 128,-1,128
 199 10 199 10 236 46 c 0,129,130
 261 69 261 69 269 79 c 128,-1,131
 277 89 277 89 301 126.5 c 128,-1,132
 325 164 325 164 331.5 177.5 c 128,-1,133
 338 191 338 191 353 235 c 0,134,135
 391 353 391 353 397.5 383.5 c 128,-1,136
 404 414 404 414 404 481 c 2,137,-1
 404 501 l 2,138,139
 404 505 404 505 403.5 506 c 128,-1,140
 403 507 403 507 401.5 508 c 128,-1,141
 400 509 400 509 396 510 c 2,142,-1
 179 511 l 1,143,-1
 102 509 l 2,144,145
 84 509 84 509 80 511.5 c 128,-1,146
 76 514 76 514 70.5 530 c 128,-1,147
 65 546 65 546 65.5 549 c 128,-1,148
 66 552 66 552 77 556 c 1,149,150
 162 546 162 546 189.5 544 c 128,-1,151
 217 542 217 542 294 542 c 0,152,153
 347 542 347 542 370.5 544 c 128,-1,154
 394 546 394 546 399 548.5 c 128,-1,155
 404 551 404 551 406 559 c 0,156,157
 412 580 412 580 412 625 c 0,158,159
 412 642 412 642 410.5 668.5 c 128,-1,160
 409 695 409 695 409 712 c 0,63,64
EndSplineSet
Validated: 1
EndChar

StartChar: uni2F2C
Encoding: 12076 12076 105
Width: 920
GlyphClass: 2
Flags: MW
LayerCount: 2
Fore
SplineSet
429 578 m 1,0,1
 429 558 429 558 430 466 c 128,-1,2
 431 374 431 374 431 315 c 2,3,-1
 431 188 l 2,4,5
 431 180 431 180 425 174 c 0,6,7
 418 168 418 168 402 168 c 0,8,9
 390 168 390 168 387 170 c 128,-1,10
 384 172 384 172 380 182 c 1,11,-1
 380 236 l 1,12,-1
 368 245 l 1,13,-1
 288 245 l 1,14,15
 286 240 286 240 275.5 198 c 128,-1,16
 265 156 265 156 246 112 c 0,17,18
 234 83 234 83 226 70.5 c 128,-1,19
 218 58 218 58 180 12.5 c 128,-1,20
 142 -33 142 -33 126.5 -47 c 128,-1,21
 111 -61 111 -61 55 -99 c 1,22,23
 43 -99 43 -99 40.5 -98 c 128,-1,24
 38 -97 38 -97 34 -90 c 1,25,26
 36 -82 36 -82 39.5 -77.5 c 128,-1,27
 43 -73 43 -73 64 -53 c 2,28,-1
 126 7 l 2,29,30
 153 34 153 34 161.5 46.5 c 128,-1,31
 170 59 170 59 194 106.5 c 128,-1,32
 218 154 218 154 223.5 171 c 128,-1,33
 229 188 229 188 237 242 c 1,34,35
 236 246 236 246 228 247 c 1,36,-1
 222 250 l 1,37,-1
 217 245 l 1,38,-1
 170 245 l 1,39,40
 153 243 153 243 146 235 c 1,41,-1
 146 177 l 1,42,-1
 148 176 l 1,43,44
 148 147 148 147 144 142 c 128,-1,45
 140 137 140 137 117 136 c 0,46,47
 104 136 104 136 101 137.5 c 128,-1,48
 98 139 98 139 94 149 c 1,49,-1
 94 616 l 2,50,51
 94 624 94 624 92 642 c 1,52,53
 122 636 122 636 156 636 c 1,54,55
 158 635 158 635 161 635 c 1,56,57
 167 630 167 630 168 627 c 128,-1,58
 169 624 169 624 169 611 c 1,59,-1
 148 594 l 1,60,-1
 148 283 l 1,61,-1
 156 274 l 1,62,-1
 225 274 l 1,63,64
 232 277 232 277 234 279 c 128,-1,65
 236 281 236 281 237 287 c 128,-1,66
 238 293 238 293 238 307 c 0,67,68
 238 314 238 314 236 381 c 2,69,-1
 233 545 l 2,70,71
 231 642 231 642 231 722 c 0,72,73
 231 736 231 736 230.5 747 c 128,-1,74
 230 758 230 758 230 763 c 1,75,76
 237 765 237 765 247 765 c 0,77,78
 270 765 270 765 293 758 c 0,79,80
 310 752 310 752 314 750 c 128,-1,81
 318 748 318 748 322 740 c 1,82,83
 322 731 322 731 320 728.5 c 128,-1,84
 318 726 318 726 308 720 c 1,85,86
 300 720 300 720 297.5 718 c 128,-1,87
 295 716 295 716 288 704 c 1,88,-1
 288 282 l 1,89,-1
 298 274 l 1,90,-1
 371 274 l 1,91,-1
 378 283 l 1,92,-1
 378 620 l 1,93,-1
 376 626 l 1,94,-1
 382 636 l 1,95,96
 425 636 425 636 434.5 633 c 128,-1,97
 444 630 444 630 458 611 c 1,98,99
 458 604 458 604 445 594.5 c 128,-1,100
 432 585 432 585 429 578 c 1,0,1
EndSplineSet
Validated: 1
EndChar

StartChar: uni2F2D
Encoding: 12077 12077 106
Width: 920
GlyphClass: 2
Flags: MW
LayerCount: 2
Fore
SplineSet
156 50 m 0,0,1
 157 44 157 44 158.5 42 c 128,-1,2
 160 40 160 40 170.5 38 c 128,-1,3
 181 36 181 36 204 36 c 0,4,5
 344 36 344 36 401 39 c 1,6,7
 408 42 408 42 410 49 c 1,8,9
 412 72 412 72 412 140 c 0,10,11
 412 185 412 185 411 250 c 1,12,-1
 411 356 l 2,13,14
 411 554 411 554 404 759 c 1,15,16
 407 764 407 764 417 764 c 0,17,18
 434 764 434 764 468 753 c 0,19,20
 494 745 494 745 498 741.5 c 128,-1,21
 502 738 502 738 502 728 c 0,22,23
 502 716 502 716 485.5 704.5 c 128,-1,24
 469 693 469 693 468 686 c 0,25,26
 466 676 466 676 466 624 c 128,-1,27
 466 572 466 572 468 479 c 1,28,-1
 468 461 l 2,29,30
 468 344 468 344 468.5 269.5 c 128,-1,31
 469 195 469 195 469.5 165.5 c 128,-1,32
 470 136 470 136 470 129 c 0,33,34
 470 109 470 109 469.5 97 c 128,-1,35
 469 85 469 85 469 77 c 0,36,37
 469 51 469 51 471 45.5 c 128,-1,38
 473 40 473 40 480 39 c 0,39,40
 509 36 509 36 577 36 c 0,41,42
 611 36 611 36 655 37 c 1,43,-1
 684 37 l 2,44,45
 711 37 711 37 718.5 39.5 c 128,-1,46
 726 42 726 42 728 52 c 1,47,-1
 731 410 l 1,48,-1
 731 411 l 1,49,-1
 727 572 l 2,50,51
 727 576 727 576 727 577.5 c 128,-1,52
 727 579 727 579 727.5 582 c 128,-1,53
 728 585 728 585 729 586.5 c 128,-1,54
 730 588 730 588 731.5 589.5 c 128,-1,55
 733 591 733 591 736 591.5 c 128,-1,56
 739 592 739 592 743 592 c 0,57,58
 758 592 758 592 788 581 c 0,59,60
 810 573 810 573 814.5 570 c 128,-1,61
 819 567 819 567 826 558 c 1,62,63
 827 546 827 546 818 540 c 128,-1,64
 809 534 809 534 798.5 528.5 c 128,-1,65
 788 523 788 523 786 511 c 0,66,67
 784 489 784 489 784 377 c 2,68,-1
 783 70 l 1,69,-1
 788 -71 l 1,70,-1
 787 -81 l 2,71,72
 785 -94 785 -94 781.5 -96.5 c 128,-1,73
 778 -99 778 -99 760 -102 c 1,74,-1
 743 -102 l 1,75,76
 732 -99 732 -99 730 -93 c 128,-1,77
 728 -87 728 -87 728 -54 c 2,78,-1
 728 -9 l 1,79,80
 722 0 722 0 715 0 c 2,81,-1
 163 0 l 1,82,83
 157 -2 157 -2 156 -6 c 128,-1,84
 155 -10 155 -10 155 -30 c 0,85,86
 155 -37 155 -37 155.5 -45 c 128,-1,87
 156 -53 156 -53 156 -58 c 0,88,89
 156 -95 156 -95 151.5 -101 c 128,-1,90
 147 -107 147 -107 119 -107 c 0,91,92
 114 -107 114 -107 100 -104 c 1,93,94
 94 -94 94 -94 94 -71 c 0,95,96
 94 -58 94 -58 95.5 -45 c 128,-1,97
 97 -32 97 -32 97 -23 c 2,98,-1
 98 457 l 1,99,100
 97 525 97 525 94 585 c 1,101,102
 98 592 98 592 100.5 593 c 128,-1,103
 103 594 103 594 115 594 c 0,104,105
 130 594 130 594 135.5 593 c 128,-1,106
 141 592 141 592 159.5 584 c 128,-1,107
 178 576 178 576 182 574 c 128,-1,108
 186 572 186 572 190 564 c 1,109,110
 192 556 192 556 190.5 553.5 c 128,-1,111
 189 551 189 551 175.5 541 c 128,-1,112
 162 531 162 531 160 529 c 128,-1,113
 158 527 158 527 157 523 c 2,114,-1
 155 82 l 1,115,116
 156 54 156 54 156 50 c 0,0,1
EndSplineSet
Validated: 1
EndChar

StartChar: uni2F2F
Encoding: 12079 12079 108
Width: 920
GlyphClass: 2
Flags: MW
LayerCount: 2
Fore
SplineSet
392 641 m 0,0,1
 407 641 407 641 430 641.5 c 128,-1,2
 453 642 453 642 468 642 c 0,3,4
 491 642 491 642 508 641 c 1,5,-1
 654 641 l 1,6,7
 673 642 673 642 689 643 c 1,8,9
 697 646 697 646 717 671 c 128,-1,10
 737 696 737 696 749 700 c 1,11,12
 765 692 765 692 771.5 687 c 128,-1,13
 778 682 778 682 802 656 c 1,14,-1
 819 634 l 1,15,16
 825 624 825 624 823 618 c 1,17,18
 811 609 811 609 805.5 607.5 c 128,-1,19
 800 606 800 606 779 607 c 2,20,-1
 511 608 l 1,21,22
 488 607 488 607 484 604.5 c 128,-1,23
 480 602 480 602 480 590 c 0,24,25
 480 322 480 322 483 53 c 1,26,-1
 486 24 l 1,27,-1
 491 16 l 1,28,-1
 492 15 l 1,29,30
 663 15 663 15 749 16 c 1,31,32
 757 21 757 21 776 46.5 c 128,-1,33
 795 72 795 72 806 79 c 1,34,35
 820 74 820 74 826 69 c 128,-1,36
 832 64 832 64 855 40.5 c 128,-1,37
 878 17 878 17 881.5 11 c 128,-1,38
 885 5 885 5 885 -6 c 0,39,40
 885 -13 885 -13 878 -16 c 0,41,42
 868 -20 868 -20 770.5 -21 c 128,-1,43
 673 -22 673 -22 97 -22 c 1,44,-1
 59 -30 l 1,45,46
 49 -30 49 -30 47 -28 c 128,-1,47
 45 -26 45 -26 40 -12 c 0,48,49
 35 5 35 5 35 15 c 0,50,51
 35 22 35 22 36.5 23.5 c 128,-1,52
 38 25 38 25 48 28 c 1,53,54
 97 17 97 17 120 15 c 128,-1,55
 143 13 143 13 234 13 c 0,56,57
 252 13 252 13 294 14 c 128,-1,58
 336 15 336 15 346 15 c 2,59,-1
 419 15 l 1,60,61
 425 16 425 16 427 19 c 128,-1,62
 429 22 429 22 430.5 37.5 c 128,-1,63
 432 53 432 53 432 88 c 0,64,65
 432 133 432 133 430 208 c 1,66,-1
 430 232 l 2,67,68
 430 494 430 494 425 594 c 0,69,70
 425 601 425 601 418 606 c 1,71,-1
 223 606 l 1,72,73
 176 605 176 605 137 600 c 1,74,75
 122 615 122 615 119.5 621.5 c 128,-1,76
 117 628 117 628 118 652 c 1,77,-1
 122 656 l 1,78,79
 188 645 188 645 222 643 c 128,-1,80
 256 641 256 641 392 641 c 0,0,1
EndSplineSet
Validated: 1
EndChar

StartChar: uni2F30
Encoding: 12080 12080 109
Width: 920
GlyphClass: 2
Flags: MW
LayerCount: 2
Fore
SplineSet
687 358 m 0,0,1
 687 368 687 368 685 373.5 c 128,-1,2
 683 379 683 379 681 380 c 128,-1,3
 679 381 679 381 679 380 c 2,4,-1
 367 378 l 1,5,-1
 208 378 l 2,6,7
 198 378 198 378 190 377 c 0,8,9
 182 377 182 377 181 375.5 c 128,-1,10
 180 374 180 374 180 365 c 1,11,12
 175 323 175 323 175 180 c 0,13,14
 175 88 175 88 177 52 c 128,-1,15
 179 16 179 16 182 7.5 c 128,-1,16
 185 -1 185 -1 196 -7 c 0,17,18
 222 -22 222 -22 247 -24.5 c 128,-1,19
 272 -27 272 -27 395 -27 c 0,20,21
 522 -27 522 -27 630 -20 c 1,22,23
 711 -16 711 -16 726.5 -13.5 c 128,-1,24
 742 -11 742 -11 752 -3 c 1,25,26
 763 4 763 4 766.5 16.5 c 128,-1,27
 770 29 770 29 781 96.5 c 128,-1,28
 792 164 792 164 794 175 c 128,-1,29
 796 186 796 186 801 187 c 0,30,31
 808 189 808 189 809.5 189 c 128,-1,32
 811 189 811 189 814 184 c 1,33,34
 821 177 821 177 821 151 c 0,35,36
 821 127 821 127 819.5 102.5 c 128,-1,37
 818 78 818 78 818 61 c 0,38,39
 818 27 818 27 823 8 c 1,40,41
 842 -12 842 -12 845 -17 c 128,-1,42
 848 -22 848 -22 848 -29 c 0,43,44
 848 -50 848 -50 835.5 -55 c 128,-1,45
 823 -60 823 -60 747 -68 c 128,-1,46
 671 -76 671 -76 633.5 -77.5 c 128,-1,47
 596 -79 596 -79 445 -79 c 0,48,49
 317 -79 317 -79 288 -78 c 128,-1,50
 259 -77 259 -77 213.5 -70 c 128,-1,51
 168 -63 168 -63 158.5 -57.5 c 128,-1,52
 149 -52 149 -52 138 -25 c 0,53,54
 128 -3 128 -3 126.5 28 c 128,-1,55
 125 59 125 59 125 222 c 0,56,57
 125 282 125 282 125.5 330.5 c 128,-1,58
 126 379 126 379 126 399 c 2,59,-1
 126 432 l 1,60,61
 129 437 129 437 136 437 c 0,62,63
 145 437 145 437 164 425 c 1,64,-1
 186 413 l 1,65,-1
 187 413 l 1,66,67
 197 412 197 412 236 412 c 128,-1,68
 275 412 275 412 343 413 c 1,69,-1
 374 413 l 1,70,-1
 611 411 l 2,71,72
 657 411 657 411 670.5 414 c 128,-1,73
 684 417 684 417 688 424 c 1,74,-1
 688 633 l 1,75,-1
 686 659 l 1,76,-1
 679 667 l 1,77,-1
 372 665 l 2,78,79
 337 664 337 664 301 664 c 0,80,81
 155 664 155 664 126 661 c 2,82,-1
 95 658 l 1,83,84
 90 659 90 659 86 661 c 1,85,86
 72 686 72 686 72 700 c 0,87,88
 72 703 72 703 73 706 c 1,89,-1
 80 708 l 1,90,91
 128 700 128 700 155 699 c 128,-1,92
 182 698 182 698 294 698 c 2,93,-1
 340 698 l 2,94,95
 414 698 414 698 517 697 c 1,96,97
 549 698 549 698 574 698 c 0,98,99
 597 698 597 698 610 697.5 c 128,-1,100
 623 697 623 697 633 697 c 0,101,102
 655 697 655 697 668 699.5 c 128,-1,103
 681 702 681 702 685 704 c 128,-1,104
 689 706 689 706 694 713 c 128,-1,105
 699 720 699 720 700 721 c 0,106,107
 707 730 707 730 709.5 731.5 c 128,-1,108
 712 733 712 733 719 733 c 256,109,110
 726 733 726 733 729.5 731.5 c 128,-1,111
 733 730 733 730 746.5 719 c 128,-1,112
 760 708 760 708 764 703.5 c 128,-1,113
 768 699 768 699 779 681 c 1,114,115
 780 670 780 670 774 665 c 0,116,117
 767 659 767 659 759.5 658 c 128,-1,118
 752 657 752 657 745 646 c 0,119,120
 740 638 740 638 739 634 c 128,-1,121
 738 630 738 630 738 615 c 0,122,123
 738 597 738 597 739 562 c 1,124,125
 739 454 739 454 740 401 c 1,126,-1
 743 326 l 1,127,128
 742 309 742 309 738.5 306 c 128,-1,129
 735 303 735 303 714 302 c 1,130,-1
 697 306 l 1,131,-1
 696 306 l 1,132,133
 690 315 690 315 689 321.5 c 128,-1,134
 688 328 688 328 687 358 c 0,0,1
EndSplineSet
Validated: 1
EndChar

StartChar: uni2F32
Encoding: 12082 12082 111
Width: 920
GlyphClass: 2
Flags: MW
LayerCount: 2
Fore
SplineSet
254 398 m 0,0,1
 285 398 285 398 330.5 399 c 128,-1,2
 376 400 376 400 419 400 c 1,3,4
 428 406 428 406 428 409 c 2,5,-1
 429 619 l 1,6,7
 428 654 428 654 428 658 c 0,8,9
 428 664 428 664 426.5 665.5 c 128,-1,10
 425 667 425 667 417 671 c 1,11,-1
 188 671 l 1,12,13
 159 670 159 670 134 669 c 1,14,15
 122 678 122 678 117.5 683.5 c 128,-1,16
 113 689 113 689 112.5 691.5 c 128,-1,17
 112 694 112 694 113 703.5 c 128,-1,18
 114 713 114 713 114 720 c 1,19,-1
 122 723 l 1,20,21
 168 709 168 709 207 706.5 c 128,-1,22
 246 704 246 704 433 704 c 0,23,24
 525 704 525 704 608 706 c 2,25,-1
 687 708 l 1,26,27
 698 714 698 714 717 735.5 c 128,-1,28
 736 757 736 757 743 763 c 1,29,-1
 752 762 l 1,30,-1
 802 712 l 2,31,32
 812 701 812 701 819 690 c 1,33,34
 819 680 819 680 817.5 677.5 c 128,-1,35
 816 675 816 675 806 673 c 1,36,-1
 756 672 l 1,37,-1
 543 675 l 1,38,39
 498 674 498 674 489.5 671.5 c 128,-1,40
 481 669 481 669 481 660 c 0,41,42
 477 620 477 620 477 557 c 0,43,44
 477 473 477 473 481 406 c 1,45,-1
 488 398 l 1,46,-1
 712 399 l 2,47,48
 733 400 733 400 754 400 c 1,49,50
 763 406 763 406 783 429 c 128,-1,51
 803 452 803 452 808 456 c 1,52,-1
 819 452 l 1,53,-1
 864 411 l 1,54,-1
 880 391 l 1,55,56
 884 384 884 384 884 378 c 128,-1,57
 884 372 884 372 883 370.5 c 128,-1,58
 882 369 882 369 876 367 c 1,59,60
 815 365 815 365 605 365 c 2,61,-1
 560 365 l 2,62,63
 508 365 508 365 495 362 c 128,-1,64
 482 359 482 359 480 349 c 1,65,66
 479 335 479 335 479 283 c 2,67,-1
 479 211 l 1,68,-1
 483 -81 l 1,69,70
 477 -101 477 -101 451 -101 c 0,71,72
 440 -101 440 -101 433 -99 c 1,73,74
 426 -88 426 -88 425 -82 c 128,-1,75
 424 -76 424 -76 424 -50 c 0,76,77
 424 -38 424 -38 427 95 c 128,-1,78
 430 228 430 228 430 263 c 0,79,80
 430 333 430 333 428 352 c 0,81,82
 428 357 428 357 427.5 358 c 128,-1,83
 427 359 427 359 423 361 c 128,-1,84
 419 363 419 363 410.5 363.5 c 128,-1,85
 402 364 402 364 385 364 c 0,86,87
 359 364 359 364 314 363 c 1,88,89
 133 363 133 363 61 357 c 1,90,91
 54 362 54 362 51.5 365 c 128,-1,92
 49 368 49 368 44 379 c 0,93,94
 36 394 36 394 36 402 c 128,-1,95
 36 410 36 410 37 411 c 128,-1,96
 38 412 38 412 46 414 c 1,97,98
 102 402 102 402 128 400 c 128,-1,99
 154 398 154 398 254 398 c 0,0,1
EndSplineSet
Validated: 1
EndChar

StartChar: uni2F33
Encoding: 12083 12083 112
Width: 920
GlyphClass: 2
Flags: MW
LayerCount: 2
Fore
SplineSet
436 315 m 0,0,1
 436 301 436 301 429 290 c 0,2,3
 424 282 424 282 422 280.5 c 128,-1,4
 420 279 420 279 413 279 c 0,5,6
 404 279 404 279 401 281.5 c 128,-1,7
 398 284 398 284 387 300 c 2,8,-1
 345 364 l 2,9,10
 317 407 317 407 285 442 c 1,11,-1
 242 483 l 2,12,13
 238 488 238 488 237 490 c 128,-1,14
 236 492 236 492 237.5 499.5 c 128,-1,15
 239 507 239 507 240 508.5 c 128,-1,16
 241 510 241 510 248 510 c 0,17,18
 257 510 257 510 262.5 507.5 c 128,-1,19
 268 505 268 505 290 488.5 c 128,-1,20
 312 472 312 472 317 468 c 128,-1,21
 322 464 322 464 327 457 c 1,22,23
 337 457 337 457 342.5 466.5 c 128,-1,24
 348 476 348 476 371.5 531.5 c 128,-1,25
 395 587 395 587 401.5 605.5 c 128,-1,26
 408 624 408 624 424 676 c 1,27,-1
 443 747 l 1,28,-1
 447 757 l 2,29,30
 450 762 450 762 457 762 c 0,31,32
 468 762 468 762 473 760 c 128,-1,33
 478 758 478 758 497 746 c 0,34,35
 522 730 522 730 528 720 c 1,36,37
 529 704 529 704 508 695.5 c 128,-1,38
 487 687 487 687 482 679 c 1,39,40
 444 582 444 582 429 552 c 128,-1,41
 414 522 414 522 362 439 c 1,42,43
 361 435 361 435 362 432.5 c 128,-1,44
 363 430 363 430 367 425.5 c 128,-1,45
 371 421 371 421 376 415 c 128,-1,46
 381 409 381 409 392.5 394.5 c 128,-1,47
 404 380 404 380 417 362 c 0,48,49
 431 342 431 342 433.5 336 c 128,-1,50
 436 330 436 330 436 315 c 0,0,1
550 209 m 1,51,52
 561 208 561 208 567.5 203.5 c 128,-1,53
 574 199 574 199 600 171 c 256,54,55
 626 143 626 143 634 132 c 128,-1,56
 642 121 642 121 665 82.5 c 128,-1,57
 688 44 688 44 691.5 33.5 c 128,-1,58
 695 23 695 23 695 -2 c 0,59,60
 695 -15 695 -15 694 -18.5 c 128,-1,61
 693 -22 693 -22 686.5 -31 c 128,-1,62
 680 -40 680 -40 677 -41 c 128,-1,63
 674 -42 674 -42 664 -41 c 0,64,65
 660 -41 660 -41 656 -40 c 1,66,67
 651 -36 651 -36 633 10 c 0,68,69
 620 45 620 45 616.5 51 c 128,-1,70
 613 57 613 57 607 57 c 1,71,-1
 297 -10 l 2,72,73
 296 -11 296 -11 286 -33 c 0,74,75
 279 -50 279 -50 276.5 -52.5 c 128,-1,76
 274 -55 274 -55 266 -55 c 0,77,78
 259 -55 259 -55 257 -53.5 c 128,-1,79
 255 -52 255 -52 250 -44 c 0,80,81
 231 -18 231 -18 225 29 c 1,82,83
 225 39 225 39 229.5 40.5 c 128,-1,84
 234 42 234 42 274 46 c 0,85,86
 306 49 306 49 314 51 c 1,87,88
 336 69 336 69 347.5 87 c 128,-1,89
 359 105 359 105 407 196.5 c 128,-1,90
 455 288 455 288 467 312.5 c 128,-1,91
 479 337 479 337 502 394 c 1,92,-1
 549 525 l 1,93,-1
 549 526 l 1,94,95
 552 531 552 531 560 531 c 0,96,97
 574 531 574 531 579.5 529 c 128,-1,98
 585 527 585 527 606.5 515 c 128,-1,99
 628 503 628 503 631.5 499 c 128,-1,100
 635 495 635 495 635 482 c 0,101,102
 635 480 635 480 634 477 c 1,103,104
 630 473 630 473 618 469.5 c 128,-1,105
 606 466 606 466 594 460 c 0,106,107
 586 455 586 455 584 452.5 c 128,-1,108
 582 450 582 450 578 439 c 0,109,110
 560 386 560 386 548 361.5 c 128,-1,111
 536 337 536 337 480.5 242.5 c 128,-1,112
 425 148 425 148 411 125 c 128,-1,113
 397 102 397 102 368 61 c 1,114,-1
 371 57 l 1,115,116
 545 77 545 77 598 90 c 1,117,118
 601 93 601 93 596 103 c 1,119,-1
 541 188 l 1,120,121
 540 196 540 196 541 198.5 c 128,-1,122
 542 201 542 201 550 209 c 1,51,52
EndSplineSet
Validated: 33
EndChar

StartChar: uni2F34
Encoding: 12084 12084 113
Width: 920
GlyphClass: 2
Flags: MW
LayerCount: 2
Fore
SplineSet
477 775 m 0,0,1
 486 775 486 775 494 773.5 c 128,-1,2
 502 772 502 772 505 772 c 0,3,4
 527 765 527 765 528 765 c 2,5,-1
 532 761 l 1,6,7
 532 749 532 749 517.5 736 c 128,-1,8
 503 723 503 723 503 711 c 2,9,-1
 503 688 l 1,10,-1
 504 687 l 1,11,12
 504 674 504 674 506 671 c 128,-1,13
 508 668 508 668 520 664 c 1,14,-1
 695 664 l 1,15,16
 710 663 710 663 721 663 c 0,17,18
 735 663 735 663 741 664 c 128,-1,19
 747 665 747 665 755 672 c 128,-1,20
 763 679 763 679 774 695 c 0,21,22
 785 712 785 712 788.5 714.5 c 128,-1,23
 792 717 792 717 799 717 c 0,24,25
 814 717 814 717 820.5 712 c 128,-1,26
 827 707 827 707 851 677 c 1,27,-1
 867 653 l 1,28,29
 870 646 870 646 870 642 c 1,30,-1
 858 633 l 1,31,-1
 191 633 l 1,32,-1
 181 623 l 1,33,-1
 181 273 l 2,34,35
 181 120 181 120 166.5 72.5 c 128,-1,36
 152 25 152 25 63 -107 c 1,37,-1
 54 -112 l 1,38,-1
 50 -110 l 1,39,40
 50 -97 50 -97 74 -37 c 1,41,42
 116 88 116 88 123 145.5 c 128,-1,43
 130 203 130 203 130 426 c 2,44,-1
 130 613 l 2,45,46
 130 620 130 620 129.5 636 c 128,-1,47
 129 652 129 652 129 656 c 0,48,49
 129 682 129 682 131 692 c 1,50,51
 144 692 144 692 176 675 c 1,52,-1
 192 668 l 1,53,54
 209 664 209 664 294 664 c 0,55,56
 310 664 310 664 349 664.5 c 128,-1,57
 388 665 388 665 414 665 c 2,58,-1
 440 665 l 1,59,60
 453 674 453 674 455 682 c 128,-1,61
 457 690 457 690 457 728 c 0,62,63
 457 730 457 730 456.5 738 c 128,-1,64
 456 746 456 746 456 749 c 2,65,-1
 456 760 l 1,66,-1
 455 767 l 1,67,68
 459 773 459 773 461.5 774 c 128,-1,69
 464 775 464 775 477 775 c 0,0,1
EndSplineSet
Validated: 1
EndChar

